<svg xmlns="http://www.w3.org/2000/svg" xmlns:xlink="http://www.w3.org/1999/xlink" width="250" zoomAndPan="magnify" viewBox="0 0 187.5 187.499992" height="250" preserveAspectRatio="xMidYMid meet" version="1.0"><defs><clipPath id="0332db8454"><path d="M 36.324219 34.492188 L 152.160156 34.492188 L 152.160156 186.867188 L 36.324219 186.867188 Z M 36.324219 34.492188 " clip-rule="nonzero"/></clipPath><clipPath id="ad42f579d0"><path d="M 34.828125 42 L 57 42 L 57 51 L 34.828125 51 Z M 34.828125 42 " clip-rule="nonzero"/></clipPath></defs><g clip-path="url(#0332db8454)"><path fill="#20CBC5" d="M 144.132812 153.820312 L 144.136719 153.820312 Z M 51.242188 111.109375 C 49.769531 111.109375 48.285156 111.574219 47.03125 112.535156 C 44.453125 114.507812 43.585938 118.070312 44.96875 121.003906 C 50.089844 131.863281 59.695312 151.503906 66.460938 161.007812 L 66.605469 161.214844 C 74.5 172.425781 87.367188 179.144531 101.039062 179.199219 L 101.222656 179.199219 C 109.871094 179.199219 118.191406 176.605469 125.277344 171.691406 C 132.167969 166.914062 137.441406 160.285156 140.523438 152.527344 L 140.816406 151.621094 C 143.257812 143.730469 144.496094 132.957031 144.496094 119.601562 L 144.496094 101.820312 C 144.496094 98.851562 142.082031 96.4375 139.113281 96.4375 L 138.875 96.4375 C 135.738281 96.4375 133.183594 98.957031 133.164062 102.0625 L 133.164062 118.601562 C 133.164062 120.71875 131.445312 122.4375 129.328125 122.4375 C 127.210938 122.4375 125.496094 120.71875 125.496094 118.601562 L 125.496094 102.101562 C 125.496094 102.082031 125.496094 102.058594 125.496094 102.035156 L 125.496094 93.4375 C 125.496094 90.3125 122.957031 87.769531 119.832031 87.769531 C 116.707031 87.769531 114.164062 90.3125 114.164062 93.4375 L 114.164062 110.601562 C 114.164062 112.71875 112.449219 114.433594 110.332031 114.433594 C 108.214844 114.433594 106.5 112.71875 106.5 110.601562 L 106.5 86.769531 C 106.5 83.644531 103.957031 81.105469 100.832031 81.105469 C 97.707031 81.105469 95.164062 83.644531 95.164062 86.769531 L 95.078125 105.121094 C 95.070312 107.230469 93.355469 108.933594 91.246094 108.933594 C 91.246094 108.933594 91.242188 108.933594 91.238281 108.933594 C 89.128906 108.933594 87.417969 107.21875 87.414062 105.105469 L 87.347656 47.660156 C 87.347656 44.6875 84.933594 42.273438 81.96875 42.273438 L 81.726562 42.273438 C 78.578125 42.273438 76.015625 44.8125 76.015625 47.9375 L 76.015625 126.101562 C 76.015625 127.710938 75.011719 129.148438 73.5 129.699219 C 71.992188 130.253906 70.296875 129.808594 69.257812 128.582031 L 56.535156 113.5625 C 55.167969 111.945312 53.214844 111.109375 51.242188 111.109375 Z M 101.214844 186.867188 L 101.015625 186.867188 C 84.859375 186.800781 69.65625 178.867188 60.347656 165.640625 L 60.210938 165.449219 C 53.105469 155.460938 43.265625 135.367188 38.035156 124.273438 C 35.121094 118.09375 36.945312 110.59375 42.375 106.445312 C 48.5625 101.714844 57.351562 102.664062 62.386719 108.605469 L 68.347656 115.648438 L 68.347656 47.9375 C 68.347656 40.585938 74.351562 34.605469 81.726562 34.605469 L 81.96875 34.605469 C 89.160156 34.605469 95.015625 40.460938 95.015625 47.65625 L 95.042969 74.757812 C 96.796875 73.914062 98.761719 73.4375 100.832031 73.4375 C 106.449219 73.4375 111.265625 76.929688 113.226562 81.859375 C 115.175781 80.742188 117.429688 80.105469 119.832031 80.105469 C 126.082031 80.105469 131.339844 84.425781 132.773438 90.238281 C 134.605469 89.300781 136.679688 88.769531 138.875 88.769531 L 139.113281 88.769531 C 146.308594 88.769531 152.164062 94.625 152.164062 101.820312 L 152.160156 119.601562 C 152.160156 133.738281 150.804688 145.28125 148.132812 153.910156 C 148.128906 153.925781 148.125 153.941406 148.121094 153.953125 L 147.78125 154.996094 C 147.757812 155.074219 147.730469 155.152344 147.699219 155.226562 C 144.066406 164.449219 137.820312 172.324219 129.644531 177.992188 C 121.269531 183.796875 111.441406 186.867188 101.214844 186.867188 " fill-opacity="1" fill-rule="nonzero"/></g><g clip-path="url(#ad42f579d0)"><path fill="#20CBC5" d="M 52.660156 50.46875 L 38.664062 50.46875 C 36.542969 50.46875 34.828125 48.75 34.828125 46.632812 C 34.828125 44.515625 36.542969 42.800781 38.664062 42.800781 L 52.660156 42.800781 C 54.777344 42.800781 56.496094 44.515625 56.496094 46.632812 C 56.496094 48.75 54.777344 50.46875 52.660156 50.46875 " fill-opacity="1" fill-rule="nonzero"/></g><path fill="#20CBC5" d="M 61.6875 29.957031 C 60.710938 29.957031 59.730469 29.582031 58.980469 28.839844 L 49.066406 18.957031 C 47.566406 17.460938 47.5625 15.035156 49.058594 13.535156 C 50.550781 12.035156 52.980469 12.03125 54.476562 13.527344 L 64.394531 23.410156 C 65.890625 24.902344 65.898438 27.328125 64.402344 28.828125 C 63.65625 29.582031 62.671875 29.957031 61.6875 29.957031 " fill-opacity="1" fill-rule="nonzero"/><path fill="#20CBC5" d="M 82.558594 21.800781 C 80.449219 21.800781 78.734375 20.09375 78.726562 17.980469 L 78.679688 3.980469 C 78.671875 1.863281 80.382812 0.140625 82.5 0.132812 C 82.503906 0.132812 82.507812 0.132812 82.511719 0.132812 C 84.621094 0.132812 86.339844 1.839844 86.34375 3.953125 L 86.390625 17.953125 C 86.402344 20.070312 84.691406 21.792969 82.574219 21.800781 C 82.570312 21.800781 82.5625 21.800781 82.558594 21.800781 " fill-opacity="1" fill-rule="nonzero"/><path fill="#20CBC5" d="M 103.101562 30.753906 C 102.125 30.753906 101.152344 30.386719 100.40625 29.648438 C 98.902344 28.15625 98.886719 25.730469 100.375 24.226562 L 110.226562 14.277344 C 111.714844 12.773438 114.140625 12.757812 115.648438 14.25 C 117.152344 15.738281 117.164062 18.164062 115.675781 19.667969 L 105.824219 29.617188 C 105.074219 30.375 104.089844 30.753906 103.101562 30.753906 " fill-opacity="1" fill-rule="nonzero"/><path fill="#20CBC5" d="M 111.328125 51.597656 C 109.222656 51.597656 107.511719 49.902344 107.496094 47.792969 C 107.480469 45.675781 109.183594 43.949219 111.304688 43.933594 L 125.304688 43.839844 C 125.308594 43.839844 125.320312 43.835938 125.328125 43.835938 C 127.433594 43.835938 129.148438 45.535156 129.160156 47.644531 C 129.175781 49.761719 127.472656 51.488281 125.355469 51.503906 L 111.355469 51.597656 C 111.347656 51.597656 111.335938 51.597656 111.328125 51.597656 " fill-opacity="1" fill-rule="nonzero"/></svg>