<svg xmlns="http://www.w3.org/2000/svg" xmlns:xlink="http://www.w3.org/1999/xlink" zoomAndPan="magnify" viewBox="0 42 187.5 100" preserveAspectRatio="xMidYMid meet" version="1.0"><defs><clipPath id="feddd85f93"><path d="M 41 107 L 76 107 L 76 141.328125 L 41 141.328125 Z M 41 107 " clip-rule="nonzero"/></clipPath><clipPath id="0b6f65e724"><path d="M 135 107 L 170 107 L 170 141.328125 L 135 141.328125 Z M 135 107 " clip-rule="nonzero"/></clipPath><clipPath id="0edd178566"><path d="M 0 45.582031 L 121 45.582031 L 121 108 L 0 108 Z M 0 45.582031 " clip-rule="nonzero"/></clipPath></defs><path fill="#21cbc4" d="M 31.324219 125.742188 C 31.324219 128.300781 33.195312 129.753906 37.871094 130.332031 L 37.871094 130.328125 C 37.8125 130.109375 37.757812 129.882812 37.703125 129.660156 C 37.699219 129.648438 37.699219 129.640625 37.691406 129.625 C 37.644531 129.410156 37.597656 129.195312 37.554688 128.976562 C 37.546875 128.941406 37.539062 128.90625 37.53125 128.871094 C 37.492188 128.65625 37.453125 128.433594 37.414062 128.210938 C 37.378906 127.996094 37.347656 127.789062 37.320312 127.566406 C 37.308594 127.527344 37.308594 127.484375 37.296875 127.4375 C 37.277344 127.257812 37.253906 127.078125 37.238281 126.902344 C 37.230469 126.808594 37.21875 126.710938 37.207031 126.613281 C 37.195312 126.441406 37.179688 126.261719 37.167969 126.082031 C 37.164062 126.019531 37.160156 125.960938 37.152344 125.902344 C 37.144531 125.722656 37.132812 125.542969 37.128906 125.367188 C 37.128906 125.328125 37.128906 125.285156 37.128906 125.246094 C 37.117188 125.007812 37.113281 124.773438 37.113281 124.527344 C 37.113281 122.816406 37.304688 121.148438 37.667969 119.546875 C 37.703125 119.390625 37.738281 119.238281 37.777344 119.082031 C 37.835938 118.835938 37.902344 118.601562 37.96875 118.367188 C 38.015625 118.1875 38.070312 118.019531 38.121094 117.84375 C 38.175781 117.667969 38.238281 117.496094 38.292969 117.320312 C 38.351562 117.152344 38.410156 116.976562 38.476562 116.800781 C 38.542969 116.632812 38.605469 116.460938 38.671875 116.292969 C 38.734375 116.121094 38.804688 115.957031 38.875 115.789062 C 38.875 115.78125 38.875 115.78125 38.882812 115.777344 C 38.949219 115.613281 39.019531 115.449219 39.09375 115.285156 C 39.171875 115.121094 39.25 114.953125 39.324219 114.789062 C 39.398438 114.640625 39.476562 114.484375 39.554688 114.335938 C 39.640625 114.160156 39.730469 113.992188 39.824219 113.828125 C 39.902344 113.671875 39.988281 113.523438 40.074219 113.371094 C 40.078125 113.355469 40.089844 113.34375 40.097656 113.332031 C 40.183594 113.1875 40.273438 113.039062 40.359375 112.894531 C 40.441406 112.75 40.53125 112.609375 40.621094 112.46875 C 40.644531 112.433594 40.664062 112.398438 40.6875 112.367188 C 40.773438 112.238281 40.859375 112.113281 40.941406 111.984375 C 40.996094 111.898438 41.058594 111.820312 41.113281 111.738281 L 31.324219 111.738281 L 31.324219 125.742188 " fill-opacity="1" fill-rule="nonzero"/><path fill="#21cbc4" d="M 133.167969 87.457031 L 133.167969 66.632812 C 140.355469 66.632812 147.371094 66.636719 154.394531 66.621094 C 154.933594 66.621094 155.320312 66.761719 155.667969 67.195312 C 161.054688 73.898438 166.457031 80.597656 171.992188 87.457031 Z M 141.511719 92.707031 C 139.691406 92.773438 137.863281 92.757812 136.042969 92.710938 C 135.304688 92.691406 134.75 92.246094 134.75 91.464844 C 134.753906 90.625 135.269531 90.167969 136.125 90.15625 C 137.015625 90.152344 137.898438 90.15625 138.789062 90.15625 C 139.664062 90.15625 140.554688 90.140625 141.4375 90.167969 C 142.222656 90.179688 142.679688 90.601562 142.714844 91.390625 C 142.75 92.203125 142.246094 92.683594 141.511719 92.707031 Z M 183.382812 118.960938 C 182.5625 118.578125 181.683594 118.417969 180.78125 118.363281 C 179.617188 118.285156 178.421875 118.378906 177.289062 118.378906 C 177.289062 118.378906 177.277344 97.210938 177.292969 87.914062 C 177.292969 86.601562 177.097656 85.417969 176.234375 84.355469 C 170.527344 77.371094 164.839844 70.382812 159.171875 63.367188 C 158.074219 62.007812 156.722656 61.371094 155.011719 61.371094 C 152.796875 61.378906 150.585938 61.371094 148.371094 61.371094 L 124.644531 61.371094 L 124.644531 111.738281 L 76.738281 111.738281 C 76.898438 111.964844 77.050781 112.195312 77.203125 112.417969 C 77.277344 112.535156 77.351562 112.648438 77.421875 112.769531 C 77.941406 113.582031 78.398438 114.429688 78.804688 115.308594 C 78.863281 115.4375 78.917969 115.5625 78.972656 115.6875 C 79.003906 115.757812 79.03125 115.828125 79.0625 115.902344 C 79.117188 116.027344 79.167969 116.148438 79.21875 116.273438 C 79.296875 116.476562 79.378906 116.679688 79.453125 116.886719 C 79.515625 117.054688 79.578125 117.226562 79.632812 117.390625 C 79.6875 117.546875 79.738281 117.699219 79.78125 117.847656 L 79.839844 118.039062 C 79.929688 118.339844 80.011719 118.632812 80.089844 118.9375 C 80.136719 119.113281 80.179688 119.292969 80.222656 119.46875 C 80.261719 119.636719 80.300781 119.8125 80.332031 119.984375 C 80.410156 120.371094 80.480469 120.765625 80.539062 121.160156 C 80.558594 121.292969 80.582031 121.429688 80.59375 121.5625 C 80.609375 121.667969 80.625 121.78125 80.640625 121.894531 C 80.648438 121.996094 80.660156 122.101562 80.671875 122.210938 C 80.683594 122.355469 80.699219 122.5 80.710938 122.644531 C 80.71875 122.734375 80.726562 122.820312 80.730469 122.914062 C 80.738281 123.035156 80.746094 123.152344 80.75 123.269531 C 80.761719 123.445312 80.765625 123.613281 80.773438 123.792969 L 80.773438 123.855469 C 80.78125 124.035156 80.78125 124.214844 80.78125 124.394531 C 80.78125 124.628906 80.78125 124.859375 80.765625 125.085938 C 80.765625 125.171875 80.765625 125.257812 80.753906 125.332031 C 80.753906 125.480469 80.746094 125.632812 80.734375 125.78125 C 80.734375 125.839844 80.730469 125.90625 80.726562 125.972656 C 80.714844 126.128906 80.699219 126.296875 80.683594 126.453125 C 80.675781 126.515625 80.675781 126.570312 80.664062 126.625 C 80.65625 126.746094 80.644531 126.863281 80.628906 126.984375 C 80.621094 127.082031 80.605469 127.1875 80.585938 127.289062 C 80.574219 127.378906 80.566406 127.46875 80.550781 127.558594 C 80.53125 127.703125 80.511719 127.851562 80.480469 127.996094 C 80.46875 128.085938 80.457031 128.171875 80.441406 128.257812 C 80.402344 128.472656 80.359375 128.6875 80.3125 128.902344 C 80.269531 129.089844 80.230469 129.285156 80.179688 129.476562 C 80.160156 129.574219 80.136719 129.664062 80.109375 129.757812 C 80.066406 129.949219 80.011719 130.144531 79.960938 130.332031 L 131.882812 130.332031 C 129.808594 120.726562 132.253906 112.6875 140.21875 106.953125 C 147.347656 101.820312 155.253906 101.3125 162.882812 105.65625 C 172.445312 111.101562 175.441406 119.730469 173.324219 130.421875 C 175.863281 130.421875 178.359375 130.453125 180.839844 130.394531 C 184.234375 130.308594 186.824219 127.667969 186.820312 124.339844 C 186.816406 122.03125 185.46875 119.9375 183.382812 118.960938 " fill-opacity="1" fill-rule="nonzero"/><path fill="#21cbc4" d="M 58.921875 118.179688 C 55.488281 118.179688 52.707031 120.964844 52.707031 124.394531 C 52.707031 127.828125 55.488281 130.609375 58.921875 130.609375 C 62.355469 130.609375 65.136719 127.828125 65.136719 124.394531 C 65.136719 120.964844 62.355469 118.179688 58.921875 118.179688 " fill-opacity="1" fill-rule="nonzero"/><g clip-path="url(#feddd85f93)"><path fill="#21cbc4" d="M 58.921875 135.746094 C 52.664062 135.746094 47.570312 130.652344 47.570312 124.394531 C 47.570312 118.132812 52.664062 113.042969 58.921875 113.042969 C 65.179688 113.042969 70.273438 118.132812 70.273438 124.394531 C 70.273438 130.652344 65.179688 135.746094 58.921875 135.746094 Z M 58.921875 107.386719 C 49.542969 107.386719 41.910156 115.019531 41.910156 124.394531 C 41.910156 133.773438 49.542969 141.40625 58.921875 141.40625 C 68.300781 141.40625 75.929688 133.773438 75.929688 124.394531 C 75.929688 115.019531 68.300781 107.386719 58.921875 107.386719 " fill-opacity="1" fill-rule="nonzero"/></g><g clip-path="url(#0b6f65e724)"><path fill="#21cbc4" d="M 152.613281 135.445312 C 146.527344 135.445312 141.574219 130.488281 141.574219 124.398438 C 141.574219 118.3125 146.527344 113.355469 152.613281 113.355469 C 158.703125 113.355469 163.660156 118.3125 163.660156 124.398438 C 163.660156 130.488281 158.703125 135.445312 152.613281 135.445312 Z M 152.613281 107.390625 C 143.234375 107.390625 135.609375 115.023438 135.609375 124.398438 C 135.609375 133.777344 143.234375 141.410156 152.613281 141.410156 C 161.992188 141.410156 169.625 133.777344 169.625 124.398438 C 169.625 115.023438 161.992188 107.390625 152.613281 107.390625 " fill-opacity="1" fill-rule="nonzero"/></g><path fill="#21cbc4" d="M 152.613281 118.355469 C 149.273438 118.355469 146.570312 121.058594 146.570312 124.398438 C 146.570312 127.738281 149.273438 130.449219 152.613281 130.449219 C 155.953125 130.449219 158.664062 127.738281 158.664062 124.398438 C 158.664062 121.058594 155.953125 118.355469 152.613281 118.355469 " fill-opacity="1" fill-rule="nonzero"/><g clip-path="url(#0edd178566)"><path fill="#21cbc4" d="M 94.332031 61.890625 C 105.625 61.890625 114.8125 71.078125 114.8125 82.371094 C 114.8125 93.660156 105.625 102.84375 94.332031 102.84375 C 83.042969 102.84375 73.855469 93.660156 73.855469 82.371094 C 73.855469 71.078125 83.042969 61.890625 94.332031 61.890625 Z M 31.324219 107.390625 L 45.199219 107.390625 C 48.953125 104.355469 53.730469 102.535156 58.921875 102.535156 C 64.113281 102.535156 68.890625 104.355469 72.640625 107.390625 L 120.296875 107.390625 C 120.296875 88.46875 120.296875 69.535156 120.296875 50.613281 C 120.296875 46.78125 119.089844 45.597656 115.152344 45.597656 C 99.433594 45.589844 83.710938 45.589844 67.988281 45.589844 C 57.019531 45.589844 46.054688 45.589844 35.085938 45.601562 L 35.039062 45.601562 C 32.972656 45.613281 31.324219 47.324219 31.324219 49.390625 L 31.324219 59.546875 L 32.382812 59.546875 C 42.394531 59.546875 52.414062 59.554688 62.429688 59.554688 C 65.726562 59.554688 69.023438 59.523438 72.320312 59.558594 C 74.339844 59.578125 75.359375 60.609375 75.414062 62.566406 C 75.492188 64.910156 74.421875 66.015625 71.980469 66.023438 C 61.96875 66.035156 51.949219 66.027344 41.929688 66.027344 C 29.316406 66.027344 16.699219 66.023438 4.089844 66.03125 C 1.410156 66.035156 0.203125 67.34375 0.476562 69.894531 C 0.675781 71.761719 1.808594 72.546875 4.339844 72.546875 C 23.230469 72.550781 42.125 72.546875 61.011719 72.546875 C 61.585938 72.546875 62.160156 72.507812 62.726562 72.570312 C 64.476562 72.777344 65.4375 73.828125 65.515625 75.574219 C 65.628906 78.070312 64.457031 79.148438 61.5625 79.148438 C 44.957031 79.148438 28.34375 79.144531 11.730469 79.148438 C 9.199219 79.148438 8.164062 79.945312 8.03125 81.925781 C 7.851562 84.484375 8.929688 85.644531 11.582031 85.648438 C 24.449219 85.660156 37.320312 85.648438 50.1875 85.660156 C 52.585938 85.660156 53.65625 86.574219 53.742188 88.617188 C 53.851562 91.085938 52.816406 92.144531 50.207031 92.144531 C 39.933594 92.152344 29.667969 92.144531 19.394531 92.152344 C 17.042969 92.152344 15.863281 93.117188 15.71875 95.0625 C 15.546875 97.398438 16.71875 98.703125 19.199219 98.730469 C 22.300781 98.773438 31.324219 98.746094 31.324219 98.746094 L 31.324219 107.390625 " fill-opacity="1" fill-rule="nonzero"/></g><path fill="#21cbc4" d="M 86.648438 83.289062 C 86.726562 82.820312 86.980469 82.414062 87.367188 82.140625 C 87.664062 81.929688 88.019531 81.820312 88.371094 81.816406 C 88.488281 81.816406 88.585938 81.824219 88.675781 81.839844 C 89.144531 81.921875 89.554688 82.175781 89.828125 82.5625 L 92.738281 86.425781 L 98.765625 77.203125 C 99.078125 76.667969 99.660156 76.339844 100.277344 76.339844 C 100.597656 76.339844 100.90625 76.425781 101.179688 76.585938 C 101.585938 76.828125 101.875 77.207031 101.996094 77.671875 C 102.105469 78.125 102.039062 78.605469 101.792969 79.003906 L 95.035156 89.472656 C 94.835938 89.808594 94.425781 90.492188 93.554688 90.761719 C 93.421875 90.800781 93.175781 90.863281 92.871094 90.871094 L 92.863281 90.871094 C 92.375 90.871094 91.425781 90.691406 90.582031 89.496094 L 86.945312 84.601562 C 86.675781 84.214844 86.570312 83.746094 86.648438 83.289062 Z M 94.332031 97.535156 C 102.699219 97.535156 109.496094 90.726562 109.496094 82.371094 C 109.496094 74.003906 102.699219 67.203125 94.332031 67.203125 C 85.972656 67.203125 79.167969 74.003906 79.167969 82.371094 C 79.167969 90.726562 85.972656 97.535156 94.332031 97.535156 " fill-opacity="1" fill-rule="nonzero"/></svg>