<svg xmlns="http://www.w3.org/2000/svg" xmlns:xlink="http://www.w3.org/1999/xlink" width="250" zoomAndPan="magnify" viewBox="0 0 187.5 187.499992" height="250" preserveAspectRatio="xMidYMid meet" version="1.0">
  <path fill="#1a213d" d="M 93.492188 172.671875 C 74.238281 172.671875 56.570312 165.765625 42.828125 154.304688 L 61.019531 136.113281 C 62.363281 134.769531 63.117188 132.949219 63.117188 131.046875 C 63.117188 124.667969 55.402344 121.46875 50.890625 125.980469 L 32.710938 144.160156 C 21.234375 130.417969 14.328125 112.75 14.328125 93.496094 C 14.328125 49.851562 49.835938 14.328125 93.492188 14.328125 C 112.75 14.328125 130.417969 21.234375 144.160156 32.710938 L 121.824219 55.046875 C 119.988281 56.882812 119.3125 59.566406 120.042969 62.050781 C 120.058594 62.105469 120.074219 62.160156 120.089844 62.214844 C 121.597656 67.382812 128.089844 69.042969 131.894531 65.234375 L 154.289062 42.84375 C 165.765625 56.585938 172.671875 74.25 172.671875 93.496094 C 172.671875 137.152344 137.152344 172.671875 93.492188 172.671875 Z M 93.492188 0 C 41.941406 0 0 41.941406 0 93.496094 C 0 145.0625 41.941406 187 93.492188 187 C 145.046875 187 187 145.0625 187 93.496094 C 187 41.941406 145.046875 0 93.492188 0 " fill-opacity="1" fill-rule="nonzero"/>
  <path fill="#1a213d" d="M 112.023438 56.96875 L 107.582031 47.003906 C 106.425781 44.410156 108.621094 41.613281 111.8125 41.613281 C 113.316406 41.613281 114.53125 40.550781 114.53125 39.238281 L 114.53125 33.152344 C 114.53125 31.839844 113.316406 30.777344 111.8125 30.777344 L 75.1875 30.777344 C 73.6875 30.777344 72.46875 31.839844 72.46875 33.152344 L 72.46875 39.238281 C 72.46875 40.550781 73.6875 41.613281 75.1875 41.613281 C 78.378906 41.613281 80.574219 44.410156 79.417969 47.003906 L 74.976562 56.96875 C 70.371094 67.308594 68.003906 78.308594 68.003906 89.40625 L 68.003906 147.367188 C 68.003906 152.257812 72.550781 156.222656 78.15625 156.222656 L 108.847656 156.222656 C 114.449219 156.222656 118.996094 152.257812 118.996094 147.367188 L 118.996094 89.40625 C 118.996094 78.308594 116.632812 67.308594 112.023438 56.96875 " fill-opacity="1" fill-rule="nonzero"/>
  <path fill="#f2f2f0" d="M 111.691406 85.308594 L 111.691406 146.714844 C 111.691406 148.441406 110.074219 149.847656 108.101562 149.847656 L 78.902344 149.847656 C 76.925781 149.847656 75.3125 148.441406 75.3125 146.714844 L 75.3125 82.1875 C 75.3125 79.976562 77.957031 78.5 80.238281 79.464844 C 82.609375 80.46875 85.019531 81.109375 87.453125 81.382812 C 90.195312 81.695312 92.503906 81.496094 94.953125 81.300781 C 98.167969 81.03125 101.496094 80.761719 106.042969 81.640625 C 107.160156 81.855469 108.269531 82.128906 109.367188 82.453125 C 110.761719 82.863281 111.691406 84.023438 111.691406 85.308594 " fill-opacity="1" fill-rule="nonzero"/>
</svg>