<svg xmlns="http://www.w3.org/2000/svg" xmlns:xlink="http://www.w3.org/1999/xlink" width="250" zoomAndPan="magnify" viewBox="0 0 187.5 187.499992" height="250" preserveAspectRatio="xMidYMid meet" version="1.0"><path fill="#20CBC5" d="M 118.191406 85.464844 C 112.636719 79.910156 106.496094 73.765625 100.9375 68.210938 C 89.164062 56.433594 67.738281 57.804688 53.195312 72.34375 C 41.578125 83.964844 27.316406 98.226562 15.695312 109.847656 C 1.148438 124.394531 -0.214844 145.8125 11.5625 157.589844 C 17.117188 163.144531 23.257812 169.285156 28.816406 174.84375 C 40.589844 186.617188 62.007812 185.257812 76.558594 170.707031 C 84.800781 162.464844 94.378906 152.886719 103.398438 143.867188 C 105.730469 141.535156 105.730469 137.746094 103.398438 135.417969 C 101.070312 133.082031 97.28125 133.082031 94.953125 135.417969 C 85.929688 144.433594 76.355469 154.015625 68.109375 162.261719 C 58.664062 171.707031 44.910156 174.042969 37.261719 166.394531 C 37.261719 166.394531 20.007812 149.140625 20.007812 149.140625 C 12.359375 141.492188 14.695312 127.742188 24.144531 118.292969 C 35.761719 106.679688 50.023438 92.414062 61.644531 80.800781 C 71.089844 71.347656 84.84375 69.011719 92.492188 76.660156 C 92.492188 76.660156 109.746094 93.914062 109.746094 93.914062 C 112.074219 96.242188 115.863281 96.242188 118.191406 93.914062 C 120.523438 91.582031 120.523438 87.796875 118.191406 85.464844 Z M 68.210938 100.9375 C 73.765625 106.496094 79.910156 112.636719 85.464844 118.191406 C 97.242188 129.96875 118.664062 128.601562 133.207031 114.058594 C 144.828125 102.4375 159.089844 88.175781 170.707031 76.558594 C 185.257812 62.007812 186.617188 40.589844 174.84375 28.816406 C 169.285156 23.257812 163.144531 17.117188 157.589844 11.5625 C 145.8125 -0.214844 124.394531 1.148438 109.847656 15.695312 C 101.601562 23.941406 92.023438 33.515625 83.003906 42.539062 C 80.671875 44.867188 80.671875 48.65625 83.003906 50.984375 C 85.332031 53.320312 89.121094 53.320312 91.453125 50.984375 C 100.472656 41.972656 110.050781 32.386719 118.292969 24.144531 C 127.742188 14.695312 141.492188 12.359375 149.140625 20.007812 C 149.140625 20.007812 166.394531 37.261719 166.394531 37.261719 C 174.042969 44.910156 171.707031 58.664062 162.261719 68.109375 C 150.640625 79.722656 136.378906 93.992188 124.757812 105.605469 C 115.3125 115.054688 101.558594 117.394531 93.914062 109.746094 C 93.914062 109.746094 76.660156 92.492188 76.660156 92.492188 C 74.328125 90.160156 70.539062 90.160156 68.210938 92.492188 C 65.878906 94.820312 65.878906 98.609375 68.210938 100.9375 Z M 68.210938 100.9375 " fill-opacity="1" fill-rule="evenodd"/></svg>