<svg xmlns="http://www.w3.org/2000/svg" xmlns:xlink="http://www.w3.org/1999/xlink" width="250" zoomAndPan="magnify" viewBox="0 0 187.5 187.499992" height="250" preserveAspectRatio="xMidYMid meet" version="1.0"><defs><clipPath id="60573fab1d"><path d="M 28.710938 0 L 158.117188 0 L 158.117188 186 L 28.710938 186 Z M 28.710938 0 " clip-rule="nonzero"/></clipPath></defs><g clip-path="url(#60573fab1d)"><path fill="#21cbc4" d="M 93.496094 0.0664062 C 129.277344 0.0664062 158.28125 29.070312 158.28125 64.851562 C 158.28125 77.300781 154.769531 88.925781 148.679688 98.800781 C 141.378906 110.894531 134.078125 122.988281 126.777344 135.085938 C 117.886719 149.539062 110.691406 161.234375 101.800781 175.691406 C 93.960938 188.433594 93.429688 188.746094 85.550781 175.9375 C 76.703125 161.554688 69.265625 149.464844 60.417969 135.085938 C 53.132812 123.125 45.851562 111.164062 38.566406 99.207031 C 32.324219 89.246094 28.710938 77.472656 28.710938 64.851562 C 28.710938 29.070312 57.71875 0.0664062 93.496094 0.0664062 Z M 93.496094 32.546875 C 109.535156 32.546875 122.539062 45.550781 122.539062 61.589844 C 122.539062 77.628906 109.539062 90.632812 93.496094 90.632812 C 77.457031 90.632812 64.453125 77.628906 64.453125 61.589844 C 64.453125 45.550781 77.457031 32.546875 93.496094 32.546875 Z M 93.496094 32.546875 " fill-opacity="1" fill-rule="evenodd"/></g></svg>