<svg xmlns="http://www.w3.org/2000/svg" xmlns:xlink="http://www.w3.org/1999/xlink" width="250" zoomAndPan="magnify" viewBox="0 0 187.5 187.499992" height="250" preserveAspectRatio="xMidYMid meet" version="1.0"><defs><clipPath id="b4851d54b0"><path d="M 0 5.421875 L 178 5.421875 L 178 183 L 0 183 Z M 0 5.421875 " clip-rule="nonzero"/></clipPath></defs><g clip-path="url(#b4851d54b0)"><path fill="#20CBC5" d="M 88.683594 182.933594 C 39.785156 182.933594 -0.00390625 143.148438 -0.00390625 94.230469 C -0.00390625 45.308594 39.785156 5.503906 88.683594 5.503906 C 104.707031 5.503906 120.378906 9.785156 134.003906 17.914062 C 136.875 19.625 137.816406 23.335938 136.105469 26.183594 C 134.378906 29.070312 130.648438 29.933594 127.84375 28.285156 C 116.078125 21.273438 102.546875 17.5625 88.683594 17.5625 C 46.441406 17.5625 12.054688 51.949219 12.054688 94.230469 C 12.054688 136.46875 46.441406 170.835938 88.683594 170.835938 C 130.941406 170.835938 165.308594 136.46875 165.308594 94.230469 C 165.308594 90.890625 168.019531 88.199219 171.355469 88.199219 C 174.695312 88.199219 177.40625 90.890625 177.40625 94.230469 C 177.40625 143.148438 137.597656 182.933594 88.683594 182.933594 Z M 88.683594 182.933594 " fill-opacity="1" fill-rule="nonzero"/></g><path fill="#20CBC5" d="M 81.515625 143.734375 C 81.242188 143.734375 80.964844 143.734375 80.691406 143.695312 C 76.371094 143.460938 72.421875 141.222656 69.96875 137.648438 L 40.414062 94.621094 C 36.03125 88.238281 37.664062 79.519531 44.027344 75.140625 C 50.46875 70.742188 59.109375 72.390625 63.507812 78.753906 L 82.851562 106.953125 L 160.832031 17.933594 C 165.9375 12.101562 174.777344 11.550781 180.589844 16.636719 C 186.402344 21.726562 186.992188 30.582031 181.886719 36.394531 L 92.042969 138.945312 C 89.390625 142.007812 85.539062 143.734375 81.515625 143.734375 Z M 81.515625 143.734375 " fill-opacity="1" fill-rule="nonzero"/></svg>