<svg
  xmlns="http://www.w3.org/2000/svg"
  xmlns:xlink="http://www.w3.org/1999/xlink"
  width="250"
  height="250"
  zoomAndPan="magnify"
  viewBox="0 0 187.5 187.499992"
  preserveAspectRatio="xMidYMid meet"
  version="1.0"
>
  <path d="M 93.492188 172.671875 C 74.238281 172.671875 56.570312 165.765625 42.828125 154.304688 L 61.019531 136.113281 C 62.363281 134.769531 63.117188 132.949219 63.117188 131.046875 C 63.117188 124.667969 55.402344 121.46875 50.890625 125.980469 L 32.710938 144.160156 C 21.234375 130.417969 14.328125 112.75 14.328125 93.496094 C 14.328125 49.851562 49.835938 14.328125 93.492188 14.328125 C 112.75 14.328125 130.417969 21.234375 144.160156 32.710938 L 121.824219 55.046875 C 119.988281 56.882812 119.3125 59.566406 120.042969 62.050781 C 120.058594 62.105469 120.074219 62.160156 120.089844 62.214844 C 121.597656 67.382812 128.089844 69.042969 131.894531 65.234375 L 154.289062 42.84375 C 165.765625 56.585938 172.671875 74.25 172.671875 93.496094 C 172.671875 137.152344 137.152344 172.671875 93.492188 172.671875 Z M 93.492188 0 C 41.941406 0 0 41.941406 0 93.496094 C 0 145.0625 41.941406 187 93.492188 187 C 145.046875 187 187 145.0625 187 93.496094 C 187 41.941406 145.046875 0 93.492188 0 " fill-opacity="1" fill-rule="nonzero"/>
  <path d="M 92.226562 72.351562 C 92.492188 72.605469 92.839844 72.730469 93.183594 72.730469 C 93.507812 72.730469 93.828125 72.621094 94.089844 72.394531 C 94.429688 72.101562 102.410156 65.105469 102.617188 56.015625 C 102.816406 46.929688 95.160156 39.582031 94.835938 39.273438 C 94.3125 38.785156 93.511719 38.765625 92.96875 39.230469 C 92.628906 39.527344 84.648438 46.519531 84.445312 55.609375 C 84.246094 64.695312 91.902344 72.042969 92.226562 72.351562 Z M 92.226562 72.351562 " fill-opacity="1" fill-rule="nonzero"/>
  <path d="M 64.738281 113.957031 C 64.386719 113.933594 64.035156 114.058594 63.773438 114.292969 C 63.511719 114.535156 63.355469 114.867188 63.34375 115.222656 C 63.328125 115.765625 63.226562 128.449219 70.640625 136.492188 C 79.769531 146.402344 88.714844 144.867188 90.664062 144.539062 C 91.269531 144.4375 92.027344 143.953125 92.054688 143.339844 C 92.070312 143.089844 93.039062 115.761719 64.738281 113.957031 Z M 64.738281 113.957031 " fill-opacity="1" fill-rule="nonzero"/>
  <path d="M 122.328125 113.957031 C 122.675781 113.933594 123.03125 114.058594 123.292969 114.292969 C 123.554688 114.535156 123.710938 114.867188 123.722656 115.222656 C 123.738281 115.765625 123.839844 128.449219 116.425781 136.492188 C 107.296875 146.402344 98.351562 144.867188 96.398438 144.539062 C 95.792969 144.4375 95.042969 143.953125 95.007812 143.339844 C 94.996094 143.089844 94.027344 115.761719 122.328125 113.957031 Z M 122.328125 113.957031 " fill-opacity="1" fill-rule="nonzero"/>
  <path d="M 68.722656 89.855469 C 68.371094 89.824219 68.019531 89.933594 67.75 90.164062 C 67.480469 90.394531 67.316406 90.726562 67.292969 91.078125 C 67.265625 91.5625 66.867188 102.839844 73.300781 110.132812 C 78.921875 116.507812 86.777344 118.085938 86.777344 118.085938 C 88.085938 118.085938 89.257812 118.179688 90.683594 117.984375 C 91.292969 117.898438 92.074219 117.339844 92.125 116.730469 C 92.140625 116.511719 93.511719 92.210938 68.722656 89.855469 Z M 68.722656 89.855469 " fill-opacity="1" fill-rule="nonzero"/>
  <path d="M 118.339844 89.855469 C 118.691406 89.824219 119.046875 89.933594 119.316406 90.164062 C 119.585938 90.394531 119.746094 90.726562 119.769531 91.078125 C 119.800781 91.5625 120.199219 102.839844 113.765625 110.132812 C 108.140625 116.507812 100.285156 118.085938 100.285156 118.085938 C 98.976562 118.085938 97.808594 118.179688 96.382812 117.984375 C 95.773438 117.898438 94.988281 117.339844 94.941406 116.730469 C 94.921875 116.511719 93.554688 92.210938 118.339844 89.855469 Z M 118.339844 89.855469 " fill-opacity="1" fill-rule="nonzero"/>
  <path d="M 89.777344 93.21875 C 89.78125 93.21875 89.78125 93.21875 89.78125 93.21875 C 90.042969 93.21875 90.304688 93.214844 90.574219 93.207031 C 91.1875 93.195312 91.707031 92.753906 91.828125 92.152344 C 91.867188 91.949219 95.496094 69.34375 72.59375 64.546875 C 72.246094 64.476562 71.886719 64.546875 71.59375 64.75 C 71.300781 64.945312 71.097656 65.257812 71.039062 65.605469 C 70.953125 66.082031 69.054688 77.40625 75.199219 84.71875 C 78.476562 88.617188 83.378906 93.21875 89.777344 93.21875 Z M 89.777344 93.21875 " fill-opacity="1" fill-rule="nonzero"/>
  <path d="M 97.289062 93.21875 C 97.285156 93.21875 97.285156 93.21875 97.285156 93.21875 C 97.023438 93.21875 96.761719 93.214844 96.492188 93.207031 C 95.878906 93.195312 95.355469 92.753906 95.238281 92.152344 C 95.199219 91.949219 91.570312 69.34375 114.472656 64.546875 C 114.816406 64.476562 115.179688 64.546875 115.472656 64.75 C 115.765625 64.945312 115.964844 65.257812 116.027344 65.605469 C 116.113281 66.082031 118.007812 77.40625 111.867188 84.71875 C 108.589844 88.617188 103.683594 93.21875 97.289062 93.21875 Z M 97.289062 93.21875 " fill-opacity="1" fill-rule="nonzero"/>
</svg>