<svg xmlns="http://www.w3.org/2000/svg" xmlns:xlink="http://www.w3.org/1999/xlink" width="250" zoomAndPan="magnify" viewBox="0 0 187.5 187.499992" height="250" preserveAspectRatio="xMidYMid meet" version="1.0"><defs><clipPath id="788ca9799c"><path d="M 0 3 L 187 3 L 187 181.015625 L 0 181.015625 Z M 0 3 " clip-rule="nonzero"/></clipPath></defs><g clip-path="url(#788ca9799c)"><path fill="#21cbc4" d="M 93.742188 3.605469 L 122.554688 62.011719 L 187 71.378906 L 140.355469 116.867188 L 151.398438 181.054688 L 93.742188 150.753906 L 36.050781 181.054688 L 47.058594 116.867188 L 0.449219 71.378906 L 64.894531 62.011719 Z M 93.742188 3.605469 " fill-opacity="1" fill-rule="nonzero"/></g><path fill="#21cbc4" d="M 93.296875 3.046875 L 122.140625 61.449219 L 186.589844 70.816406 L 139.941406 116.308594 L 150.953125 180.496094 L 93.296875 150.191406 L 35.640625 180.496094 L 46.648438 116.308594 L 0 70.816406 L 64.449219 61.449219 Z M 93.296875 3.046875 " fill-opacity="1" fill-rule="nonzero"/><path fill="#21cbc4" d="M 93.296875 3.046875 L 122.140625 61.449219 L 186.589844 70.816406 L 139.941406 116.308594 L 150.953125 180.496094 L 93.296875 150.191406 L 35.640625 180.496094 L 46.648438 116.308594 L 0 70.816406 L 64.449219 61.449219 Z M 93.296875 3.046875 " fill-opacity="1" fill-rule="nonzero"/><path fill="#21cbc4" d="M 93.296875 3.046875 L 122.140625 61.449219 L 186.589844 70.816406 L 139.941406 116.308594 L 150.953125 180.496094 L 93.296875 150.191406 L 35.640625 180.496094 L 46.648438 116.308594 L 0 70.816406 L 64.449219 61.449219 Z M 93.296875 3.046875 " fill-opacity="1" fill-rule="nonzero"/></svg>