<svg xmlns="http://www.w3.org/2000/svg" xmlns:xlink="http://www.w3.org/1999/xlink" width="250" zoomAndPan="magnify" viewBox="0 0 187.5 187.499992" height="250" preserveAspectRatio="xMidYMid meet" version="1.0"><path fill="#1a213d" d="M 172.480469 2.347656 C 168.230469 3.445312 159.25 5.429688 152.554688 6.734375 C 135.5 10.023438 132.792969 11.015625 125.195312 16.546875 C 114.410156 24.433594 106.863281 39.675781 106.917969 53.511719 C 106.972656 58.785156 107.769531 62.546875 108.671875 61.554688 C 108.882812 61.292969 109.628906 59.777344 110.265625 58.210938 C 113.507812 50.535156 122.910156 38.84375 130.933594 32.523438 C 135.023438 29.289062 143.257812 26.101562 143.257812 27.773438 C 143.257812 28.347656 140.441406 31.792969 137.09375 35.238281 C 133.960938 38.527344 132.898438 39.886719 127 48.292969 C 120.890625 57.113281 112.921875 72.882812 107.554688 86.925781 C 102.347656 100.550781 98.523438 111.410156 95.972656 119.554688 C 91.667969 133.496094 87.792969 144.511719 87.101562 144.71875 C 86.25 145.035156 83.914062 137.566406 79.027344 119.035156 C 71.429688 90.003906 68.1875 80.03125 60.429688 61.863281 C 55.117188 49.492188 48.105469 39.570312 33.867188 24.378906 C 26.054688 15.972656 14.953125 7.933594 8.257812 5.742188 C 3.902344 4.277344 3.527344 5.007812 6.824219 8.613281 C 22.335938 25.789062 31.316406 38.527344 40.828125 56.644531 C 48.847656 72.046875 54.375 87.34375 64.414062 122.425781 C 66.964844 131.40625 72.597656 154.273438 74.402344 163.152344 C 76.421875 173.019531 78.65625 182.675781 79.238281 184.191406 C 79.453125 184.660156 80.25 185.289062 81.046875 185.496094 C 82.851562 185.964844 91.566406 185.964844 93.425781 185.496094 C 96.1875 184.714844 96.71875 182.574219 100.542969 157.929688 C 103.09375 141.273438 105.273438 131.304688 109.628906 116.425781 C 117.011719 91.050781 124.875 72.464844 129.660156 69.4375 C 130.351562 69.019531 133.75 68.183594 137.308594 67.609375 C 151.121094 65.363281 162.226562 59.359375 170.089844 49.804688 C 175.351562 43.433594 176.730469 38.738281 178.058594 23.074219 C 178.75 14.773438 179.175781 12.421875 180.769531 7.464844 C 181.777344 4.226562 182.46875 1.304688 182.363281 0.9375 C 181.988281 0 181.140625 0.101562 172.480469 2.347656 Z M 172.480469 2.347656 " fill-opacity="1" fill-rule="nonzero"/></svg>