<svg xmlns="http://www.w3.org/2000/svg" viewBox="0 0 53.24 97.64"><defs><style>.cls-1{fill:#1a213d;}</style></defs><g id="Layer_2" data-name="Layer 2"><g id="Layer_1-2" data-name="Layer 1"><path class="cls-1" d="M41.8,23.17V.78c0-.15,0-.29,0-.43s0-.35.3-.35h1.61c.21,0,.3.09.29.3s0,.29,0,.43v43c0,.75,0,.75-.75.75H42.06c-.18,0-.26-.07-.26-.25s0-.58,0-.87A16.11,16.11,0,0,0,9.9,40a16.52,16.52,0,0,0-.34,3.44c0,4.45,0,8.89,0,13.33a16.13,16.13,0,0,0,32,2.79,15.59,15.59,0,0,0,.24-2.89V55.43h1.9c.25,0,.29.12.3.34a18.45,18.45,0,0,1-.92,6.6C40.63,69.26,35.8,73.53,28.6,74.75A18.18,18.18,0,0,1,7.77,60.42a18,18,0,0,1-.37-3.51c0-4.62,0-9.25,0-13.88a18.29,18.29,0,0,1,34-9.14l.26.42c.17-.07.11-.22.11-.32,0-2.46,0-4.92,0-7.38a1,1,0,0,0-.39-.78A23.47,23.47,0,0,0,4.13,34a23.23,23.23,0,0,0-1.88,8.73c-.1,4.83-.11,9.67,0,14.5a23.44,23.44,0,1,0,46.87-1c0-.17,0-.33,0-.5s.08-.26.25-.26H51.3a26.82,26.82,0,0,1-1,8.45A25.65,25.65,0,0,1,.71,62.63,27.08,27.08,0,0,1,0,56.55V43.22A25.62,25.62,0,0,1,19.05,18.35a25.34,25.34,0,0,1,14.83.48l.55.19a1.85,1.85,0,0,0,0-.69V.47c0-.46,0-.46.48-.47h1.43c.2,0,.3.08.29.29s0,.29,0,.44q0,9.3,0,18.59a.88.88,0,0,0,.58.94,22.55,22.55,0,0,1,4,2.52Z"/><path class="cls-1" d="M36.64,55.43a11.08,11.08,0,0,1-8,11.86,11,11,0,0,1-13.8-8.92,11.18,11.18,0,0,1-.12-1.73c0-4.46,0-8.93,0-13.39A11,11,0,0,1,36.45,41,14.49,14.49,0,0,1,36.68,44c0,.28,0,.42-.37.41-.49,0-1,0-1.48,0-.28,0-.35-.1-.35-.36a14.72,14.72,0,0,0-.12-2.48,8.81,8.81,0,0,0-17.33,0,8.59,8.59,0,0,0-.16,1.6c0,4.51,0,9,0,13.51a8.81,8.81,0,0,0,17.47,1.62,14.67,14.67,0,0,0,.13-2.47c0-.3.08-.4.38-.4C35.46,55.44,36.05,55.43,36.64,55.43Z"/><path class="cls-1" d="M49.18,0h1.89c.19,0,.25.11.24.28V43.71c0,.83.13.72-.71.73-.38,0-.75,0-1.12,0s-.39-.06-.36-.35,0-.28,0-.43V.73A1.9,1.9,0,0,1,49.18,0Z"/><path class="cls-1" d="M6.29,90.45c0-.92,0-1.72,0-2.52,0-.45,0-.46.48-.46s.88-.16,1.14.07.1.78.1,1.18C8,90.35,8,92,8,93.61a4,4,0,0,1-4.08,4A3.91,3.91,0,1,1,4,89.8,4.62,4.62,0,0,1,6.29,90.45ZM1.73,93.72A2.28,2.28,0,1,0,4,91.43,2.29,2.29,0,0,0,1.73,93.72Z"/><path class="cls-1" d="M24.4,90.45V87.93c0-.45,0-.46.49-.46s.88-.16,1.14.07.09.78.1,1.18q0,2.44,0,4.89a4,4,0,1,1-4.06-3.81A4.62,4.62,0,0,1,24.4,90.45Zm-4.56,3.24a2.28,2.28,0,1,0,2.31-2.26A2.28,2.28,0,0,0,19.84,93.69Z"/><path class="cls-1" d="M49.67,97.64c-.14-.21,0-.41-.13-.6s-.35.13-.52.21a4.06,4.06,0,0,1-5.42-2A3.92,3.92,0,0,1,47,89.81a4,4,0,0,1,4.11,2.81,4.23,4.23,0,0,1,.17,1.22c0,1.14,0,2.28,0,3.41,0,.29-.08.41-.38.39S50.07,97.64,49.67,97.64Zm-4.65-4a2.28,2.28,0,1,0,2.31-2.26A2.28,2.28,0,0,0,45,93.69Z"/><path class="cls-1" d="M37.51,93.37c.74-.88,1.48-1.66,2.1-2.53a1.86,1.86,0,0,1,2-.9,4.57,4.57,0,0,0,.74,0c.08.23-.11.31-.2.42-.78.88-1.55,1.77-2.34,2.64-.22.24-.2.38,0,.61,1.11,1.3,2.21,2.62,3.39,4-.69,0-1.32,0-1.94,0-.2,0-.3-.21-.41-.35L39,95a2,2,0,0,0-.49-.51c-.29.34-.58.69-.88,1a.66.66,0,0,0-.14.52c0,.41,0,.82,0,1.24,0,.22,0,.34-.31.33s-.74,0-1.11,0c-.21,0-.31-.08-.29-.29s0-.25,0-.37V87.75c0-.17.05-.28.24-.28h1.24c.15,0,.23.07.22.23s0,.28,0,.43c0,1.51,0,3,0,4.52A1.76,1.76,0,0,0,37.51,93.37Z"/><path class="cls-1" d="M29,94.3A2.11,2.11,0,0,0,30.49,96a3.47,3.47,0,0,0,2.41-.25,1.66,1.66,0,0,1,.54-.23c.17.31.34.64.53,1s0,.3-.13.4a4.72,4.72,0,0,1-5.14,0,3.92,3.92,0,0,1-1.12-4.89,3.71,3.71,0,0,1,7.06,2c0,.3-.13.37-.42.37H29Zm0-1.25h3.83A.64.64,0,0,0,33,93a1.92,1.92,0,0,0-1.88-1.71A2,2,0,0,0,29,93.05Z"/><path class="cls-1" d="M13.06,97.62a3.91,3.91,0,1,1,4-3.89A4,4,0,0,1,13.06,97.62Zm-2.27-3.93a2.28,2.28,0,1,0,2.31-2.26A2.27,2.27,0,0,0,10.79,93.69Z"/><path class="cls-1" d="M39.71,53a.7.7,0,0,1,.12-.49c.73-1.71,1.48-3.4,2.21-5.11a.61.61,0,0,1,.68-.45c.83,0,.83,0,1.16.76l2,4.71a1,1,0,0,1,.17.52c-.17.11-.36,0-.53.06-.52.09-.89-.05-1-.62C44.49,52,44.28,52,44,52c-.74,0-1.49,0-2.23,0-.29,0-.48.06-.55.36,0,.1-.09.18-.12.28a.4.4,0,0,1-.45.33C40.34,52.94,40,53,39.71,53Zm3.19-4.57-1,2.55h2.07Z"/><path class="cls-1" d="M33.53,51.21a3.66,3.66,0,0,0,2,.66,1.5,1.5,0,0,0,.83-.22c.47-.3.45-.75-.06-1a4.48,4.48,0,0,0-.88-.27A5.26,5.26,0,0,1,34.12,50a1.53,1.53,0,0,1-.86-1.41,1.49,1.49,0,0,1,.87-1.39,3.59,3.59,0,0,1,3.38.17c.19.09.21.22.11.4s-.22.45-.32.66-.36-.09-.53-.15a2.81,2.81,0,0,0-1.69-.18c-.25.06-.48.18-.48.49A.5.5,0,0,0,35,49l.9.25a4.11,4.11,0,0,1,1.41.61,1.6,1.6,0,0,1-.1,2.7,3.85,3.85,0,0,1-3.93-.18c-.15-.12-.24-.22-.13-.41S33.39,51.51,33.53,51.21Z"/><path class="cls-1" d="M53.24,46.91a2.87,2.87,0,0,1-.09.35c-.68,1.77-1.38,3.53-2,5.3a.54.54,0,0,1-.59.4c-.93,0-.93,0-1.26-.84C48.64,50.56,48,49,47.44,47.45l-.21-.54c.42,0,.78,0,1.14,0s.28.2.35.36c.44,1.17.94,2.33,1.33,3.52,0,.15,0,.34.23.46.31-.82.61-1.64.92-2.45.21-.54.43-1.08.63-1.62a.37.37,0,0,1,.41-.28C52.56,46.92,52.89,46.91,53.24,46.91Z"/></g></g></svg>