<svg xmlns="http://www.w3.org/2000/svg" viewBox="0 0 439.1 170.25"><defs><style>.cls-1{fill:#fff;}</style></defs><g id="Layer_2" data-name="Layer 2"><g id="Layer_1-2" data-name="Layer 1"><path class="cls-1" d="M109.82,42.19a10.73,10.73,0,0,1,5.44-1.09,16.85,16.85,0,0,1,7.07,1.51,17.06,17.06,0,0,1,6,4.66l9.56-9.68A23.67,23.67,0,0,0,128.13,30,33.41,33.41,0,0,0,115,27.56a29.52,29.52,0,0,0-12,2.24,17.83,17.83,0,0,0-7.86,6.4,17.18,17.18,0,0,0-2.78,9.74,15.85,15.85,0,0,0,2.18,8.7,15.53,15.53,0,0,0,5.5,5.26,33.21,33.21,0,0,0,7.07,3l7.07,2a25.13,25.13,0,0,1,5.5,2.24,4.05,4.05,0,0,1,2.18,3.69,3.53,3.53,0,0,1-2.06,3.2,12.27,12.27,0,0,1-5.92,1.15,22,22,0,0,1-8.7-1.69,17.93,17.93,0,0,1-6.89-5.2l-9.55,9.55a29.26,29.26,0,0,0,6.89,5.86,32.06,32.06,0,0,0,8.76,3.75,38,38,0,0,0,9.85,1.27q10.51,0,16.68-5t6.17-13.6a16.2,16.2,0,0,0-2.12-8.7A16.64,16.64,0,0,0,129.58,56a30.17,30.17,0,0,0-7-3.2c-2.46-.77-4.81-1.47-7.07-2.12a26,26,0,0,1-5.44-2.11,3.63,3.63,0,0,1-2-3.33A3.35,3.35,0,0,1,109.82,42.19Z"/><path class="cls-1" d="M155.75,19.58a8.51,8.51,0,0,0,6.47-2.6,9,9,0,0,0,2.48-6.46,9.07,9.07,0,0,0-2.48-6.41,9.11,9.11,0,0,0-12.87,0,8.92,8.92,0,0,0-2.54,6.41A8.84,8.84,0,0,0,149.35,17,8.53,8.53,0,0,0,155.75,19.58Z"/><rect class="cls-1" x="147.65" y="29.01" width="16.08" height="58.39"/><path class="cls-1" d="M258.5,30.52a26.37,26.37,0,0,0-23.57.12,23.39,23.39,0,0,0-7.19,5.94,20.42,20.42,0,0,0-6.83-6.06,22.53,22.53,0,0,0-11-2.72,24,24,0,0,0-11.49,2.72,20.75,20.75,0,0,0-4.83,3.58V29H177.75V87.4h15.84V53.07a10.92,10.92,0,0,1,1.51-5.92,10,10,0,0,1,4-3.69,12.08,12.08,0,0,1,5.62-1.27A11.32,11.32,0,0,1,212.57,45,10.14,10.14,0,0,1,215.71,53V87.4h16V53.07a10.92,10.92,0,0,1,1.51-5.92,9.9,9.9,0,0,1,4-3.69,12.35,12.35,0,0,1,5.74-1.27A11.15,11.15,0,0,1,250.65,45,10.14,10.14,0,0,1,253.79,53V87.4h16.08V50.53a23,23,0,0,0-3.09-12.21A20.78,20.78,0,0,0,258.5,30.52Z"/><path class="cls-1" d="M303.59,86.07A25.1,25.1,0,0,0,315,88.61a26.87,26.87,0,0,0,14.5-4,28.32,28.32,0,0,0,10.1-10.88,32.34,32.34,0,0,0,3.68-15.47,33.08,33.08,0,0,0-3.62-15.6,27.73,27.73,0,0,0-10.1-10.88,27.18,27.18,0,0,0-14.56-4,24.17,24.17,0,0,0-11.37,2.66,23.42,23.42,0,0,0-5.2,3.71V29H282.56V90.38l-.1,78.54h15.83V90.38h0v-8A21.85,21.85,0,0,0,303.59,86.07Zm-6-27.92a16.87,16.87,0,0,1,1.87-8.1,14.35,14.35,0,0,1,5.2-5.56,15.21,15.21,0,0,1,15.29,0,14.5,14.5,0,0,1,5.14,5.56,16.87,16.87,0,0,1,1.87,8.1,17.29,17.29,0,0,1-1.87,8.16,14.46,14.46,0,0,1-5.14,5.62,14,14,0,0,1-7.61,2,14.94,14.94,0,0,1-7.8-2,13.24,13.24,0,0,1-5.2-5.62A18.26,18.26,0,0,1,297.55,58.15Z"/><rect class="cls-1" x="353.52" width="15.84" height="87.4"/><polygon class="cls-1" points="421.69 29.01 407.86 66.05 394.62 29.01 377.21 29.01 399.45 82.38 385.43 111.94 402.35 111.94 412.99 87.88 439.1 29.01 421.69 29.01"/><path class="cls-1" d="M122.05,112a25,25,0,0,0-11.73-2.72,24.64,24.64,0,0,0-11.84,2.85,23.11,23.11,0,0,0-7.19,5.94A20.37,20.37,0,0,0,84.45,112a22.5,22.5,0,0,0-11-2.72A23.94,23.94,0,0,0,62,112a20.81,20.81,0,0,0-4.84,3.58v-5.09H41.3v58.39H57.13V134.59a10.92,10.92,0,0,1,1.52-5.92,10,10,0,0,1,4-3.69,12.15,12.15,0,0,1,5.63-1.27,11.27,11.27,0,0,1,7.85,2.84,10.12,10.12,0,0,1,3.15,7.92v34.45H95.21V134.59a11,11,0,0,1,1.51-5.92,10.11,10.11,0,0,1,4-3.69,12.4,12.4,0,0,1,5.75-1.27,11.11,11.11,0,0,1,7.73,2.84,10.12,10.12,0,0,1,3.14,7.92v34.45h16.08V132.05a23.07,23.07,0,0,0-3.08-12.21A20.91,20.91,0,0,0,122.05,112Z"/><path class="cls-1" d="M187.81,113a29.07,29.07,0,0,0-14.75-3.74,31.18,31.18,0,0,0-15.71,4,29.47,29.47,0,0,0-11.06,10.88,32.07,32.07,0,0,0,.06,31.31,29.55,29.55,0,0,0,11.3,10.88,33.17,33.17,0,0,0,16.38,4,33.71,33.71,0,0,0,13.17-2.54,28.68,28.68,0,0,0,10.52-7.61l-9.43-9.43a16,16,0,0,1-6.28,4.59,21.6,21.6,0,0,1-8.1,1.45,17.83,17.83,0,0,1-8.71-2.05,13.79,13.79,0,0,1-5.74-6,17.07,17.07,0,0,1-1.26-3.34l42.67-.1a21.45,21.45,0,0,0,.6-3.57c.08-1.09.12-2.15.12-3.2A31,31,0,0,0,198,123.35,26.24,26.24,0,0,0,187.81,113ZM158.2,133.48a16.92,16.92,0,0,1,1.14-3.06,13.53,13.53,0,0,1,5.38-5.86,16,16,0,0,1,8.22-2.06,14.37,14.37,0,0,1,7.5,1.82,12.18,12.18,0,0,1,4.71,5.31,17.2,17.2,0,0,1,1.26,3.77Z"/><path class="cls-1" d="M252.72,116.05a21.41,21.41,0,0,0-5.68-4.19,24.05,24.05,0,0,0-11.12-2.54,26.6,26.6,0,0,0-14.45,4,28,28,0,0,0-10,10.88,35.06,35.06,0,0,0,0,31.07,27.94,27.94,0,0,0,10,10.88,26.39,26.39,0,0,0,14.33,4,24.69,24.69,0,0,0,11.3-2.54,20.67,20.67,0,0,0,5.62-4.12v5.45h16V110.53h-16Zm-3.14,35a13.94,13.94,0,0,1-10.76,4.47,14.35,14.35,0,0,1-7.61-2.05,14.14,14.14,0,0,1-5.26-5.56,17.2,17.2,0,0,1-1.88-8.22,16.93,16.93,0,0,1,1.88-8.1A14.13,14.13,0,0,1,238.82,124a14.57,14.57,0,0,1,7.74,2,14.35,14.35,0,0,1,5.2,5.62,17.31,17.31,0,0,1,1.93,8.22A16,16,0,0,1,249.58,151Z"/><path class="cls-1" d="M328,123.71a10.84,10.84,0,0,1,5.44-1.09,17,17,0,0,1,7.07,1.51,17.18,17.18,0,0,1,6,4.66l9.55-9.67a23.58,23.58,0,0,0-9.73-7.56,33.42,33.42,0,0,0-13.12-2.48,29.56,29.56,0,0,0-12,2.24,17.85,17.85,0,0,0-7.86,6.41,17.15,17.15,0,0,0-2.78,9.73,15.8,15.8,0,0,0,2.18,8.7,15.53,15.53,0,0,0,5.5,5.26,32.91,32.91,0,0,0,7.07,3l7.07,2.06a24.66,24.66,0,0,1,5.5,2.23,4.05,4.05,0,0,1,2.18,3.69,3.54,3.54,0,0,1-2.05,3.2,12.34,12.34,0,0,1-5.93,1.15,22,22,0,0,1-8.7-1.69,17.93,17.93,0,0,1-6.89-5.2L307,159.37a29.53,29.53,0,0,0,6.89,5.87,32,32,0,0,0,8.76,3.74,38,38,0,0,0,9.85,1.27q10.53,0,16.69-5t6.16-13.61a16.29,16.29,0,0,0-2.11-8.7,16.93,16.93,0,0,0-5.44-5.44,30.43,30.43,0,0,0-7-3.2c-2.45-.77-4.81-1.47-7.07-2.12a26.2,26.2,0,0,1-5.44-2.11,3.63,3.63,0,0,1-2-3.33A3.37,3.37,0,0,1,328,123.71Z"/><circle class="cls-1" cx="14.75" cy="32.64" r="14.75"/><path class="cls-1" d="M14.75,47.4h0Z"/><path class="cls-1" d="M29.51,32.64s0,.06,0,.08,0,0,0-.08Z"/><path class="cls-1" d="M38.38,18.28A37.21,37.21,0,0,0,31.1,19a21.16,21.16,0,0,1,5,13.64A21.28,21.28,0,0,1,1.51,49.31a37.43,37.43,0,1,0,36.87-31Z"/></g></g></svg>