<svg xmlns="http://www.w3.org/2000/svg" xmlns:xlink="http://www.w3.org/1999/xlink" width="250" zoomAndPan="magnify" viewBox="0 0 187.5 187.499992" height="250" preserveAspectRatio="xMidYMid meet" version="1.0"><path fill="#00bfff" d="M 152.226562 0.773438 L 16.226562 0.773438 C 15.503906 0.765625 14.785156 0.8125 14.070312 0.914062 C 13.355469 1.015625 12.652344 1.167969 11.957031 1.375 C 11.265625 1.582031 10.59375 1.839844 9.9375 2.144531 C 9.285156 2.453125 8.65625 2.808594 8.054688 3.210938 C 7.457031 3.609375 6.886719 4.054688 6.355469 4.542969 C 5.820312 5.027344 5.324219 5.554688 4.871094 6.113281 C 4.414062 6.675781 4.003906 7.265625 3.636719 7.890625 C 3.269531 8.511719 2.949219 9.160156 2.679688 9.828125 C 2.398438 10.496094 2.164062 11.175781 1.984375 11.875 C 1.804688 12.578125 1.675781 13.285156 1.601562 14.003906 C 1.527344 14.726562 1.507812 15.445312 1.539062 16.167969 C 1.574219 16.890625 1.664062 17.605469 1.804688 18.316406 C 1.945312 19.023438 2.136719 19.71875 2.382812 20.398438 C 2.628906 21.078125 2.921875 21.738281 3.269531 22.371094 C 3.613281 23.007812 4.003906 23.613281 4.4375 24.191406 C 4.871094 24.769531 5.347656 25.3125 5.863281 25.816406 L 161.957031 181.910156 C 163.3125 183.285156 164.882812 184.351562 166.664062 185.097656 C 168.445312 185.847656 170.300781 186.222656 172.234375 186.230469 C 174.214844 186.226562 176.117188 185.839844 177.945312 185.078125 C 178.613281 184.808594 179.261719 184.492188 179.882812 184.125 C 180.503906 183.757812 181.097656 183.347656 181.65625 182.890625 C 182.21875 182.4375 182.742188 181.945312 183.230469 181.410156 C 183.714844 180.875 184.160156 180.308594 184.5625 179.710938 C 184.964844 179.109375 185.316406 178.484375 185.625 177.828125 C 185.933594 177.175781 186.191406 176.503906 186.398438 175.8125 C 186.605469 175.121094 186.757812 174.417969 186.859375 173.703125 C 186.960938 172.988281 187.007812 172.269531 187 171.546875 L 187 35.546875 C 187 34.40625 186.945312 33.269531 186.832031 32.136719 C 186.722656 31.003906 186.554688 29.878906 186.332031 28.761719 C 186.109375 27.644531 185.835938 26.542969 185.503906 25.453125 C 185.171875 24.363281 184.789062 23.289062 184.355469 22.238281 C 183.917969 21.1875 183.433594 20.160156 182.894531 19.152344 C 182.359375 18.148438 181.773438 17.171875 181.140625 16.226562 C 180.507812 15.28125 179.832031 14.367188 179.109375 13.484375 C 178.386719 12.605469 177.621094 11.761719 176.816406 10.957031 C 176.011719 10.152344 175.167969 9.386719 174.289062 8.664062 C 173.40625 7.941406 172.492188 7.265625 171.546875 6.632812 C 170.601562 6 169.625 5.414062 168.621094 4.878906 C 167.617188 4.34375 166.585938 3.855469 165.535156 3.417969 C 164.484375 2.984375 163.414062 2.601562 162.324219 2.269531 C 161.234375 1.941406 160.128906 1.664062 159.011719 1.441406 C 157.894531 1.21875 156.769531 1.050781 155.636719 0.941406 C 154.503906 0.828125 153.367188 0.773438 152.226562 0.773438 Z M 152.226562 0.773438 " fill-opacity="1" fill-rule="nonzero"/><path fill="#fafafa" d="M 82.683594 62.589844 C 82.394531 62.589844 82.113281 62.558594 81.832031 62.496094 C 81.554688 62.433594 81.285156 62.339844 81.027344 62.21875 C 80.765625 62.097656 80.523438 61.945312 80.300781 61.769531 C 80.074219 61.59375 79.871094 61.394531 79.6875 61.171875 C 79.507812 60.949219 79.351562 60.710938 79.226562 60.453125 C 79.097656 60.199219 79 59.929688 78.929688 59.652344 C 78.863281 59.375 78.824219 59.09375 78.820312 58.804688 C 78.8125 58.519531 78.839844 58.234375 78.894531 57.953125 L 84.121094 31.828125 L 69.964844 46.007812 C 69.597656 46.359375 69.179688 46.628906 68.710938 46.816406 C 68.242188 47.003906 67.753906 47.097656 67.246094 47.09375 C 66.738281 47.089844 66.253906 46.988281 65.785156 46.792969 C 65.316406 46.597656 64.90625 46.320312 64.546875 45.960938 C 64.1875 45.601562 63.910156 45.191406 63.714844 44.722656 C 63.519531 44.257812 63.421875 43.769531 63.414062 43.261719 C 63.410156 42.757812 63.503906 42.269531 63.691406 41.796875 C 63.878906 41.328125 64.148438 40.910156 64.5 40.546875 L 87.683594 17.363281 C 87.976562 17.070312 88.304688 16.832031 88.675781 16.644531 C 89.046875 16.457031 89.4375 16.335938 89.847656 16.273438 C 90.257812 16.210938 90.667969 16.21875 91.074219 16.289062 C 91.484375 16.359375 91.871094 16.492188 92.234375 16.6875 C 92.601562 16.882812 92.925781 17.128906 93.210938 17.429688 C 93.5 17.730469 93.730469 18.066406 93.90625 18.441406 C 94.085938 18.816406 94.199219 19.210938 94.25 19.621094 C 94.300781 20.03125 94.285156 20.441406 94.203125 20.847656 L 88.980469 46.972656 L 103.144531 32.816406 C 103.324219 32.632812 103.515625 32.46875 103.726562 32.324219 C 103.9375 32.175781 104.164062 32.054688 104.398438 31.953125 C 104.632812 31.851562 104.878906 31.773438 105.128906 31.722656 C 105.378906 31.667969 105.632812 31.640625 105.890625 31.636719 C 106.144531 31.636719 106.402344 31.660156 106.652344 31.707031 C 106.90625 31.757812 107.148438 31.828125 107.386719 31.925781 C 107.625 32.023438 107.847656 32.144531 108.0625 32.285156 C 108.277344 32.425781 108.472656 32.589844 108.65625 32.769531 C 108.835938 32.953125 109 33.148438 109.140625 33.363281 C 109.28125 33.574219 109.402344 33.800781 109.5 34.039062 C 109.597656 34.277344 109.667969 34.519531 109.71875 34.773438 C 109.765625 35.023438 109.789062 35.277344 109.785156 35.535156 C 109.785156 35.792969 109.757812 36.046875 109.703125 36.296875 C 109.652344 36.546875 109.574219 36.792969 109.472656 37.027344 C 109.371094 37.261719 109.25 37.484375 109.101562 37.695312 C 108.957031 37.910156 108.792969 38.101562 108.609375 38.28125 L 85.425781 61.464844 C 84.667969 62.21875 83.753906 62.59375 82.683594 62.589844 Z M 82.683594 62.589844 " fill-opacity="1" fill-rule="nonzero"/><path fill="#fafafa" d="M 105.863281 85.773438 C 104.796875 85.773438 103.886719 85.398438 103.128906 84.644531 L 91.539062 73.054688 C 91.175781 72.691406 90.898438 72.273438 90.699219 71.800781 C 90.503906 71.328125 90.40625 70.835938 90.40625 70.324219 C 90.40625 69.808594 90.503906 69.316406 90.699219 68.84375 C 90.898438 68.371094 91.175781 67.953125 91.539062 67.589844 L 114.71875 44.410156 C 115.082031 44.046875 115.5 43.769531 115.972656 43.570312 C 116.445312 43.375 116.9375 43.277344 117.453125 43.277344 C 117.964844 43.277344 118.457031 43.375 118.929688 43.570312 C 119.402344 43.769531 119.820312 44.046875 120.183594 44.410156 L 131.773438 56 C 131.957031 56.179688 132.125 56.371094 132.269531 56.582031 C 132.414062 56.796875 132.539062 57.019531 132.640625 57.253906 C 132.742188 57.488281 132.816406 57.734375 132.871094 57.984375 C 132.921875 58.234375 132.953125 58.488281 132.953125 58.746094 C 132.957031 59 132.933594 59.257812 132.882812 59.507812 C 132.835938 59.761719 132.761719 60.003906 132.664062 60.242188 C 132.570312 60.480469 132.449219 60.703125 132.308594 60.917969 C 132.164062 61.132812 132.003906 61.328125 131.820312 61.511719 C 131.640625 61.691406 131.441406 61.855469 131.230469 61.996094 C 131.015625 62.136719 130.789062 62.257812 130.554688 62.355469 C 130.316406 62.453125 130.070312 62.523438 129.820312 62.574219 C 129.566406 62.621094 129.3125 62.644531 129.054688 62.640625 C 128.800781 62.640625 128.546875 62.613281 128.296875 62.558594 C 128.042969 62.507812 127.800781 62.429688 127.566406 62.328125 C 127.328125 62.226562 127.105469 62.105469 126.894531 61.957031 C 126.683594 61.8125 126.488281 61.648438 126.3125 61.464844 L 117.457031 52.601562 L 99.738281 70.320312 L 108.59375 79.175781 C 108.863281 79.445312 109.089844 79.746094 109.269531 80.085938 C 109.449219 80.421875 109.578125 80.777344 109.652344 81.152344 C 109.726562 81.527344 109.746094 81.90625 109.707031 82.285156 C 109.671875 82.664062 109.582031 83.03125 109.433594 83.386719 C 109.289062 83.738281 109.09375 84.0625 108.851562 84.359375 C 108.609375 84.65625 108.328125 84.910156 108.011719 85.121094 C 107.695312 85.332031 107.351562 85.496094 106.988281 85.605469 C 106.621094 85.71875 106.246094 85.773438 105.863281 85.773438 Z M 105.863281 85.773438 " fill-opacity="1" fill-rule="nonzero"/><path fill="#fafafa" d="M 113.589844 70.320312 C 112.523438 70.320312 111.613281 69.945312 110.855469 69.191406 L 103.128906 61.464844 C 102.777344 61.097656 102.507812 60.679688 102.320312 60.210938 C 102.132812 59.742188 102.039062 59.253906 102.042969 58.746094 C 102.050781 58.238281 102.148438 57.753906 102.34375 57.285156 C 102.539062 56.816406 102.816406 56.40625 103.175781 56.046875 C 103.535156 55.6875 103.945312 55.410156 104.414062 55.214844 C 104.882812 55.019531 105.367188 54.921875 105.875 54.914062 C 106.382812 54.910156 106.871094 55.003906 107.339844 55.191406 C 107.808594 55.378906 108.226562 55.648438 108.59375 56 L 116.320312 63.726562 C 116.589844 63.996094 116.8125 64.300781 116.992188 64.636719 C 117.171875 64.972656 117.300781 65.328125 117.371094 65.703125 C 117.445312 66.078125 117.464844 66.453125 117.429688 66.835938 C 117.390625 67.214844 117.300781 67.578125 117.152344 67.933594 C 117.007812 68.285156 116.8125 68.609375 116.570312 68.902344 C 116.328125 69.199219 116.050781 69.453125 115.734375 69.664062 C 115.417969 69.878906 115.074219 70.039062 114.710938 70.148438 C 114.347656 70.261719 113.972656 70.316406 113.589844 70.320312 Z M 113.589844 70.320312 " fill-opacity="1" fill-rule="nonzero"/><path fill="#fafafa" d="M 136.773438 116.683594 C 136.46875 116.683594 136.167969 116.644531 135.867188 116.574219 C 135.570312 116.503906 135.285156 116.398438 135.015625 116.257812 C 134.742188 116.117188 134.488281 115.949219 134.257812 115.75 C 134.027344 115.550781 133.820312 115.324219 133.640625 115.078125 C 133.460938 114.828125 133.316406 114.5625 133.199219 114.28125 C 133.085938 113.996094 133.003906 113.703125 132.957031 113.402344 C 132.910156 113.097656 132.902344 112.796875 132.925781 112.492188 C 132.953125 112.1875 133.015625 111.886719 133.109375 111.597656 L 138.394531 95.75 L 122.546875 101.035156 C 122.183594 101.152344 121.8125 101.214844 121.429688 101.222656 C 121.050781 101.230469 120.675781 101.1875 120.308594 101.085938 C 119.9375 100.984375 119.59375 100.832031 119.269531 100.628906 C 118.945312 100.429688 118.65625 100.183594 118.40625 99.898438 C 118.15625 99.609375 117.953125 99.292969 117.796875 98.941406 C 117.644531 98.59375 117.542969 98.230469 117.492188 97.851562 C 117.445312 97.472656 117.453125 97.09375 117.519531 96.71875 C 117.582031 96.339844 117.703125 95.984375 117.871094 95.640625 L 133.328125 64.730469 C 133.554688 64.273438 133.863281 63.875 134.25 63.539062 C 134.636719 63.203125 135.074219 62.953125 135.5625 62.789062 C 136.046875 62.628906 136.546875 62.5625 137.058594 62.601562 C 137.570312 62.636719 138.054688 62.769531 138.515625 62.996094 C 138.972656 63.226562 139.371094 63.535156 139.707031 63.921875 C 140.042969 64.308594 140.292969 64.746094 140.453125 65.234375 C 140.617188 65.71875 140.679688 66.21875 140.640625 66.730469 C 140.605469 67.242188 140.472656 67.726562 140.242188 68.1875 L 128.960938 90.75 L 143.296875 85.972656 C 143.992188 85.746094 144.695312 85.71875 145.40625 85.886719 C 146.117188 86.054688 146.730469 86.394531 147.25 86.910156 C 147.769531 87.425781 148.113281 88.042969 148.28125 88.753906 C 148.449219 89.46875 148.417969 90.171875 148.1875 90.867188 L 143.410156 105.191406 L 165.976562 93.910156 C 166.433594 93.683594 166.917969 93.550781 167.429688 93.515625 C 167.941406 93.476562 168.4375 93.542969 168.925781 93.703125 C 169.410156 93.867188 169.847656 94.117188 170.234375 94.453125 C 170.621094 94.789062 170.929688 95.183594 171.15625 95.644531 C 171.386719 96.101562 171.519531 96.585938 171.554688 97.097656 C 171.589844 97.609375 171.527344 98.105469 171.367188 98.59375 C 171.203125 99.078125 170.957031 99.515625 170.621094 99.902344 C 170.285156 100.289062 169.886719 100.597656 169.429688 100.824219 L 138.519531 116.28125 C 137.96875 116.554688 137.386719 116.6875 136.773438 116.683594 Z M 136.773438 116.683594 " fill-opacity="1" fill-rule="nonzero"/></svg>