<svg xmlns="http://www.w3.org/2000/svg" viewBox="0 0 132.12 154.92"><defs><style>.cls-1{fill:#1a213d;}</style></defs><g id="Layer_2" data-name="Layer 2"><g id="Layer_1-2" data-name="Layer 1"><path class="cls-1" d="M125.84,85.53a22.84,22.84,0,0,1,.22,3.2,55.84,55.84,0,0,1-.12,6.6,63,63,0,0,1-1.45,9.67,64.78,64.78,0,0,1-31,41.6,63.27,63.27,0,0,1-16.16,6.45,59.37,59.37,0,0,1-8.59,1.5c-1.34.13-2.68.27-4,.29-.09,0-.2,0-.25.08h-5.4a2.4,2.4,0,0,0-1.15-.17,61.11,61.11,0,0,1-26.75-8.1A61.76,61.76,0,0,1,19,137.52,62,62,0,0,1,1.43,105.7c-.4-1.93-.73-3.87-1-5.83C.26,98.08.14,96.28.06,94.48c0-1-.08-2.09,0-3.13.07-1.83.15-3.66.35-5.49A64,64,0,0,1,12.5,54.47a54.23,54.23,0,0,1,4.42-5.38.85.85,0,0,1,.19.14L20,52.77c-1.17,1.4-2.35,2.79-3.44,4.26A61.35,61.35,0,0,0,9.73,68.8,58.76,58.76,0,0,0,6.12,80c-.35,1.61-.6,3.24-.83,4.88a59.12,59.12,0,0,0-.45,9.68,54,54,0,0,0,.45,5.38,57.9,57.9,0,0,0,3.43,13.59A57.26,57.26,0,0,0,47.5,148.24a51.83,51.83,0,0,0,6.76,1.35c1.53.2,3.07.33,4.62.43s3,.06,4.47.06a50.91,50.91,0,0,0,6.16-.46,57.36,57.36,0,0,0,14.78-3.88A59,59,0,0,0,105.51,131a59.9,59.9,0,0,0,13.57-24.2A55.6,55.6,0,0,0,120.72,99a31.34,31.34,0,0,0,.38-3.75c.08-.16.14-.32.22-.48,1-1.83,2-3.68,2.84-5.57C124.73,88,125.28,86.75,125.84,85.53Z"/><path class="cls-1" d="M20,52.77l-2.88-3.54a.85.85,0,0,0-.19-.14c0-.18-.1-.26-.19-.37l-5.46-6.66c-.51-.62-1-1.25-1.52-1.86a2.61,2.61,0,0,1,.54-3.8,1.36,1.36,0,0,1,1.71.28A20.11,20.11,0,0,1,14,39c1.51,1.8,2.39,4,3.74,5.89a24.67,24.67,0,0,0,1.9,2.42,1.14,1.14,0,0,0,1.6.23A2.64,2.64,0,0,0,22.42,45a4.66,4.66,0,0,0-2.29-3.73c-1.29-.94-2.76-1.59-4.1-2.46a15.46,15.46,0,0,1-1.45-1.11c.24-.13.4,0,.57.12a70.14,70.14,0,0,0,10.91,4.71,59.08,59.08,0,0,0,6.68,1.75,15.93,15.93,0,0,1-2.58-.2c-1.43-.16-2.86-.35-4.29-.54-.92-.12-1.84-.25-2.75-.41-.38-.06-.46.07-.32.38.61,1.3,1.23,2.59,1.86,3.88a7.87,7.87,0,0,0,5.23,4.17A32.59,32.59,0,0,0,38.26,53c1,0,2,0,2.93,0,.36,0,.43-.07.21-.39a11.5,11.5,0,0,0-2.6-2.42,6.78,6.78,0,0,1-2.15-2.41,46.86,46.86,0,0,1,5.4,1.6,72.44,72.44,0,0,1,14.36,7.31C59.66,58.75,62.76,61,66,63.19a5.8,5.8,0,0,0,4.35,1.1,1.23,1.23,0,0,0,.7-.37,8,8,0,0,1,.92-.92.86.86,0,0,1,1.43.59c.24,1.28.25,2.58.38,3.87a7.82,7.82,0,0,0,1.4,4.31c.12.15.22.29.43.22,2.23-.74,4.17,0,6,1.17.83.53,1.68,1,2.51,1.57a.9.9,0,0,0,.81.11,10.66,10.66,0,0,0,3.71-2.13c.63-.47,1.25-.95,2-1.41a4.8,4.8,0,0,1-.35,1.6,8.8,8.8,0,0,1-2.88,3.7,39.19,39.19,0,0,1-5,3.23.68.68,0,0,1-.37.09A8.33,8.33,0,0,0,76.31,82a.68.68,0,0,1-.78.11c-1-.36-1.84-1-2.77-1.41a3.42,3.42,0,0,0-2.91-.24c-.44.19-.45.23-.12.57a16.8,16.8,0,0,0,5.61,3.6,48.35,48.35,0,0,1,6.36,3,4.74,4.74,0,0,0,1.81.4,12.54,12.54,0,0,1,1.92.38,2.79,2.79,0,0,1,1.79,1.49c.12.26.2.26.4.1a4.64,4.64,0,0,1,3.23-.79,7.28,7.28,0,0,0,3.8-.52,1.35,1.35,0,0,1,1.56.66,2.2,2.2,0,0,1,.4,1.3,19.59,19.59,0,0,1-1.34,6.63,1.36,1.36,0,0,1-1.33,1,7,7,0,0,1-4.65-1.16,4.6,4.6,0,0,0-1.79-.46c-1.69-.37-3.4-.67-5.11-1a6.21,6.21,0,0,0,1.86-.42c.14-.07.29-.13.42-.21a1.53,1.53,0,0,0,.56-2.36,3.86,3.86,0,0,0-2.67-1.7c-.91-.22-1.85-.35-2.74-.64a13.14,13.14,0,0,1-3.91-2.36c-1.63-1.28-3-2.84-4.63-4.14a9.27,9.27,0,0,0-4.72-2.27,6.54,6.54,0,0,0-2.57.21,4.74,4.74,0,0,1-1,.15c-.37,0-.48-.18-.55-.46a1.85,1.85,0,0,1,1-2,5.44,5.44,0,0,1,2.48-.78c.71,0,1.41-.07,2.11-.16a2.56,2.56,0,0,0,2.34-2.4,4.14,4.14,0,0,0-1.45-3.82,3.82,3.82,0,0,0-2.86-1.23,3.45,3.45,0,0,0-1.86.55c-1.86,1.21-3.84,2.22-5.65,3.52a12,12,0,0,0-4.07,4.4,6.72,6.72,0,0,0-.7,3c0,1.34.94,2.13,1.92,2.88a30.81,30.81,0,0,0,4.52,2.45c2.12,1.11,4.09,2.48,6.18,3.66a19.11,19.11,0,0,0,5.68,2.3c.33.07.66.1,1,.16.16,0,.41,0,.38.25s-.26.13-.38.12a32.44,32.44,0,0,1-4.91-.81,36.27,36.27,0,0,1-10.42-4.45,2.86,2.86,0,0,0-1-.38,8.33,8.33,0,0,1-4.13-2.56,8.63,8.63,0,0,1-1.3-1.53c-.18-.26-.35-.53-.52-.8a2.78,2.78,0,0,1-.56-1.11,10.1,10.1,0,0,1,.46-5.11,11.49,11.49,0,0,1,2.57-3.88,42.5,42.5,0,0,1,5.41-4.7c.88-.7,1.75-1.4,2.59-2.15.26-.22.25-.37,0-.61a6.63,6.63,0,0,1-.78-1,6,6,0,0,0-1.93-1.62l-10-6.29a1.1,1.1,0,0,0-.86-.16,21.29,21.29,0,0,1-5.74.45,11.88,11.88,0,0,1-4.26-1.32c-2.31-1.07-4.41-2.49-6.62-3.73a39.59,39.59,0,0,0-4-1.93,2.91,2.91,0,0,0-3.12.52c-.35.25-.68.53-1,.8A3.12,3.12,0,0,1,20,52.77Z"/><path class="cls-1" d="M122.54,54.84a5,5,0,0,1,1.74,1.6,17.4,17.4,0,0,1,3.3,7.75,28.08,28.08,0,0,1,.4,3,.86.86,0,0,1-.4.81,2.48,2.48,0,0,1-2.12.26,2.75,2.75,0,0,1-.41-.11c-1.18-.34-1.55-.77-1.51-2a6.35,6.35,0,0,0-1.64-4.08,12.55,12.55,0,0,0-5.66-3.91c-1.79-.71-3.6-1.38-5.41-2A9.6,9.6,0,0,1,106.48,53a36.5,36.5,0,0,0-5-5.42,10.73,10.73,0,0,0-5.51-2.7.49.49,0,0,0-.5.16,13.86,13.86,0,0,0-3.61,7.88,12.43,12.43,0,0,0,.53,5.45,9.81,9.81,0,0,1,.39,3.8c-.1,2.13-.26,4.25-.4,6.47a20.55,20.55,0,0,1-.45-3.3,30.43,30.43,0,0,0-.68-5.86,6.27,6.27,0,0,0-4.49-4.73,8.21,8.21,0,0,0-2-.26,35.77,35.77,0,0,1-4.14-.1,2.83,2.83,0,0,1-.42-.07c-1.5-.42-1.53-.2-.63-1.64a8.43,8.43,0,0,1,3.64-2.87,51.69,51.69,0,0,1,5.37-2.13,4,4,0,0,0,1.86-1.5,23.53,23.53,0,0,0,2-3.6,9,9,0,0,1,2.29-3c.28-.21.2-.47.18-.74a5.88,5.88,0,0,0-3.33-4.63,41.65,41.65,0,0,0-5-2.18A7.1,7.1,0,0,0,83,31.39,13.47,13.47,0,0,0,78.08,33c-1.77.91-3.43,2-5.27,2.8a10.16,10.16,0,0,1-4.21,1,11.44,11.44,0,0,1-4.18-1.12c-.36-.15-.71-.32-1.12-.51a2.94,2.94,0,0,1,1,0c3.78.48,7.5.41,11.06-1.19a10,10,0,0,0,4.19-3.41,1.24,1.24,0,0,0,.23-.42,22.92,22.92,0,0,1,2.1-5,14.23,14.23,0,0,0,1.53-4.25,5.11,5.11,0,0,0-1.85-4.69.32.32,0,0,0-.21-.08,10.38,10.38,0,0,0-2.49.12,2.57,2.57,0,0,0-1.73,1.33,8.51,8.51,0,0,1-.51.81,1.73,1.73,0,0,1,.18-.78,7.54,7.54,0,0,1,2.51-3.6,3.46,3.46,0,0,1,3.15-.35,6.69,6.69,0,0,1,2.57,1.25,2.57,2.57,0,0,1,.79.94,12.7,12.7,0,0,1,.91,8.82A6.79,6.79,0,0,1,86,26.24a1.78,1.78,0,0,0,.7,2.55,4.7,4.7,0,0,0,1.84.49,12.37,12.37,0,0,1,3.54,1.07,42.54,42.54,0,0,1,10.75,6.4A36,36,0,0,1,108.05,42s0,.08.08.2c-.39-.35-.71-.67-1.06-1a1.26,1.26,0,0,0-1.94.12,4.31,4.31,0,0,0-1.42,2.9,2.33,2.33,0,0,0,1,2.35,19.45,19.45,0,0,0,5.06,2.09c.77.25,1.54.53,2.31.77a.55.55,0,0,1,.44.63c0,.38-.36.39-.61.41a4.57,4.57,0,0,0-1.51.22c-.08,0-.18.06-.26.11-.5.33-.51.48-.1.93a27.84,27.84,0,0,0,5.9,4.5,25.58,25.58,0,0,1,5,3.76A11.26,11.26,0,0,1,123,63.2a.46.46,0,0,0,.43.33,2.26,2.26,0,0,1,1.44,1A8.35,8.35,0,0,0,126,65.73a1.17,1.17,0,0,0,.64.31c.69.06.85-.12.72-.77A26.08,26.08,0,0,0,122.63,55Z"/><path class="cls-1" d="M125.84,85.53c-.56,1.22-1.11,2.45-1.68,3.67-.87,1.89-1.85,3.74-2.84,5.57-.08.16-.14.32-.22.48a19.93,19.93,0,0,0-1.23,2c-.1.16-.2.32-.29.49s-.11.21-.28.11-.07-.21,0-.31c.43-.78.86-1.56,1.27-2.34a86.8,86.8,0,0,0,7-18q.93-3.51,1.52-7.09c.27-1.61.47-3.23.62-4.86s.2-3.51.3-5.26c.09-1.53,0-3-.07-4.56a49.26,49.26,0,0,0-.52-5.41,59.08,59.08,0,0,0-2.13-9.39A50.7,50.7,0,0,0,119,24.8a46.22,46.22,0,0,0-7.25-7.48A66.56,66.56,0,0,0,90.13,5.57,87.69,87.69,0,0,0,79.67,2.88c-2.13-.41-4.28-.76-6.43-1-1.47-.19-2.95-.3-4.43-.43a105.85,105.85,0,0,0-11.68-.24c-1.71,0-3.44.16-5.15.33l-4,.41c-.53.06-1.07.13-1.6.22-.18,0-.32.15-.36-.15s.18-.14.26-.16c1.63-.33,3.28-.57,4.94-.77S54.3.67,55.85.51C56.91.4,58,.38,59.05.29A84,84,0,0,1,67.6,0q4,.08,8,.46A82.61,82.61,0,0,1,88.13,2.62a65,65,0,0,1,23.66,11,51.41,51.41,0,0,1,15.32,18.49,45.92,45.92,0,0,1,3.77,11.6,64.28,64.28,0,0,1,1,7.31,65.32,65.32,0,0,1,.14,8.28,73,73,0,0,1-3.54,18.93c-.74,2.29-1.59,4.54-2.5,6.76C125.94,85.19,125.9,85.36,125.84,85.53Z"/><path class="cls-1" d="M22.78,98.63a45.33,45.33,0,0,0,5.85,11.47,40.47,40.47,0,0,0,7.23,7.79A41.24,41.24,0,0,0,52,126.1,46,46,0,0,0,58,127.24a30.88,30.88,0,0,0,5.17.25,38.17,38.17,0,0,0,13.17-3.13,41.4,41.4,0,0,0,9.45-5.62,37.34,37.34,0,0,0,7.88-8.61,36.82,36.82,0,0,0,4.89-11,44.88,44.88,0,0,0,1.13-5.63c.21-1.57.34-3.14.4-4.72s-.2-3.09-.11-4.64a6.36,6.36,0,0,1,1.7-4.48c.09-.08.16-.26.29-.21s.1.22.13.34a36.3,36.3,0,0,1,.89,6.32c0,1,.08,1.93,0,2.89a43.67,43.67,0,0,1-2.25,12.51,45.42,45.42,0,0,1-6.57,12.71,36.7,36.7,0,0,1-11.63,10.37A42.32,42.32,0,0,1,71,129.18a41.75,41.75,0,0,1-4.74.75,34,34,0,0,1-5,.16,40,40,0,0,1-6.15-.73,44.84,44.84,0,0,1-8.78-2.71,35.87,35.87,0,0,1-8.88-5.36,45.08,45.08,0,0,1-12.12-15.73,45.74,45.74,0,0,1-2.53-6.69A.63.63,0,0,1,22.78,98.63Z"/><path class="cls-1" d="M35.54,65a8.09,8.09,0,0,0,2.32-1.28c.13-.11.23-.16.37,0a7,7,0,0,0,2.09,1.2c0,.21,0,.42,0,.63V95.66c0,.24,0,.48,0,.72-.69.41-1.38.81-2.07,1.23a.39.39,0,0,1-.48,0c-.72-.51-1.52-.88-2.27-1.34v-.53q0-14.88,0-29.76C35.53,65.64,35.54,65.3,35.54,65Z"/><path class="cls-1" d="M60.5,34.35a3.84,3.84,0,0,0-1.67.44c-.24.11-.29.21-.11.46a62.84,62.84,0,0,0,4.12,5.07c1.89,2.09,3.9,4.06,6,6,.69.64,1.4,1.26,2.15,1.94a1.14,1.14,0,0,1-.77-.19,35.36,35.36,0,0,1-5.79-3.47A64,64,0,0,0,58,40.4a7.41,7.41,0,0,0-1.23-.61,3.35,3.35,0,0,1-2.15-2.38,5.39,5.39,0,0,1,0-3.65,73.47,73.47,0,0,0,2.57-9.93,40.6,40.6,0,0,0,.55-5.92.65.65,0,0,0-.07-.46,5,5,0,0,0-1.17,1.36,16.42,16.42,0,0,0-1.85,4.79,15.81,15.81,0,0,1-1.84,4.69,1.36,1.36,0,0,1-.41.42c.19-.65.38-1.3.58-1.95A59,59,0,0,1,62.51,8.5a.86.86,0,0,1,1.13-.29.81.81,0,0,1,.64.88c0,1.35-.1,2.69-.16,4a.85.85,0,0,1-.24.64,16.73,16.73,0,0,0-4.62,8.76,34.94,34.94,0,0,0-.59,9.52,3.22,3.22,0,0,1,0,.82c-.1.59.19.86.72,1C59.73,34,60.05,34.16,60.5,34.35Z"/><path class="cls-1" d="M32.23,94.51a16.31,16.31,0,0,1-4.73-3.73s0-.06,0-.09q0-10.6,0-21.21c0-1.56,0-3.12,0-4.67.59-.77.6-.77,1.43-.35a10.1,10.1,0,0,0,3.32.89c0,.09,0,.19,0,.29V94.12C32.25,94.25,32.24,94.38,32.23,94.51Z"/><path class="cls-1" d="M48.37,91a15.81,15.81,0,0,1-4.62,3.63c0-.18,0-.35,0-.53V65.76c0-.15,0-.29,0-.43a13.31,13.31,0,0,0,2.59-.49,6.38,6.38,0,0,0,1.17-.48c.41-.26.66-.2.87.2V82.17C48.36,85.1,48.37,88,48.37,91Z"/><path class="cls-1" d="M43.73,65.33c0,.14,0,.28,0,.43V94.05c0,.18,0,.35,0,.53A23.11,23.11,0,0,1,41,96.07a1.73,1.73,0,0,1-.69.31c0-.24,0-.48,0-.72V65.5c0-.21,0-.42,0-.63.7.08,1.38.3,2.1.36A4.15,4.15,0,0,1,43.73,65.33Z"/><path class="cls-1" d="M32.23,94.51c0-.13,0-.26,0-.39V65.64c0-.1,0-.2,0-.29a17.39,17.39,0,0,0,3.3-.38c0,.33,0,.67,0,1q0,14.88,0,29.76v.53A19.62,19.62,0,0,1,32.23,94.51Z"/><path class="cls-1" d="M24.58,10a8.25,8.25,0,0,1,8.23,8.33,8.34,8.34,0,0,1-8.33,8.36A8.35,8.35,0,0,1,24.58,10Zm.05.76a7.42,7.42,0,0,0-4.84,1.69c.1.06.17.13.23.13.45,0,.42.16.37.54a5.18,5.18,0,0,0-.05,2c.05.16,0,.23-.19.29a3.77,3.77,0,0,0-2,1.32c-.16.22-.21,0-.29-.07s-.15-.54-.41-.74a7.41,7.41,0,0,0,.19,5.4c.22-.32.23-.7.49-1a7.73,7.73,0,0,0,1.69,1.34,1,1,0,0,1,.66.86,4.83,4.83,0,0,0,.85,1.94H20.21c.82,1,4,1.79,5.21,1.33-.29-.24-.67-.31-.9-.63a4.21,4.21,0,0,0,1.72-1.57.37.37,0,0,1,.38-.22,17.49,17.49,0,0,0,2.61,0c0,.37-.29.64-.27,1.08a7.55,7.55,0,0,0,2.76-4l-.94.68a3,3,0,0,0-.1-1.11,3.46,3.46,0,0,0-.34-1,1.09,1.09,0,0,1,0-1.2,5.26,5.26,0,0,0,.45-1.39c.17-.67.17-.67.81-.41,0,0,.05,0,.08,0-.17-1.55-2.32-4.06-3.54-4.27a8.47,8.47,0,0,1,.58,1.33,4.75,4.75,0,0,0-2.57.23c-.16.06-.2-.1-.28-.19A10.28,10.28,0,0,0,24.59,12c-.25-.19-.7-.36-.71-.56S24.35,11,24.63,10.71Z"/><path class="cls-1" d="M34.11,131.07l1,5.3-1.28-1c-.34-.27-.68-.54-1-.82s-.25-.78-.32-1.17c-.26-1.51-.45-3-.68-4.61.39.29.75.57,1.12.83a5.36,5.36,0,0,0,2.22,1.05A1.15,1.15,0,0,0,36.43,129a4.34,4.34,0,0,0-1.25-1.79c-.52-.5-1.11-.93-1.65-1.4-.22-.21-.37-.23-.58,0-1.34,1.66-2.69,3.3-4,5-.18.22-.3.31-.57.08-.55-.51-1.15-1-1.73-1.45-.13-.11-.25-.17-.08-.37,1.48-1.79,3-3.58,4.42-5.39.22-.27.31-.17.51,0,1.67,1.38,3.35,2.74,5,4.11a6.72,6.72,0,0,1,2,2.4,2.55,2.55,0,0,1,.26,1.06A1.26,1.26,0,0,1,37,132.58a8.3,8.3,0,0,1-2.32-1.12Z"/><path class="cls-1" d="M72.85,142.87a6.79,6.79,0,0,1-2.82-.48,2.63,2.63,0,0,1-1.1-4.42,9.91,9.91,0,0,1,4.37-2.92,13.71,13.71,0,0,1,6.14-1,5.47,5.47,0,0,1,2.37.69,2.44,2.44,0,0,1,1,3.45,6.38,6.38,0,0,1-2.44,2.45A14.77,14.77,0,0,1,72.85,142.87Zm2.09-.76a7.49,7.49,0,0,0,3.9-1.37,3.29,3.29,0,0,0-1.33-5.88A7.12,7.12,0,0,0,72.72,136a3.34,3.34,0,0,0-1.2,1.22,3.22,3.22,0,0,0,.12,3.37A3.33,3.33,0,0,0,74.94,142.11Z"/><path class="cls-1" d="M48.37,91c0-2.93,0-5.85,0-8.78V64.56c.94.85,1.73,1.83,2.62,2.73.17.18.08.32,0,.47a11.38,11.38,0,0,0-.42,9.72.86.86,0,0,0,.1.16,10.1,10.1,0,0,0-.46,5.11,2.78,2.78,0,0,0,.56,1.11c.17.27.34.54.52.8a12.27,12.27,0,0,1-2.63,6C48.57,90.8,48.52,90.93,48.37,91Z"/><path class="cls-1" d="M27.49,64.81c0,1.55,0,3.11,0,4.67q0,10.6,0,21.21a9.55,9.55,0,0,1-1.85-3.11,17.2,17.2,0,0,1-.85-8.2,5.8,5.8,0,0,1,.61-1.46A12.5,12.5,0,0,0,26,69.68a9.71,9.71,0,0,0-.83-2c-.07-.12-.24-.26-.08-.43C25.92,66.44,26.63,65.55,27.49,64.81Z"/><path class="cls-1" d="M41,108.66c0-1,0-2.06,0-3.08,0-.27.06-.36.34-.35,1.31,0,2.61,0,3.91,0a6.78,6.78,0,0,1,3.84,1.06,3,3,0,0,1,1.24,3.56,3.13,3.13,0,0,1-2.09,1.89,6.29,6.29,0,0,1-2.36.39c-1.49,0-3,0-4.48,0-.32,0-.41-.08-.4-.39C41.05,110.72,41,109.69,41,108.66Zm2.77,0v2.26c0,.14-.05.3.19.3a5.72,5.72,0,0,0,2.06-.2,2.59,2.59,0,0,0,.86-3.93,3.92,3.92,0,0,0-2.78-.9c-.29,0-.34.1-.33.35C43.82,107.23,43.81,107.93,43.81,108.64Z"/><path class="cls-1" d="M115.63,101.67a10.66,10.66,0,0,1-2.34,6.15,3.5,3.5,0,0,1-2.45,1.44,3.05,3.05,0,0,1-3-1.69,5.74,5.74,0,0,1-.64-3.95,10.82,10.82,0,0,1,1.83-4.77,5.59,5.59,0,0,1,1.25-1.32,2.9,2.9,0,0,1,4.32.63A5.78,5.78,0,0,1,115.63,101.67Zm-4.31-2.07a3.29,3.29,0,0,0-3.36,3.55,3.54,3.54,0,0,0,3.56,3.4,3.34,3.34,0,0,0,3.33-3.53A3.51,3.51,0,0,0,111.32,99.6Z"/><path class="cls-1" d="M95.21,129.65c-.89-1.27-1.75-2.48-2.6-3.7-.12-.19-.45-.39-.3-.59a2.68,2.68,0,0,1,.85-.61c.16-.08.21.15.28.25q1.68,2.34,3.33,4.7c.22.31.44.63.67.94.12.15.09.22-.07.36a2.74,2.74,0,0,1-1.75.65l-6.54.3c-1.17.05-2.33.13-3.5.18-.37,0-.27.13-.13.33L87.94,136c.21.3.4.62.63.9s.1.25-.06.37c-.77.58-.76.58-1.32-.2-1.21-1.69-2.4-3.39-3.61-5.08-.17-.23-.22-.38.09-.54a2.87,2.87,0,0,0,.77-.56c.94-1,2.18-.77,3.33-.84,2.35-.14,4.71-.21,7.07-.31Z"/><path class="cls-1" d="M106.07,113.06a6.77,6.77,0,0,1,1.31-1.2,1.65,1.65,0,0,1,2.73,1.46,6.72,6.72,0,0,1-.77,3.08,10.69,10.69,0,0,1-3.11,4,3.09,3.09,0,0,1-1,.5,1.39,1.39,0,0,1-1.9-1.39,5.85,5.85,0,0,1,.29-2.12c0-.17.16-.33.08-.54a7.89,7.89,0,0,1-1,.73c-.87.39-1.5.06-1.62-.88a4.76,4.76,0,0,1,.52-2.51,8,8,0,0,1,2.45-3.31,4.21,4.21,0,0,1,.45-.28c.95-.46,1.62-.06,1.62,1C106.16,112.06,106.11,112.49,106.07,113.06Zm.39,5.6a1.54,1.54,0,0,0,.86-.25,3.31,3.31,0,0,0,1.52-2.58,1.69,1.69,0,0,0-1-1.69,1.64,1.64,0,0,0-1.92.19,3.6,3.6,0,0,0-1.29,2.12A1.85,1.85,0,0,0,106.46,118.66ZM105.11,114a1.4,1.4,0,0,0-.79-1.45,1.16,1.16,0,0,0-1.36.29,2.37,2.37,0,0,0-.73,1.27,1.25,1.25,0,0,0,.5,1.35,1.15,1.15,0,0,0,1.38.09A2.22,2.22,0,0,0,105.11,114Z"/><path class="cls-1" d="M55.9,137.42l-.74.07a.4.4,0,0,1-.41-.18,4.81,4.81,0,0,0-3.51-1.8,2.6,2.6,0,0,0-1.27.09c-.86.31-1,1-.32,1.55A10.17,10.17,0,0,0,52,138.5,13.45,13.45,0,0,1,54.52,140a2.36,2.36,0,0,1,.6.62,1.33,1.33,0,0,1-.56,2.07,4.56,4.56,0,0,1-2.3.39,11.92,11.92,0,0,1-5.8-1.73,3.29,3.29,0,0,1-1-.93,1.34,1.34,0,0,1,1.49.3,5.21,5.21,0,0,0,4.63,1.39,1,1,0,0,0,.88-.7,1,1,0,0,0-.39-1,10.38,10.38,0,0,0-2.79-1.62,12.73,12.73,0,0,1-2.23-1.3,2,2,0,0,1-.7-1A1.24,1.24,0,0,1,47,135a4,4,0,0,1,2.09-.43A10.23,10.23,0,0,1,55,136.49,3.34,3.34,0,0,1,55.9,137.42Z"/><path class="cls-1" d="M23.89,126.84c-.53-.74-1.05-1.47-1.58-2.18a.41.41,0,0,1,0-.4c.16-.6.28-1.21.46-1.81a.84.84,0,0,0-.16-.83c-.9-1.23-1.78-2.46-2.66-3.7a.6.6,0,0,0-.54-.32c-.49,0-1,0-1.49,0A1,1,0,0,1,16.8,117a4.25,4.25,0,0,0-.38-.55l3.44.2,5.8.37c.76,0,.77,0,.59.76-.76,3-1.51,6-2.27,9C24,126.78,24,126.79,23.89,126.84ZM23,121.33c.31-1.12.59-2.14.86-3.16,0-.14,0-.25-.17-.26l-3.29-.2Z"/><path class="cls-1" d="M63.55,139.5c0,1.41,0,2.83,0,4.24,0,.3-.08.38-.38.37-.71,0-1.42,0-2.12,0-.35,0-.46-.07-.45-.44,0-2,0-4.08.1-6.12,0-.45-.15-.55-.53-.54-.72,0-1.45,0-2.17,0-.17,0-.41.07-.4-.26s.22-.22.37-.21l8.4,0c.19,0,.33,0,.32.27s-.17.21-.32.21c-.82,0-1.64,0-2.46,0-.26,0-.33.08-.32.33,0,.71,0,1.41,0,2.12Z"/><path class="cls-1" d="M44.32,132.61l-.15.32c-1,2-2.05,4-3.06,6-.13.25-.23.31-.5.16-.66-.36-1.33-.69-2-1-.21-.11-.27-.17-.14-.41q1.58-3.06,3.13-6.14c.09-.18.14-.33.42-.18.69.38,1.42.72,2.12,1.09C44.22,132.48,44.33,132.5,44.32,132.61Z"/><path class="cls-1" d="M71.73,108.79c0-.88,0-1.77,0-2.65s.54-1.29,1.27-1.37,1.67,0,2.5,0c.34,0,.24.22.25.39s0,.38-.28.35-.71,0-1.06,0-.5.15-.49.49,0,.83,0,1.25.11.35.36.33.49,0,.72,0c.44-.07.5.14.48.51s0,.33-.32.33-.92-.18-1.15.06-.07.8-.08,1.21c0,.72,0,1.45,0,2.17,0,.25-.06.33-.32.32-.49,0-1,0-1.49,0-.29,0-.38,0-.38-.36C71.74,110.78,71.73,109.79,71.73,108.79Z"/><path class="cls-1" d="M64,108.09c0-1,0-2,0-2.94,0-.35.1-.43.43-.41a10.9,10.9,0,0,0,1.4,0c.3,0,.36.09.36.38,0,1.81,0,3.62,0,5.44,0,.89.19.9.87.85.08,0,.16,0,.24,0,.34-.07.35.12.35.38s-.06.36-.34.35c-.74,0-1.48,0-2.21,0S64,111.94,64,111,64,109.07,64,108.09Z"/><path class="cls-1" d="M57.62,112.14H56.08a.93.93,0,0,1-1-1c0-.75,0-1.51,0-2.26,0-1,.39-1.18,1.22-1.26s1.93,0,2.9,0c.31,0,.28.15.28.35s0,.42-.3.39-.93,0-1.4,0-.5.09-.53.79c0,.43.18.42.48.41s.77,0,1.16,0,.41,0,.41.39-.12.36-.39.35c-.43,0-.87,0-1.3,0-.27,0-.36.06-.36.34,0,.82,0,.87.85.87.43,0,.87,0,1.3,0s.28.18.27.37.07.39-.26.37C58.78,112.12,58.2,112.14,57.62,112.14Z"/><path class="cls-1" d="M81.41,107.55c.8,0,1.61,0,2.41,0,.38,0,.32.2.32.42s.07.46-.32.42-.67,0-1,0-.32.07-.32.32c0,1,0,2.06,0,3.08,0,.31-.08.39-.37.37-.5,0-1,0-1.49,0-.26,0-.33-.07-.33-.32,0-1,0-2.06,0-3.08,0-.31-.08-.4-.38-.37s-.64,0-1,0-.31-.21-.31-.43-.05-.43.32-.41C79.8,107.57,80.61,107.55,81.41,107.55Z"/><path class="cls-1" d="M13.58,107.71a7.18,7.18,0,0,0,1.88-.23c1-.14,2.07-.35,3.11-.52.17,0,.37-.06.42.18s-.21.18-.32.2c-1.72.29-3.43.57-5.15.84-.38.06-.77,0-.93-.4s.15-.76.49-1c1.25-.82,2.52-1.62,3.78-2.43l.29-.18c.61-.4.58-.39.84.3.12.32-.1.36-.25.46l-3.83,2.45A.64.64,0,0,0,13.58,107.71Z"/><path class="cls-1" d="M11.4,100.75c.41,0,.82,0,1.23,0,1.23,0,2.46-.12,3.69-.18h.24c.17,0,.23.09.23.24s-.13.15-.23.15c-.57,0-1.12.06-1.68.08-1.22.06-2.44.08-3.66.12-.39,0-.76-.07-.87-.51s.16-.67.5-.83l4.84-2.37c.16-.08.22-.06.29.09.26.56.19.74-.38,1l-3.95,1.92C11.55,100.52,11.39,100.53,11.4,100.75Z"/><path class="cls-1" d="M55,48.24l2.66.71,7.92,2.15a3.08,3.08,0,0,1,1.73,1.63A5.57,5.57,0,0,1,68,54.49c0,.14.22.32,0,.41a.45.45,0,0,1-.57-.14,1.16,1.16,0,0,1-.2-.42c-.33-1.89-1.79-2.64-3.33-3.28a29.37,29.37,0,0,0-4.9-1.26A10.49,10.49,0,0,1,55,48.24Z"/><path class="cls-1" d="M40.3,45.06,43.62,45c.32,0,.64,0,1-.07a2.94,2.94,0,0,1,1.41.17,15.2,15.2,0,0,1,3.29,1.61c-3-.69-6-1.15-9-1.54C40.29,45.12,40.3,45.09,40.3,45.06Z"/><path class="cls-1" d="M12,104.58c-.31,0-.6-.1-.63-.47s.51-.77.94-.72.6.11.63.48S12.45,104.58,12,104.58Z"/><path class="cls-1" d="M14.45,111.48c-.2,0-.46-.06-.46-.44a.88.88,0,0,1,.94-.76c.3,0,.56.11.58.45S15,111.49,14.45,111.48Z"/><path class="cls-1" d="M40.3,45.06s0,.06,0,.09L39.09,45A3,3,0,0,1,40.3,45.06Z"/><path class="cls-1" d="M122.57,54.71s0,0-.06,0-.06,0-.09-.07l.08,0S122.55,54.69,122.57,54.71Z"/><path class="cls-1" d="M70.94,48.28s0,0,.07,0,0,0,0,0l-.08,0S71,48.3,70.94,48.28Z"/><path class="cls-1" d="M22.32,18.14c-.35-1,.28-1.41,1.12-1.72q.69-.27,1.38-.51a.85.85,0,0,1,1,.22,12.41,12.41,0,0,1,1.62,2.19.36.36,0,0,1,0,.4,14.34,14.34,0,0,1-1.61,2.42.31.31,0,0,1-.36.11,17.16,17.16,0,0,1-2.8-.88c-.19-.07-.21-.22-.22-.38A8.56,8.56,0,0,1,22.32,18.14Z"/></g></g></svg>