<svg xmlns="http://www.w3.org/2000/svg" viewBox="0 0 206.41 382.75"><defs><style>.cls-1{fill:#1a213d;}</style></defs><g id="Layer_2" data-name="Layer 2"><g id="Layer_1-2" data-name="Layer 1"><path class="cls-1" d="M73.76,382.75c0-.16-.14-.18-.27-.19A67.63,67.63,0,0,1,48,376.12a67.89,67.89,0,0,1-15.65-10.29,66,66,0,0,1-10.54-11.72,67.64,67.64,0,0,1-8.59-16.74A68.72,68.72,0,0,1,9.67,321a62.54,62.54,0,0,1-.31-7.5A68.43,68.43,0,0,1,27,268.73c1.35-1.51,2.78-3,4.19-4.4,2.69-2.77,5.39-5.52,8.08-8.28l9.47-9.76,5.83-6c3.14-3.23,6.29-6.44,9.4-9.69q2.94-3.06,5.91-6.1c3.12-3.19,6.22-6.41,9.33-9.61l6-6.17,9.27-9.55,6-6.17c.51-.53,1-1.08,1.51-1.65-.07-.32-.37-.49-.58-.71l-7.74-7.94c-2-2-4-4.11-6-6.16Q83,171.73,78.37,167l-6-6.24-6.11-6.3L57.1,145,51,138.71l-6.11-6.3-6.11-6.31c-2-2-4-4.08-6-6.16-2.6-2.76-5.34-5.39-7.75-8.32A67.43,67.43,0,0,1,11.77,86a70,70,0,0,1-1.63-28.24,67.57,67.57,0,0,1,5.46-18.5,66.56,66.56,0,0,1,10.49-16.2A67.44,67.44,0,0,1,64,1.22,66.21,66.21,0,0,1,72.71.09,1.43,1.43,0,0,0,73,0h3.08Q107.54,0,139,0a67.4,67.4,0,0,1,60.3,37.23,65.82,65.82,0,0,1,4,9.91,61.4,61.4,0,0,1,2.93,16c0,.15,0,.33.17.39v8.69c-.22.11-.16.33-.17.51a51.28,51.28,0,0,1-1.5,10.75,67.06,67.06,0,0,1-6.56,17.24,68.09,68.09,0,0,1-10,13.87c-2.57,2.74-5.21,5.42-7.83,8.12-2,2.11-4.07,4.2-6.1,6.3l-6,6.23-9.27,9.56c-2,2.05-4,4.11-6,6.16q-4.62,4.78-9.26,9.56l-6,6.16-9.2,9.48c-2,2.1-4.06,4.21-6.1,6.3l-8.09,8.28c-.15.16-.35.28-.4.52.66.71,1.3,1.43,2,2.12l9.34,9.62,5.9,6.1,9.33,9.62,6,6.16,6.24,6.44,6,6.23,6.11,6.3,6,6.23c2.06,2.13,4.11,4.26,6.18,6.37,2.76,2.84,5.53,5.65,8.28,8.49,1.26,1.29,2.52,2.57,3.72,3.92a67.73,67.73,0,0,1,11.7,18.14,63.83,63.83,0,0,1,5.48,22.9c0,.15,0,.33.17.39v8.5c-.18.08-.16.25-.17.41,0,.77,0,1.54-.1,2.31a60.77,60.77,0,0,1-1.67,9.75,67.42,67.42,0,0,1-48.7,49.19,70.07,70.07,0,0,1-13.27,2.06c-.16,0-.33,0-.39.19Zm34.15-196.9c1-1,1.89-1.91,2.77-2.83,3.11-3.26,6.26-6.47,9.4-9.7l5.83-6,9.4-9.69,5.91-6.1,9.26-9.55,6-6.17q4.67-4.8,9.33-9.62l5.91-6.1q3.7-3.8,7.4-7.6c1.75-1.79,3.51-3.58,5.13-5.49A60.24,60.24,0,0,0,198.4,64.91a63.09,63.09,0,0,0-.94-8.12,60.43,60.43,0,0,0-6.27-17.72A59.2,59.2,0,0,0,155.5,10.36,60,60,0,0,0,138.7,8Q108.87,8,79,8c-2.22,0-4.43,0-6.65.17A65.64,65.64,0,0,0,65.82,9,59.9,59.9,0,0,0,32.48,27.94a58.46,58.46,0,0,0-10,15.69,61.35,61.35,0,0,0-5.07,23.66c0,1.28,0,2.56.08,3.85a59.81,59.81,0,0,0,6.9,25,60.79,60.79,0,0,0,9.51,13.27c1.67,1.78,3.38,3.53,5.08,5.28q4.65,4.82,9.33,9.62l5.9,6.1,9.4,9.69,5.84,6,9.67,10c1.86,1.92,3.71,3.84,5.57,5.75q4.83,5,9.67,10c1.64,1.68,3.32,3.32,4.92,5,1.08,1.15,2.21,2.24,3.3,3.38C104.31,182.12,106.07,183.94,107.91,185.85ZM108,374.68h29.06a77.85,77.85,0,0,0,8.07-.39,57.5,57.5,0,0,0,12.3-2.63,59.52,59.52,0,0,0,25.88-17A58.55,58.55,0,0,0,193,339.93a61.38,61.38,0,0,0,5.48-23.08,56.74,56.74,0,0,0-.19-7.6A60.34,60.34,0,0,0,186,277.83a92.76,92.76,0,0,0-7-7.82c-3.24-3.39-6.53-6.74-9.8-10.11l-5.36-5.55-9.4-9.69-5.9-6.09L139.27,229l-6-6.16q-4.63-4.78-9.27-9.56c-1.75-1.79-3.54-3.55-5.26-5.38-1.06-1.12-2.16-2.2-3.23-3.31q-3.58-3.72-7.16-7.43c-.45-.47-.47-.46-.89,0-1.22,1.28-2.43,2.57-3.65,3.84l-9.27,9.56-6,6.16-9.33,9.63-5.91,6.09L64,242.07c-2,2-3.89,4-5.84,6q-4.72,4.89-9.46,9.76l-5.77,6-7.82,8a68.24,68.24,0,0,0-5.78,6.7,60.42,60.42,0,0,0-9.22,18,61.54,61.54,0,0,0-2.75,16.37,57.38,57.38,0,0,0,.28,7.41,59.93,59.93,0,0,0,5.52,20.24,59.51,59.51,0,0,0,36.86,31.58,63.17,63.17,0,0,0,18.23,2.55Z"/><path class="cls-1" d="M0,185.61l5.68,0c.59,0,.61,0,.61.69s0,.66-.64.66c-.87,0-1.73,0-2.6,0-.42,0-.66.07-.63.57q0,1.11,0,2.22c0,.5.21.59.63.57s1.09,0,1.64,0c.92,0,.92,0,.91.67s0,.62-1,.62c-.55,0-1.09,0-1.64,0-.38,0-.6.06-.58.52q0,1.4,0,2.79c0,.42.16.56.57.55.87,0,1.73,0,2.6,0s.79,0,.78.78a3.63,3.63,0,0,1-.06.46H3.72c-1,0-2,0-3,0-.25,0-.52-.09-.73.13Z"/><path class="cls-1" d="M44.21,196.67v-2q0-4.18,0-8.39c0-.78,0-.79.79-.79a35.16,35.16,0,0,1,4.23.12,5.35,5.35,0,0,1,1.58.42,2.69,2.69,0,0,1,1.6,2.54c0,1.61,0,3.22,0,4.82a3,3,0,0,1-2.78,3.15A33.76,33.76,0,0,1,44.21,196.67ZM50,191.1c0-.86,0-1.73,0-2.6A1.38,1.38,0,0,0,48.74,187a5.45,5.45,0,0,0-1.34-.14c-.74,0-.75,0-.76.74v6.16c0,1.66,0,1.66,1.62,1.59,1.22-.05,1.73-.57,1.74-1.8C50,192.7,50,191.9,50,191.1Z"/><path class="cls-1" d="M27.81,191.17c0,.8,0,1.61,0,2.41a2,2,0,0,0,3.06,1.58,1.47,1.47,0,0,0,.57-1,1.86,1.86,0,0,0,0-.58c0-1.34-.2-1.18,1.26-1.2h.58a.32.32,0,0,1,.38.33,5.16,5.16,0,0,1-.26,2.37,3,3,0,0,1-2.66,1.64,8.39,8.39,0,0,1-2.69-.09,2.93,2.93,0,0,1-2.59-2.81,27.55,27.55,0,0,1,0-5.67,2.74,2.74,0,0,1,2.2-2.51,7.81,7.81,0,0,1,3.9,0,2.61,2.61,0,0,1,2.11,2.63c0,.29,0,.58,0,.87s-.16.53-.53.49c-.12,0-.25,0-.38,0-1.27,0-1.27,0-1.33-1.22s-.49-1.58-1.61-1.6c-1.35,0-2.05.46-2.05,1.92Z"/><path class="cls-1" d="M9.84,191.08c0-1.61,0-3.22,0-4.82,0-.47.09-.68.62-.69,1.71,0,1.71,0,1.71,1.63s0,3.53,0,5.3a11.82,11.82,0,0,0,.1,2.85,17.19,17.19,0,0,0,2.78.08,5,5,0,0,0,.67,0c.48,0,.5.25.5.61s0,.64-.47.64q-2.7,0-5.4,0c-.45,0-.52-.2-.52-.59C9.85,194.42,9.84,192.75,9.84,191.08Z"/><path class="cls-1" d="M39.79,185.44a.84.84,0,0,1,.18.66c0,3.28,0,6.56,0,9.83,0,.73,0,.73-.74.74-1.58,0-1.58,0-1.58-1.54,0-2.83,0-5.66,0-8.49,0-1.16-.15-1,1-1A2.79,2.79,0,0,0,39.79,185.44Z"/><path class="cls-1" d="M107.91,185.85c-1.84-1.91-3.6-3.73-5.35-5.57-1.09-1.14-2.22-2.23-3.3-3.38-1.6-1.72-3.28-3.36-4.92-5q-4.84-5-9.67-10c-1.86-1.91-3.71-3.83-5.57-5.75l-9.67-10-5.84-6-9.4-9.69-5.9-6.1q-4.66-4.81-9.33-9.62c-1.7-1.75-3.41-3.5-5.08-5.28a60.79,60.79,0,0,1-9.51-13.27,59.81,59.81,0,0,1-6.9-25c-.06-1.29-.11-2.57-.08-3.85a61.35,61.35,0,0,1,5.07-23.66,58.46,58.46,0,0,1,10-15.69A59.9,59.9,0,0,1,65.82,9a65.64,65.64,0,0,1,6.57-.89C74.61,7.94,76.82,8,79,8q29.82,0,59.66,0a60,60,0,0,1,16.8,2.41,59.2,59.2,0,0,1,35.69,28.71,60.43,60.43,0,0,1,6.27,17.72,63.09,63.09,0,0,1,.94,8.12A60.24,60.24,0,0,1,184.22,107c-1.62,1.91-3.38,3.7-5.13,5.49q-3.69,3.81-7.4,7.6l-5.91,6.1q-4.65,4.82-9.33,9.62l-6,6.17-9.26,9.55-5.91,6.1-9.4,9.69-5.83,6c-3.14,3.23-6.29,6.44-9.4,9.7C109.8,183.94,108.91,184.87,107.91,185.85ZM67.22,72.16C65.65,71.07,64.13,70,62.64,69c-.36-.25-.57-.26-.86.12A6.94,6.94,0,0,1,56.65,72a6.63,6.63,0,0,1-6.45-2.8,8.41,8.41,0,0,1-1.35-5.22A6.68,6.68,0,0,1,53,57.85a7.27,7.27,0,0,1,7.92,1.28c.53.48.57.49,1.06,0,1.23-1.12,2.45-2.27,3.67-3.4.31-.28.16-.49-.07-.72A14,14,0,0,0,63.17,53a13.19,13.19,0,0,0-10.9-1.6,12.61,12.61,0,0,0-8.65,6.92,13.87,13.87,0,0,0-1.35,6.53A13.52,13.52,0,0,0,47.89,76c.16.12.45.16.4.48l-3.34.4a117,117,0,0,0-12.86,2.31,4.85,4.85,0,0,0-3.91,4.13,12.54,12.54,0,0,0,0,4.69,18.73,18.73,0,0,0,4,9.26c1.62,1.91,3.35,3.72,5,5.57s3.47,3.79,5.19,5.7l6.21,6.85c1.72,1.9,3.46,3.79,5.19,5.7l6.2,6.85c1.72,1.9,3.46,3.79,5.19,5.7l6.2,6.85c1.73,1.9,3.46,3.79,5.19,5.7L82.8,153,89.07,160,96,167.59c1.77,1.95,3.53,3.9,5.31,5.85,1.23,1.35,2.45,2.72,3.72,4a3.18,3.18,0,0,0,3.73.64,5.44,5.44,0,0,0,1.75-1.48c1.5-1.59,3-3.21,4.45-4.81,1.86-2,3.73-4,5.59-6s4-4.29,6-6.44c1.35-1.46,2.72-2.91,4.07-4.37l6-6.43,4.14-4.44c1.92-2.07,3.83-4.15,5.75-6.23,1.42-1.53,2.86-3,4.28-4.58,1.9-2,3.79-4.1,5.69-6.15l5.59-6c2.29-2.47,4.57-5,6.86-7.43,1.88-2,3.78-4,5.66-6.05,2.29-2.48,4.56-5,6.87-7.43A52.66,52.66,0,0,0,188,91.65a5.82,5.82,0,0,0,.84-2.44,2.52,2.52,0,0,0-2.51-2.87,13.8,13.8,0,0,0-2.86.34c-1.67.28-3.35.58-5,.84-.67.11-.67.08-.76-.58q-.76-5.77-1.54-11.54c-.13-1.05-.23-2.1-.4-3.15-.07-.47.11-.64.53-.69.61-.06,1.21-.13,1.82-.21,1.84-.25,3.68-.51,5.52-.74.38,0,.55-.1.48-.58-.25-1.59-.42-3.18-.61-4.77,0-.3-.15-.39-.43-.36s-.77,0-1.15.09c-1.68.23-3.36.47-5.05.69l-16.29,2.13c-.68.09-.71.1-.64.76.18,1.5.39,3,.58,4.49,0,.43.22.56.71.49,2.34-.33,4.7-.62,7.05-.91.82-.1.82-.09.93.71l1.17,9c.25,1.91.49,3.82.76,5.73.06.42,0,.61-.5.66-1.69.16-3.37.41-5.06.6-2,.24-4,.46-6,.6-1,.06-1,.1-1-.87s.09-2.12.1-3.18c0-1.48,0-3,0-4.44a18,18,0,0,0-1.12-6.51,10.9,10.9,0,0,0-7.66-7.11,16.59,16.59,0,0,0-8.28-.11,10.58,10.58,0,0,0-6.9,5.16,17,17,0,0,0-2,6.38c-.27,2-.18,3.91-.29,5.87-.07,1.25.09,2.51-.09,3.75-.07.5.22,1.15-.17,1.48s-1,0-1.49,0c-2.4-.11-4.79-.42-7.18-.68a6,6,0,0,1-2.12-.38c0-.18.17-.21.27-.28a13.9,13.9,0,0,0,5-6.6,39.4,39.4,0,0,0,1.36-5.12c.73-3,1.44-6,2.16-9.08.2-.84.18-.86-.61-1L124.67,66c-.65-.15-.71-.13-.86.51-.79,3.38-1.57,6.75-2.37,10.13a17.84,17.84,0,0,1-1.37,4.4,6,6,0,0,1-3.3,3.07,6.39,6.39,0,0,1-4.25-.08,5.61,5.61,0,0,1-4.16-4.6,8.46,8.46,0,0,1,.11-3.25c.35-1.6.74-3.19,1.11-4.78.61-2.6,1.23-5.19,1.82-7.79.15-.65.13-.67-.53-.83-1.65-.4-3.31-.77-5-1.18-.8-.19-.79-.26-1,.62-.72,3.07-1.46,6.13-2.17,9.2a27.41,27.41,0,0,0-1.1,7.31,12.68,12.68,0,0,0,1.8,6.32c.14.22.26.46.42.73-1.6-.25-13.44-3.6-14.7-4.15,0,0,0-.06.06-.07l.79-.35A12,12,0,0,0,95.21,77,15.6,15.6,0,0,0,98.1,66.86,11.93,11.93,0,0,0,93.57,58a14.62,14.62,0,0,0-10.95-3.28,12,12,0,0,0-8.8,4.93,15.43,15.43,0,0,0-3,7.82,12.84,12.84,0,0,0,2.22,9.06c.31.45.67.88,1,1.34l-.17,0A84.76,84.76,0,0,0,64,76.48a2.92,2.92,0,0,1-.7-.22A15.16,15.16,0,0,0,67.22,72.16Z"/><path class="cls-1" d="M172.23,191.11c0-.83.05-1.67,0-2.5a2.8,2.8,0,0,1,2.18-2.89,6,6,0,0,1,3.48.09,2.69,2.69,0,0,1,1.89,2.62c0,1.73,0,3.47,0,5.2a2.73,2.73,0,0,1-2.19,2.88,5.82,5.82,0,0,1-3.23,0,2.76,2.76,0,0,1-2.12-2.85Zm5.41-.06a17.29,17.29,0,0,0-.12-3,1.44,1.44,0,0,0-1.53-1.18,1.36,1.36,0,0,0-1.5,1.19,28.94,28.94,0,0,0,0,6,.28.28,0,0,0,0,.09,1.44,1.44,0,0,0,1.57,1.13,1.35,1.35,0,0,0,1.46-1.13,3.68,3.68,0,0,0,.12-1.05C177.63,192.49,177.64,191.85,177.64,191.05Z"/><path class="cls-1" d="M186.05,195.12h3.71c.85,0,.81,0,.84.86,0,.54-.23.63-.69.63-1.87,0-3.73,0-5.6,0-.32,0-.8.22-.93-.23a1.31,1.31,0,0,1,.23-1.35c.84-.88,1.63-1.81,2.45-2.72.6-.66,1.21-1.32,1.79-2a3.1,3.1,0,0,0,.85-1.79,1.3,1.3,0,0,0-1.08-1.55,1.51,1.51,0,0,0-1.88,1.07,1.8,1.8,0,0,0-.07.38c-.09.87-.09.87-.92.87h-.19c-1.26,0-1.24,0-1.06-1.22a2.67,2.67,0,0,1,2.19-2.38,6.39,6.39,0,0,1,2.95,0,2.85,2.85,0,0,1,1.82,4.44,16.43,16.43,0,0,1-2,2.35Z"/><path class="cls-1" d="M200.43,188.92c0,.93,0,1.87,0,2.8,0,.38.14.53.5.5h.29c.82,0,1.09.43.85,1.22-.09.31-.32.25-.54.27-1.09.06-1.09.06-1.09,1.15v.2c0,1.72,0,1.71-1.68,1.55-.34,0-.46-.16-.45-.47,0-.65,0-1.29,0-1.93,0-.38-.12-.51-.5-.51-1.06,0-2.12,0-3.18,0-.5,0-.68-.14-.68-.65a2.94,2.94,0,0,1,.43-1.73q1.62-2.58,3.15-5.19a1,1,0,0,1,1-.57c.39,0,.78,0,1.16,0,.74,0,.75,0,.76.72C200.44,187.18,200.43,188.05,200.43,188.92Zm-2.13-.59a20.7,20.7,0,0,0-2.06,3.82,8,8,0,0,0,1.51.07c.4,0,.57-.11.56-.54C198.28,190.56,198.3,189.45,198.3,188.33Z"/><path class="cls-1" d="M164.11,195.24h3.71c.21,0,.5-.1.6.16a1.52,1.52,0,0,1,0,1c-.06.18-.26.16-.41.16-2.09,0-4.19,0-6.28,0-.38,0-.48-.16-.5-.52a1.62,1.62,0,0,1,.5-1.29c1.36-1.49,2.7-3,4-4.52a3.11,3.11,0,0,0,.82-1.61,1.38,1.38,0,0,0-1-1.71,1.55,1.55,0,0,0-2,1.12,1.84,1.84,0,0,0-.07.66c0,.46-.2.55-.59.53s-.58,0-.87,0c-.77,0-.84-.08-.77-.8a2.9,2.9,0,0,1,3.11-2.87c.45,0,.9,0,1.35,0a2.82,2.82,0,0,1,2.72,1.49,3.24,3.24,0,0,1-.27,3.22,15.93,15.93,0,0,1-1.56,1.82c-.74.85-1.52,1.66-2.28,2.49A1,1,0,0,0,164.11,195.24Z"/><path class="cls-1" d="M83,305.05a16.94,16.94,0,0,1-2.28-1.66,12.69,12.69,0,0,1-4.11-8,14.77,14.77,0,0,1,2-10.37,12.45,12.45,0,0,1,8.65-5.57,14.67,14.67,0,0,1,8.41.84,12.46,12.46,0,0,1,7.79,10.33,15.32,15.32,0,0,1-.55,7.14,12.34,12.34,0,0,1-5.21,6.82l-.57.37a1.21,1.21,0,0,0,0,.14h15.37c0-.05,0-.14,0-.16-2.63-1.92-3.73-4.65-4.15-7.75a24.77,24.77,0,0,1-.1-3.55V281.19c0-.19,0-.38,0-.58,0-.71,0-.72.77-.73h4.54c.88,0,.88,0,.88.91q0,7.09,0,14.19a8.87,8.87,0,0,0,.48,2.93,3.68,3.68,0,0,0,2.81,2.51,5.49,5.49,0,0,0,2.58,0,3.76,3.76,0,0,0,2.82-2.51,8.85,8.85,0,0,0,.48-2.54c.18-4.83,0-9.65.08-14.48,0-.12,0-.25,0-.38,0-.44.13-.63.6-.63,1.64,0,3.29,0,4.93,0,.5,0,.59.23.57.65,0,.58,0,1.16,0,1.73v12.84a7.19,7.19,0,0,0,.87,3.61,3.31,3.31,0,0,0,2.34,1.69,5,5,0,0,0,4.39-.81,3.85,3.85,0,0,0,1.26-2,11.61,11.61,0,0,0,.4-3.05v-13.9c0-.72,0-.73.76-.74h4.73c.68,0,.69,0,.69.7,0,3.25,0,6.5,0,9.75,0,2,.1,4.06-.08,6.08a12.21,12.21,0,0,1-2.53,6.94,10.44,10.44,0,0,1-1.75,1.64c0,.23.24.18.38.18H149c.67,0,.69,0,.69-.69,0-3.8,0-7.59,0-11.39a17,17,0,0,1,1.77-7.63,10.83,10.83,0,0,1,8.07-5.94,16.26,16.26,0,0,1,7.9.37,11.06,11.06,0,0,1,7.46,7.69,20.44,20.44,0,0,1,1,6.26c0,3.44,0,6.88,0,10.33,0,1.1-.15,1,1.05,1h12.16a5.27,5.27,0,0,1,2.34.47,2.78,2.78,0,0,1,1.67,2.3c.14,1.28.3,2.55.34,3.83a59.66,59.66,0,0,1-.79,12.38A54.43,54.43,0,0,1,187.79,339a52.44,52.44,0,0,1-9.1,13,53.16,53.16,0,0,1-14.8,10.94,60.22,60.22,0,0,1-13.06,4.56,79.33,79.33,0,0,1-10.71,1.82c-2.21.22-4.42.31-6.63.31H79.91A59.1,59.1,0,0,1,48,360a60.62,60.62,0,0,1-7.48-5.9,56.74,56.74,0,0,1-11.48-14.76,54.25,54.25,0,0,1-6.43-20.65,48.39,48.39,0,0,1,.06-10.76c.26-2.16.9-2.72,3.05-2.72H46.29c.91,0,.82,0,.82-.85V280.58c0-.68,0-.69.71-.7,3.38,0,6.76-.06,10.13,0a18,18,0,0,1,7.3,1.55,11.5,11.5,0,0,1,6.88,9.95,14.52,14.52,0,0,1-.82,6.72,11.35,11.35,0,0,1-6.37,6.48,3.07,3.07,0,0,0-.94.47C65,305.22,82.08,305.21,83,305.05Zm79.75.12h5.79c.8,0,.8,0,.81-.76,0-3.54,0-7.07,0-10.61a13.1,13.1,0,0,0-.56-3.88,5.68,5.68,0,0,0-3-3.67,7.38,7.38,0,0,0-3.68-.56,5.55,5.55,0,0,0-5.2,3.89,11.37,11.37,0,0,0-.62,3.68c0,3.76,0,7.52,0,11.28,0,.53.18.65.66.64C158.82,305.16,160.78,305.17,162.74,305.17ZM83,293.54a6.88,6.88,0,0,0,8.48,6.68,6.31,6.31,0,0,0,5-4.08,8.56,8.56,0,0,0,.53-4,6.66,6.66,0,0,0-5.68-6.46,6.83,6.83,0,0,0-6.49,2.08C83.5,289.24,83,291,83,293.54ZM53.68,293c0,2.22,0,4.44,0,6.66,0,.49.13.69.65.67.8,0,1.61,0,2.41,0a13.63,13.63,0,0,0,3.72-.36A6.25,6.25,0,0,0,65,296a8.93,8.93,0,0,0,.51-3.4,6.51,6.51,0,0,0-6.08-6.83c-1.7-.2-3.4-.07-5.1-.11-.67,0-.68,0-.69.71Zm99.06,22.14a.47.47,0,0,1-.49-.05c-1.8-1.1-3.17-.56-3.7,1.46a2.32,2.32,0,0,0-.06.38,40.74,40.74,0,0,0-.05,5.3,4.2,4.2,0,0,0,.28,1.3,2.11,2.11,0,0,0,3.09,1.1c.27-.15.46-.44.88-.53-.07.68.3.81.85.75a4.22,4.22,0,0,1,.87,0c.44,0,.56-.18.54-.57,0-.22,0-.45,0-.67V312.08c0-1.61,0-1.59-1.57-1.57-.5,0-.67.14-.65.65C152.76,312.48,152.74,313.79,152.74,315.1Zm27.95.53c-.24-1-.24-1-1.27-1h-.29c-.79,0-.8,0-.8.78q0,4.11,0,8.2c0,1.39-.12,1.16,1.19,1.17,1.12,0,1,.12,1-1.05q0-3.27,0-6.56c0-.36,0-.67.4-.88,1.06-.57,1.71-.19,1.64.87,0,.16,0,.33,0,.49,0,1.93,0,3.86,0,5.78,0,1.6-.22,1.32,1.39,1.35.81,0,.81,0,.81-.87q0-3.57,0-7.14a3.9,3.9,0,0,0-.06-.76,1.7,1.7,0,0,0-2.49-1.39A5.4,5.4,0,0,0,180.69,315.63Zm-91.57,4c-.07-.79,0-1.66-.09-2.53a2.87,2.87,0,0,0-3.15-2.61,2.76,2.76,0,0,0-3.12,2.61,21.77,21.77,0,0,0,0,5.29,2.72,2.72,0,0,0,1,1.84A3.27,3.27,0,0,0,89,322.38,22.75,22.75,0,0,0,89.12,319.61Zm74.34.06a12.15,12.15,0,0,0,.2,3.07c.43,1.57,1.59,2.26,3.51,2.13a2.63,2.63,0,0,0,2.55-2.53c.21-1.49.1-1.18-1-1.2-.93,0-.93,0-1,.89a2.61,2.61,0,0,1,0,.48c-.15.62-.4.83-1,.82s-.74-.16-.9-.8a8.74,8.74,0,0,1-.09-2.11c0-.74,0-.75.73-.76,1,0,1.93,0,2.89,0,.36,0,.53-.1.53-.49a10.61,10.61,0,0,0-.17-2.39,2.65,2.65,0,0,0-.89-1.67,3.52,3.52,0,0,0-3.47-.39,2.76,2.76,0,0,0-1.74,2.45A17.47,17.47,0,0,0,163.46,319.67Zm-40.85.07a12.35,12.35,0,0,0,.2,3,2.7,2.7,0,0,0,2.61,2.16h.68c1.6,0,3-1.07,2.78-3.36,0-.22-.09-.37-.34-.37a4.77,4.77,0,0,0-1.52.08c-.36.14-.09.7-.17,1.06l0,.19c-.14.64-.39.86-1,.86s-.82-.2-1-.85a18.07,18.07,0,0,1-.07-2.21c0-.45.15-.63.62-.62,1,0,2,0,3,0,.41,0,.56-.12.56-.55a12,12,0,0,0-.22-2.48,2.58,2.58,0,0,0-.89-1.56,3.25,3.25,0,0,0-5.14,1.88A17.38,17.38,0,0,0,122.61,319.74Zm-13.8-2.16c0,2.09,0,4.17,0,6.26,0,1.13,0,1,.92,1h4.14c.86,0,.92.22.92-1a1.21,1.21,0,0,1,0-.19c0-.36-.13-.52-.51-.51-.74,0-1.47,0-2.21,0s-.85,0-.85-.82c0-3.37,0-6.75,0-10.12,0-.53.24-1.21-.13-1.56s-1-.11-1.58-.11-.68,0-.69.69Zm-38.14,2V322c0,2.21.91,3,3.1,2.84a2.45,2.45,0,0,1,.38,0c.41,0,.49-.21.47-.54a4,4,0,0,1,0-.49c.05-.5-.15-.65-.66-.65-.78,0-1-.27-1.07-1.05,0-1.86,0-3.73,0-5.59,0-.36.16-.53.53-.5.16,0,.32,0,.48,0,.53.06.56-.26.54-.66s0-.68-.52-.7c-1,0-1-.06-1-1.12v-.38c0-1.76,0-1.75-1.76-1.58-.33,0-.46.15-.46.47,0,.64,0,1.28,0,1.92,0,.43,0,.77-.59.71s-.46.39-.47.72,0,.68.47.62.6.19.59.62C70.66,317.61,70.67,318.6,70.67,319.6Zm69.12.1v-3.46c0-1.65,0-1.65-1.63-1.59-.66,0-.67,0-.67.72,0,2.92,0,5.84,0,8.76,0,.47.09.73.63.68a4.7,4.7,0,0,1,1.06,0c.53.05.64-.2.63-.68C139.78,322.66,139.79,321.18,139.79,319.7Zm-1.09-6.88h.77c.18,0,.31-.09.31-.28,0-.48.17-1-.07-1.41s-.71-.11-1.09-.15c-.19,0-.38,0-.57,0-.4,0-.56.11-.58.53C137.41,312.83,137.39,312.83,138.7,312.82Zm-10.45-7.67c-.52-.48-.92-.83-1.31-1.2-.16-.14-.29-.24-.49-.06l-1.35,1.26Z"/><path class="cls-1" d="M107.82,259.81a6.85,6.85,0,0,1-7-5.83,8.39,8.39,0,0,1,0-2.4l2.46-18.49c.68-5.05,1.38-10.1,2.06-15.15q.84-6.24,1.67-12.48a2.34,2.34,0,0,1,0-.38,1,1,0,0,1,.88-.88,1,1,0,0,1,.84.91c.18,1.24.32,2.48.49,3.72l3.21,24c.85,6.32,1.71,12.64,2.53,19a7.26,7.26,0,0,1-5.5,7.88A7.07,7.07,0,0,1,107.82,259.81Z"/><path class="cls-1" d="M144.69,90.66c-1.74,0-3.48,0-5.21,0-.5,0-.66-.15-.66-.66,0-2.76.13-5.51.19-8.27a14.06,14.06,0,0,1,.5-3.71,5.61,5.61,0,0,1,5.82-4.35,7.87,7.87,0,0,1,2.93.47,5.8,5.8,0,0,1,3.49,4.42,10.94,10.94,0,0,1,.3,2.67l-.09,8a3.85,3.85,0,0,1,0,.48c-.09.72-.1.69-.81.75C149,90.66,146.83,90.66,144.69,90.66Z"/><path class="cls-1" d="M91.54,67.88a8.86,8.86,0,0,1-1.88,5.44,6.37,6.37,0,0,1-6.52,2.34,7.21,7.21,0,0,1-4-2,6.3,6.3,0,0,1-1.84-4.22,8.74,8.74,0,0,1,1.32-5.15,6.32,6.32,0,0,1,6.67-3.17,6.81,6.81,0,0,1,6.1,5.56C91.51,67.05,91.51,67.46,91.54,67.88Z"/><path class="cls-1" d="M152.74,319.71c0,.93,0,1.86,0,2.79,0,.61-.24.84-.85.94a.92.92,0,0,1-1.08-.59,2.56,2.56,0,0,1-.2-1c0-1.41,0-2.83,0-4.24a2.46,2.46,0,0,1,.11-.85A1,1,0,0,1,152,316a.78.78,0,0,1,.71.86C152.72,317.78,152.74,318.75,152.74,319.71Z"/><path class="cls-1" d="M86.89,319.72v2.4a1.75,1.75,0,0,1-.16.84.89.89,0,0,1-.86.49.83.83,0,0,1-.83-.55,3,3,0,0,1-.19-1.12q0-2.11,0-4.23a2.93,2.93,0,0,1,.16-1,.89.89,0,0,1,.91-.59.88.88,0,0,1,.86.63,2.26,2.26,0,0,1,.11.85Z"/><path class="cls-1" d="M166.64,318.7h-.48c-.36,0-.52-.13-.5-.5a7.44,7.44,0,0,1,.09-1.33c.18-.67.41-.89.94-.88s.87.27,1,1c.06.43,0,.88.05,1.33a.35.35,0,0,1-.4.41Z"/><path class="cls-1" d="M125.84,318.7c-1,0-1,0-1-1a4,4,0,0,1,.15-1,.8.8,0,0,1,.84-.64.82.82,0,0,1,.93.65,4,4,0,0,1,.12,1C126.86,318.78,127,318.69,125.84,318.7Z"/></g></g></svg>