<svg xmlns="http://www.w3.org/2000/svg" viewBox="0 0 119.51 166.8"><defs><style>.cls-1{fill:#1a213d;}.cls-2{isolation:isolate;}</style></defs><g id="Layer_2" data-name="Layer 2"><g id="Layer_1-2" data-name="Layer 1"><g id="layer1"><g id="path22-1-7-6"><rect class="cls-1" x="51.02" y="-1.1" width="13.24" height="109.56" transform="translate(-15.03 23.29) rotate(-20.26)"/></g><g id="path24-7-9-6"><polygon class="cls-1" points="118.98 148.32 1.03 148.32 60.59 63.56 67.26 68.25 16.71 140.17 118.98 140.17 118.98 148.32"/></g><g id="path26-4-5-2"><rect class="cls-1" x="15.48" y="130.27" width="103.5" height="15.67"/></g><g class="cls-2"><path class="cls-1" d="M0,163.14l1.07-.1A3.12,3.12,0,0,0,2,165.18a3.15,3.15,0,0,0,2.16.72,4.22,4.22,0,0,0,1.66-.29,2.39,2.39,0,0,0,1.06-.87,2.2,2.2,0,0,0,.38-1.23c0-1.15-1-1.91-3-2.28a6.35,6.35,0,0,1-2.91-1.13A2.56,2.56,0,0,1,.47,158a2.68,2.68,0,0,1,1-2.23A4,4,0,0,1,4.14,155a4.23,4.23,0,0,1,2.75.78A3.21,3.21,0,0,1,8,158.16l-1.06.06a2.37,2.37,0,0,0-2.7-2.38,3.11,3.11,0,0,0-1.91.56,1.8,1.8,0,0,0-.75,1.51c0,1.09.91,1.81,2.75,2.19a8,8,0,0,1,3,1.16,2.49,2.49,0,0,1,1,2.16,3.28,3.28,0,0,1-.29,1.38,2.74,2.74,0,0,1-.81,1.06,3.7,3.7,0,0,1-1.28.69,5.57,5.57,0,0,1-1.67.25C1.63,166.77.22,165.55,0,163.14Z"/><path class="cls-1" d="M12,166.59H10.62v-1.51H12Z"/><path class="cls-1" d="M23.22,155.12l-4.29,11.47H17.8l-4.2-11.47h1.16l3.6,10.27,3.73-10.27Z"/><path class="cls-1" d="M26.2,166.59H24.85v-1.51H26.2Z"/><path class="cls-1" d="M37.85,166.59H36.69l-6.61-9.78.1,9.78h-1.1V155.12h1.1L36.85,165l-.09-9.87h1.06v11.47Z"/><path class="cls-1" d="M42.21,166.59H40.86v-1.51h1.35Z"/><path class="cls-1" d="M45.12,166.59V155.12h4.33a4.93,4.93,0,0,1,1.88.34,2.64,2.64,0,0,1,1.22,1A2.91,2.91,0,0,1,53,158a2.63,2.63,0,0,1-.38,1.38,3.19,3.19,0,0,1-1.28,1.16,3.29,3.29,0,0,1,1.69,1.1,2.82,2.82,0,0,1,.5,1.72,3,3,0,0,1-.41,1.66,2.8,2.8,0,0,1-1.22,1.13,4.4,4.4,0,0,1-2,.44H45.12Zm1.1-10.5v4.07h3.35a3.08,3.08,0,0,0,1.26-.25,1.89,1.89,0,0,0,1.09-1.82,2.12,2.12,0,0,0-.19-.91,1.53,1.53,0,0,0-.5-.62,2.11,2.11,0,0,0-.87-.35,7.64,7.64,0,0,0-1.32-.12Zm0,5v4.52h3.57a3.53,3.53,0,0,0,1.35-.26,1.86,1.86,0,0,0,.91-.75,2.27,2.27,0,0,0,.34-1.28,2,2,0,0,0-.69-1.63,2.74,2.74,0,0,0-1.88-.6Z"/><path class="cls-1" d="M57.34,166.59H56v-1.51h1.34Z"/><path class="cls-1" d="M73.48,166.59H72.42V161H65.77v5.58H64.71V155.12h1.06v4.95h6.65v-4.95h1.06Z"/><path class="cls-1" d="M86.49,160.85a6.25,6.25,0,0,1-1.41,4.29,5,5,0,0,1-3.92,1.63,5.37,5.37,0,0,1-2.82-.72,4.86,4.86,0,0,1-1.85-2,7.06,7.06,0,0,1-.66-3.17,6.12,6.12,0,0,1,1.44-4.29,4.88,4.88,0,0,1,3.92-1.63,5.4,5.4,0,0,1,2.85.72,4.8,4.8,0,0,1,1.85,2.07A7.76,7.76,0,0,1,86.49,160.85Zm-1.13,0a5.53,5.53,0,0,0-1.13-3.63,3.8,3.8,0,0,0-3.07-1.38,3.65,3.65,0,0,0-3.07,1.41,5.77,5.77,0,0,0-1.1,3.63,5.67,5.67,0,0,0,1.13,3.64,3.74,3.74,0,0,0,3.07,1.41,3.8,3.8,0,0,0,2.19-.63,4.34,4.34,0,0,0,1.48-1.75A7.5,7.5,0,0,0,85.36,160.85Z"/><path class="cls-1" d="M98.93,160.85a6.25,6.25,0,0,1-1.41,4.29,5,5,0,0,1-3.92,1.63,5.37,5.37,0,0,1-2.82-.72,4.92,4.92,0,0,1-1.85-2,7.06,7.06,0,0,1-.66-3.17,6.12,6.12,0,0,1,1.44-4.29,4.88,4.88,0,0,1,3.92-1.63,5.4,5.4,0,0,1,2.85.72,4.8,4.8,0,0,1,1.85,2.07A7.76,7.76,0,0,1,98.93,160.85Zm-1.13,0a5.53,5.53,0,0,0-1.13-3.63,3.71,3.71,0,0,0-3.07-1.38,3.65,3.65,0,0,0-3.07,1.41,5.77,5.77,0,0,0-1.1,3.63,5.67,5.67,0,0,0,1.13,3.64,3.74,3.74,0,0,0,3.07,1.41,3.8,3.8,0,0,0,2.19-.63,4.34,4.34,0,0,0,1.48-1.75A7.5,7.5,0,0,0,97.8,160.85Z"/><path class="cls-1" d="M110.46,166.59H109l-4.67-6.15-2.07,1.88v4.27h-1.07V155.12h1.1v6l6.49-6h1.47l-5.17,4.7Z"/><path class="cls-1" d="M119.48,166.59h-7.55V155.12h7.33v1H113v4.1h5.76v.94H113v4.48h6.48v1Z"/></g></g></g></g></svg>