<svg xmlns="http://www.w3.org/2000/svg" viewBox="0 0 736.68 96.84"><defs><style>.cls-1{fill:#1a213d;}</style></defs><g id="Layer_2" data-name="Layer 2"><g id="Layer_1-2" data-name="Layer 1"><path class="cls-1" d="M193.79,13.12c-.81-3.44-3.45-5.43-7.28-5.43-5.92,0-9.31,4.35-9.31,11.89s3.39,12,9.09,12c4.15,0,6.63-2.05,7.6-6.35h8.56c-1,8.12-7,13.18-15.93,13.18-10.6,0-17.38-7.31-17.38-18.78S175.81.85,186.5.85c8.66,0,14.55,4.63,15.55,12.27Z"/><path class="cls-1" d="M214.94,13.79a9.31,9.31,0,0,1,6.89-2.91,8.85,8.85,0,0,1,6.67,2.8c1.68,1.82,2.31,4,2.31,7.91v16h-7.63V23c0-2.43-.22-3.4-.87-4.31a3.65,3.65,0,0,0-3-1.35,4.78,4.78,0,0,0-3.36,1.3c-.86.91-1,1.68-1,4.36V37.6H207.3V1.68h7.64Z"/><path class="cls-1" d="M245,11.58l-.22,4.63c1.51-4.21,3.44-5.38,9-5.33v7.21a14,14,0,0,0-1.94-.11c-2.64,0-4.79,1.19-5.65,3.12-.76,1.73-1,4.15-1,9.15v7.32h-7.64v-26Z"/><path class="cls-1" d="M265.59,37.58H258v-26h7.64Z"/><path class="cls-1" d="M286.47,19.39c-.32-1.94-1.88-3-4.42-3-2.2,0-3.66.86-3.66,2.15,0,1,.76,1.45,3.18,2l4.79,1c3.17.64,4.79,1.34,5.92,2.53a7.2,7.2,0,0,1,1.94,5.21c0,5.5-4.48,9-11.68,9s-11.68-3.39-12.11-9.15h7.16c.43,2.48,2,3.61,5.11,3.61,2.42,0,4-1,4-2.53,0-1.24-.86-1.89-2.9-2.37L279,26.79c-5.7-1.25-7.91-3.36-7.91-7.49,0-5.22,4.14-8.4,11.09-8.4,6.67,0,10.71,3,11.41,8.51Z"/><path class="cls-1" d="M312.84,17.29h-4.68V27.41c0,4.08.16,4.41,1.93,4.41h2.75v5.76h-4.68c-3.36,0-5-.49-6.16-1.72s-1.51-2.69-1.51-6.72V17.29h-3.64V11.9h3.66V3.67h7.65V11.9h4.68Z"/><path class="cls-1" d="M325.65,37.58H318v-26h7.64Z"/><path class="cls-1" d="M332.43,19.76c.49-6,4.18-8.88,11.52-8.88,3.91,0,6.94.91,9,2.69,1.88,1.68,2.58,3.76,2.58,7.59v12c0,2.8.1,3.17,1,4.48h-7.81c-.32-.92-.32-1.08-.59-2.05a10.1,10.1,0,0,1-7.43,2.75c-5.76,0-9.58-3.23-9.58-8.13s3.07-7.43,10.33-8.62l4.15-.69c1.72-.27,2.32-.7,2.32-1.78,0-1.46-1.51-2.37-4-2.37-2.8,0-4.31,1-4.64,3.07Zm15.68,5.44a15.42,15.42,0,0,1-2.8.81l-2.75.59c-2.75.64-3.92,1.56-3.92,3.12,0,1.72,1.45,2.75,3.87,2.75a6,6,0,0,0,5.6-3.29Z"/><path class="cls-1" d="M362.36,19.76c.48-6,4.19-8.88,11.51-8.88,3.92,0,6.94.91,9,2.69,1.89,1.68,2.59,3.76,2.59,7.59v12c0,2.8.1,3.17,1,4.48H378.6a21.24,21.24,0,0,1-.6-2.05,10.1,10.1,0,0,1-7.43,2.75c-5.75,0-9.58-3.23-9.58-8.13s3.08-7.43,10.33-8.64l4.14-.7c1.73-.27,2.32-.7,2.32-1.78,0-1.45-1.51-2.37-4-2.37-2.8,0-4.3,1-4.63,3.07ZM378,25.2a15.42,15.42,0,0,1-2.8.81l-2.75.59c-2.74.64-3.91,1.56-3.91,3.12,0,1.72,1.45,2.75,3.87,2.75a6,6,0,0,0,5.6-3.29Z"/><path class="cls-1" d="M399.65,11.58v2.54c2.8-2.59,4.41-3.29,7.1-3.29,5.65,0,9.1,3.77,9.1,9.9V37.58h-7.64V23.43c0-2.64-.16-3.67-.81-4.63a3.63,3.63,0,0,0-3.12-1.51A4.34,4.34,0,0,0,401,18.72c-.85,1-1.12,2-1.12,4.3V37.61h-7.65v-26Z"/><path class="cls-1" d="M178.81,69.54V85.05h-8.07V49.15h8.07V62.66H192V49.15h8.08v35.9H192V69.54Z"/><path class="cls-1" d="M230.78,85.05h-7.27V82.19a7.44,7.44,0,0,1-6.9,3.56,9.68,9.68,0,0,1-6.88-2.69c-1.78-1.78-2.48-4-2.48-7.7V59h7.64V73.67c0,2.53.11,3.18.81,4.09a4,4,0,0,0,3.36,1.5,3.91,3.91,0,0,0,3.28-1.5c.7-.91.81-1.51.81-4.09V59h7.63Z"/><path class="cls-1" d="M260.83,59l-9,26.21c-1.45,4.25-2.32,5.76-3.66,6.72s-3,1.29-5.82,1.29h-4.48V87.52h2.24c2.7,0,3.92-1,3.92-3.28,0-.92-.05-1.08-1-3.36l-8.56-21.83h8.19l3.82,11.89c.75,2.42.75,2.47,1.35,4.63l.32,1c.32-1.72.75-3.5,1.34-5.81L252.84,59Z"/><path class="cls-1" d="M288.71,59.21V82.57c0,4.25-.59,6.13-2.42,7.92C283.92,92.8,280.37,94,275.9,94c-7.28,0-11.63-3-12.17-8.29h7.93c.56,1.62,2,2.43,4.57,2.43a5.88,5.88,0,0,0,3.61-1c1.12-.91,1.45-1.88,1.45-4.52v-1.7a9.12,9.12,0,0,1-7,2.8c-6.83,0-11.75-5.23-11.75-12.55s4.95-12.75,11.51-12.75a8.31,8.31,0,0,1,7.59,4l-.16-3.18ZM269.81,71c0,3.82,2.32,6.46,5.77,6.46s5.76-2.53,5.76-6.57c0-3.82-2.32-6.35-5.76-6.35s-5.77,2.62-5.77,6.49Z"/><path class="cls-1" d="M302.05,74.28c.49,3.56,2.59,5.49,5.87,5.49a4.9,4.9,0,0,0,4.53-2.31h7.74c-1.45,5-6.29,8.29-12.48,8.29-8,0-13.35-5.49-13.35-13.67s5.44-13.73,13.29-13.73c5.5,0,9.64,2.75,11.58,7.65a21.05,21.05,0,0,1,1.29,8.28Zm10.61-5.38c-.33-3.07-2.1-4.74-5-4.74s-4.89,1.68-5.49,4.74Z"/><path class="cls-1" d="M333.43,59v2.53c2.8-2.59,4.42-3.29,7.11-3.29,5.65,0,9.09,3.77,9.09,9.91V85H342V70.89c0-2.63-.16-3.66-.8-4.63a3.63,3.63,0,0,0-3.13-1.5,4.31,4.31,0,0,0-3.28,1.4c-.86,1-1.12,2-1.12,4.3V85.05H326V59Z"/><path class="cls-1" d="M370.51,66.87c-.32-1.94-1.88-3-4.41-3-2.21,0-3.66.86-3.66,2.15,0,1,.75,1.45,3.18,2l4.79,1c3.17.65,4.79,1.35,5.92,2.54a7.2,7.2,0,0,1,1.94,5.21c0,5.49-4.48,9-11.68,9s-11.68-3.39-12.11-9.15h7.15c.43,2.48,2.05,3.61,5.12,3.61,2.42,0,4-1,4-2.53,0-1.24-.86-1.89-2.9-2.37l-4.74-1.08c-5.71-1.24-7.91-3.35-7.91-7.48,0-5.22,4.14-8.4,11.08-8.4,6.68,0,10.71,3,11.41,8.51Z"/><path class="cls-1" d="M509.72,23.51,508,28.63H505.4l6.26-17.07h2.61l6.3,17.07h-2.66l-1.77-5.12ZM513,14.19l-2.51,7.28h5Z"/><path class="cls-1" d="M524.89,16.16v1.36a5,5,0,0,1,3.76-1.6c3.3,0,5.48,2.61,5.48,6.63s-2,6.42-5.27,6.42a4.91,4.91,0,0,1-4-1.74v5.32h-2.35V16.16Zm-.13,6.2c0,3,1.23,4.63,3.51,4.63s3.48-1.64,3.48-4.55-1.26-4.56-3.48-4.56S524.76,19.52,524.76,22.36Z"/><path class="cls-1" d="M539.29,16.16v1.36a5,5,0,0,1,3.76-1.61c3.3,0,5.47,2.61,5.47,6.63s-2,6.42-5.27,6.42a4.89,4.89,0,0,1-4-1.74v5.32h-2.36V16.16Zm-.13,6.2c0,3,1.23,4.63,3.5,4.63s3.48-1.64,3.48-4.55-1.25-4.56-3.48-4.56-3.52,1.64-3.52,4.48Z"/><path class="cls-1" d="M553.64,28.63h-2.35V11.56h2.35Z"/><path class="cls-1" d="M559.44,14.29h-2.35V11.56h2.35Zm0,14.34h-2.35V16.27h2.35Z"/><path class="cls-1" d="M564.6,23c.17,2.53,1.45,4,3.58,4a3,3,0,0,0,3-2.15h2.24a5.1,5.1,0,0,1-5.3,4.12c-3.48,0-5.89-2.66-5.89-6.52s2.38-6.52,5.83-6.52a5.07,5.07,0,0,1,5.07,3.68A10.9,10.9,0,0,1,573.6,23Zm6.55-1.71c-.1-2.24-1.24-3.51-3.1-3.51a3.49,3.49,0,0,0-3.43,3.51Z"/><path class="cls-1" d="M587.39,28.63H585V27.3A5.11,5.11,0,0,1,581.12,29c-3.3,0-5.38-2.55-5.38-6.57s2.1-6.45,5.38-6.45A5.15,5.15,0,0,1,585,17.63V11.56h2.35Zm-9.26-6.19c0,2.91,1.28,4.55,3.5,4.55s3.54-1.64,3.54-4.48-1.26-4.6-3.54-4.6S578.13,19.54,578.13,22.44Z"/><path class="cls-1" d="M606.09,28.63l-4-10.24c-.46-1.3-.85-2.43-1.16-3.53.08,1.28.13,2.66.13,3.73v10h-2.3V11.56h3L606,22.49c.56,1.48.62,1.68,1,3,.51-1.53.72-2.1,1-3l4.22-10.91h3v17H613v-10c0-1.17,0-2.4.13-3.73-.41,1.38-.72,2.35-1.26,3.73l-3.86,10Z"/><path class="cls-1" d="M619,20.36a4.65,4.65,0,0,1,1-3,5.35,5.35,0,0,1,4-1.41c3.08,0,4.81,1.46,4.81,4v5.81c0,1,.13,1.18.67,1.18a1.68,1.68,0,0,0,.62-.13v1.82a6.68,6.68,0,0,1-1.54.18c-1.12,0-1.64-.49-1.84-1.68a5.73,5.73,0,0,1-4.28,1.81c-2.4,0-4-1.48-4-3.66,0-2,1.23-3.22,3.74-3.74L624.9,21c1.48-.27,1.79-.5,1.79-1.27,0-1.21-1.05-1.94-2.72-1.94a2.68,2.68,0,0,0-2.48,1,3.3,3.3,0,0,0-.28,1.51Zm7.73,1.92a10.75,10.75,0,0,1-1.46.46l-2.4.56c-1.44.34-2.08.93-2.08,1.9,0,1.12.92,1.89,2.31,1.89a3.47,3.47,0,0,0,3.63-3.22Z"/><path class="cls-1" d="M637.27,18.16H635v7.75c0,.72.34,1.12.92,1.12a3.47,3.47,0,0,0,1.31-.33v1.92a8.22,8.22,0,0,1-2,.28c-1.77,0-2.61-.95-2.61-3V18.16H631V16.29h1.68V12.37H635v3.92h2.24Z"/><path class="cls-1" d="M641.91,17.39a5.05,5.05,0,0,1,3.68-1.46,4.33,4.33,0,0,1,3.48,1.44,4.33,4.33,0,0,1,.82,3v8.27h-2.36V20.74a2.69,2.69,0,0,0-.51-2,2.45,2.45,0,0,0-1.89-.72,3,3,0,0,0-3.22,3.3v7.28h-2.36v-17h2.36Z"/><path class="cls-1" d="M655.08,23c.18,2.53,1.46,4,3.58,4a3,3,0,0,0,3-2.15h2.24A5.07,5.07,0,0,1,658.6,29c-3.49,0-5.89-2.66-5.89-6.52s2.37-6.52,5.84-6.52a5.07,5.07,0,0,1,5,3.68,10.9,10.9,0,0,1,.48,3.41Zm6.55-1.71c-.1-2.24-1.22-3.51-3.09-3.51a3.48,3.48,0,0,0-3.43,3.51Z"/><path class="cls-1" d="M669.13,16.27v1.56a3.54,3.54,0,0,1,3.36-1.9,3,3,0,0,1,3.2,2.08,4,4,0,0,1,3.74-2.08,3.75,3.75,0,0,1,3,1.28,4.53,4.53,0,0,1,.79,3v8.4h-2.35V20.4c0-1.62-.67-2.38-2-2.38-1.61,0-2.61,1.17-2.61,3.07v7.54H673.9v-8.4a1.9,1.9,0,0,0-2-2.17c-1.58,0-2.61,1.12-2.61,2.94v7.63h-2.36V16.27Z"/><path class="cls-1" d="M686.68,20.36a4.7,4.7,0,0,1,1-3,5.38,5.38,0,0,1,4-1.41c3.07,0,4.81,1.46,4.81,4v5.81c0,1,.13,1.18.67,1.18a1.59,1.59,0,0,0,.61-.13v1.82a6.62,6.62,0,0,1-1.54.18c-1.12,0-1.63-.49-1.84-1.68a5.69,5.69,0,0,1-4.27,1.81c-2.41,0-4-1.48-4-3.66,0-2,1.22-3.22,3.73-3.74l2.74-.56c1.48-.27,1.79-.5,1.79-1.27,0-1.21-1-1.94-2.71-1.94a2.68,2.68,0,0,0-2.48,1,3.18,3.18,0,0,0-.28,1.51Zm7.72,1.92a10.61,10.61,0,0,1-1.45.46l-2.41.56c-1.43.34-2.07.93-2.07,1.9,0,1.12.92,1.89,2.3,1.89a3.46,3.46,0,0,0,3.63-3.22Z"/><path class="cls-1" d="M704.94,18.16H702.7v7.75c0,.72.33,1.12.92,1.12a3.42,3.42,0,0,0,1.3-.33v1.92a8.14,8.14,0,0,1-2,.28c-1.77,0-2.62-.95-2.62-3V18.16h-1.68V16.29h1.68V12.37h2.36v3.92h2.24Z"/><path class="cls-1" d="M709.57,14.29h-2.35V11.56h2.35Zm0,14.34h-2.35V16.27h2.35Z"/><path class="cls-1" d="M721.65,20.46a2.93,2.93,0,0,0-3.12-2.55c-2.24,0-3.76,1.79-3.76,4.47S716.25,27,718.53,27c1.84,0,2.94-1,3.27-3H724a5.14,5.14,0,0,1-5.55,5c-3.68,0-6.09-2.59-6.09-6.53s2.43-6.5,6.16-6.5c3,0,5,1.68,5.33,4.53Z"/><path class="cls-1" d="M733.88,20.06a2.47,2.47,0,0,0-2.8-2.18c-1.41,0-2.36.56-2.36,1.46,0,.61.44,1,1.44,1.28l2.86.74c2.59.67,3.66,1.74,3.66,3.63,0,2.43-2,4-5.14,4-3.36,0-5.35-1.64-5.6-4.58h2.33C728.4,26,729.63,27,731.6,27c1.68,0,2.8-.74,2.8-1.9,0-.81-.56-1.25-2-1.63L730,22.84a6,6,0,0,1-2.61-1.15,2.9,2.9,0,0,1-.92-2.12c0-2.12,2-3.64,4.76-3.64a5.08,5.08,0,0,1,4.09,1.64,4.07,4.07,0,0,1,.87,2.49Z"/><path class="cls-1" d="M519,45.11a4.44,4.44,0,0,0-4.58-3.61c-3.28,0-5.43,2.66-5.43,6.67s2.15,6.91,5.35,6.91c2.67,0,4.48-1.79,4.89-4.76h2.46a7.69,7.69,0,0,1-1.46,4,6.91,6.91,0,0,1-5.94,2.92,7.05,7.05,0,0,1-6-2.92,10.09,10.09,0,0,1-1.87-6.06c0-5.2,3.31-8.86,8-8.86a6.68,6.68,0,0,1,7,5.51Z"/><path class="cls-1" d="M535.74,50.73c0,3.79-2.43,6.42-6,6.42s-5.94-2.63-5.94-6.52,2.41-6.5,5.94-6.5S535.74,46.74,535.74,50.73Zm-9.52-.1c0,2.89,1.3,4.56,3.58,4.56s3.56-1.68,3.56-4.48c0-3-1.28-4.61-3.58-4.61s-3.56,1.66-3.56,4.53Z"/><path class="cls-1" d="M540.78,44.47V46a3.53,3.53,0,0,1,3.36-1.89,3,3,0,0,1,3.19,2.07,4,4,0,0,1,3.74-2.07,3.71,3.71,0,0,1,3,1.28,4.49,4.49,0,0,1,.8,3v8.4h-2.36V48.61c0-1.61-.66-2.38-2-2.38-1.61,0-2.62,1.18-2.62,3.07v7.52h-2.35V48.39a1.9,1.9,0,0,0-2-2.18c-1.58,0-2.61,1.16-2.61,2.95v7.65h-2.35V44.47Z"/><path class="cls-1" d="M560.73,44.36v1.36a5,5,0,0,1,3.77-1.61c3.29,0,5.47,2.61,5.47,6.62s-2.05,6.42-5.27,6.42a4.91,4.91,0,0,1-4-1.73v5.32h-2.35V44.36Zm-.13,6.19c0,3,1.23,4.64,3.51,4.64s3.48-1.64,3.48-4.56-1.25-4.55-3.48-4.55-3.51,1.63-3.51,4.47Z"/><path class="cls-1" d="M580.84,56.82v-1.4a4.7,4.7,0,0,1-3.92,1.73,4.13,4.13,0,0,1-3.35-1.35,4.8,4.8,0,0,1-.83-3.07V44.47h2.38v8.09c0,1.68.77,2.51,2.38,2.51a2.94,2.94,0,0,0,3.25-3.1v-7.5h2.36V56.83Z"/><path class="cls-1" d="M591.46,46.33h-2.24v7.76c0,.71.33,1.12.92,1.12a3.72,3.72,0,0,0,1.31-.33v1.91a7.76,7.76,0,0,1-2,.29c-1.77,0-2.61-.95-2.61-3V46.33h-1.68V44.47h1.68V40.55h2.35v3.92h2.24Z"/><path class="cls-1" d="M595.14,51.22c.18,2.54,1.46,4,3.58,4a3,3,0,0,0,3-2.15H604a5.07,5.07,0,0,1-5.3,4.11c-3.48,0-5.88-2.66-5.88-6.52s2.35-6.5,5.8-6.5a5.07,5.07,0,0,1,5,3.69,10.89,10.89,0,0,1,.49,3.4Zm6.55-1.71c-.1-2.24-1.23-3.51-3.1-3.51a3.46,3.46,0,0,0-3.42,3.51Z"/><path class="cls-1" d="M609.19,44.47v2a6.49,6.49,0,0,1,1-1.31,3.26,3.26,0,0,1,2.2-1,3,3,0,0,1,1.31.3v2.13a4.43,4.43,0,0,0-1.08-.13c-1.89,0-3.36,1.68-3.36,3.89v6.5h-2.35V44.47Z"/><path class="cls-1" d="M634,45c-.25-2.35-1.68-3.5-4.24-3.5-2.28,0-3.74,1-3.74,2.46,0,1.25.89,2,3.07,2.48l2.76.61a7.91,7.91,0,0,1,3.86,1.64A4.28,4.28,0,0,1,637.1,52c0,3.23-2.61,5.23-6.76,5.23-4.42,0-7.08-2.24-7.44-6.35h2.53c.26,2.71,2.05,4.22,5,4.22,2.46,0,4.2-1.2,4.2-2.92,0-1.28-.93-2.12-2.71-2.56l-3.84-.92c-3.13-.74-4.53-2.12-4.53-4.42,0-3,2.48-4.89,6.4-4.89s6,1.82,6.54,5.65Z"/><path class="cls-1" d="M648.71,48.66a2.93,2.93,0,0,0-3.12-2.56c-2.24,0-3.76,1.79-3.76,4.51s1.48,4.58,3.76,4.58c1.84,0,2.94-1,3.28-3h2.24a5.14,5.14,0,0,1-5.55,5c-3.69,0-6.09-2.58-6.09-6.52s2.43-6.5,6.15-6.5c3,0,5,1.68,5.33,4.53Z"/><path class="cls-1" d="M656,42.5H653.6V39.76H656Zm0,14.32H653.6V44.47H656Z"/><path class="cls-1" d="M661.12,51.22c.18,2.54,1.46,4,3.58,4a3,3,0,0,0,3-2.15h2.24a5.07,5.07,0,0,1-5.3,4.11c-3.48,0-5.89-2.66-5.89-6.52s2.36-6.5,5.81-6.5a5.08,5.08,0,0,1,5,3.69,11.19,11.19,0,0,1,.49,3.4Zm6.55-1.71c-.1-2.24-1.23-3.51-3.1-3.51a3.48,3.48,0,0,0-3.43,3.51Z"/><path class="cls-1" d="M675.16,44.47v1.41a4.68,4.68,0,0,1,3.92-1.74,4.15,4.15,0,0,1,3.36,1.36,4.77,4.77,0,0,1,.82,3.07v8.26H680.9V48.74c0-1.68-.76-2.51-2.38-2.51a2.93,2.93,0,0,0-3.24,3.1v7.49h-2.36V44.47Z"/><path class="cls-1" d="M695.35,48.66a2.94,2.94,0,0,0-3.13-2.56c-2.23,0-3.75,1.79-3.75,4.51s1.48,4.58,3.75,4.58c1.85,0,2.95-1,3.28-3h2.24a5.13,5.13,0,0,1-5.55,5c-3.69,0-6.09-2.58-6.09-6.52s2.43-6.5,6.16-6.5c3,0,5,1.68,5.32,4.53Z"/><path class="cls-1" d="M702,51.22c.18,2.54,1.46,4,3.59,4a3,3,0,0,0,3-2.15h2.24a5.1,5.1,0,0,1-5.3,4.11c-3.48,0-5.88-2.66-5.88-6.52s2.35-6.5,5.81-6.5a5.09,5.09,0,0,1,5,3.69,10.88,10.88,0,0,1,.48,3.4Zm6.55-1.71c-.1-2.24-1.22-3.51-3.09-3.51a3.48,3.48,0,0,0-3.43,3.51Z"/><path class="cls-1" d="M517.35,73.23c-.26-2.36-1.68-3.51-4.25-3.51-2.28,0-3.74,1-3.74,2.46,0,1.25.9,2,3.07,2.48l2.78.61a7.91,7.91,0,0,1,3.87,1.64,4.27,4.27,0,0,1,1.38,3.27c0,3.22-2.61,5.22-6.76,5.22-4.42,0-7.09-2.24-7.45-6.34h2.54c.26,2.71,2,4.22,5,4.22,2.46,0,4.2-1.2,4.2-2.92,0-1.28-.93-2.13-2.72-2.56l-3.83-.92c-3.13-.74-4.53-2.12-4.53-4.43,0-3,2.48-4.88,6.39-4.88s6,1.81,6.55,5.65Z"/><path class="cls-1" d="M528.34,74.53H526.1v7.75c0,.72.33,1.12.92,1.12a3.33,3.33,0,0,0,1.31-.33V85a7.74,7.74,0,0,1-2,.28c-1.77,0-2.61-.94-2.61-3V74.53h-1.68V72.66h1.68V68.74h2.35v3.92h2.24Z"/><path class="cls-1" d="M538.53,85v-1.4a4.73,4.73,0,0,1-3.92,1.74A4.18,4.18,0,0,1,531.25,84a4.63,4.63,0,0,1-.82-3.07V72.66h2.35v8.09c0,1.68.78,2.51,2.38,2.51a2.94,2.94,0,0,0,3.25-3.1v-7.5h2.36V85Z"/><path class="cls-1" d="M555.23,85h-2.35V83.69A5.08,5.08,0,0,1,549,85.37c-3.3,0-5.38-2.56-5.38-6.58s2.1-6.44,5.38-6.44A5.12,5.12,0,0,1,552.88,74V68h2.35ZM546,78.83c0,2.92,1.28,4.56,3.51,4.56S553,81.75,553,78.91s-1.26-4.61-3.53-4.61S546,75.94,546,78.83Z"/><path class="cls-1" d="M569.2,72.66,563.75,86.5c-.69,1.72-1.61,2.44-3.12,2.44a5.2,5.2,0,0,1-1.9-.39V86.63a3.53,3.53,0,0,0,1.49.34,1.72,1.72,0,0,0,1.72-1.28l.33-1-5.12-12.06h2.54l2.73,7.06c.41,1.08.49,1.26.92,2.62.28-.93.69-2.2.85-2.62l2.56-7.06Z"/><path class="cls-1" d="M581.56,79.9,579.81,85h-2.58L583.5,68h2.61L592.41,85h-2.66L588,79.9Zm3.22-9.31-2.51,7.28h5Z"/><path class="cls-1" d="M601.49,76.45a2.47,2.47,0,0,0-2.8-2.17c-1.41,0-2.35.58-2.35,1.45,0,.62.43,1,1.43,1.28l2.86.74c2.59.67,3.66,1.74,3.66,3.64,0,2.43-2,4-5.14,4-3.36,0-5.35-1.64-5.6-4.58h2.29c.13,1.63,1.36,2.61,3.32,2.61,1.68,0,2.8-.75,2.8-1.9,0-.82-.56-1.25-2-1.64l-2.46-.61a6.1,6.1,0,0,1-2.6-1.15A2.87,2.87,0,0,1,594,76c0-2.13,2-3.64,4.76-3.64A5.15,5.15,0,0,1,602.85,74a4.08,4.08,0,0,1,.88,2.48Z"/><path class="cls-1" d="M614.12,76.45a2.45,2.45,0,0,0-2.8-2.17c-1.4,0-2.35.58-2.35,1.45,0,.62.43,1,1.44,1.28l2.86.74c2.58.67,3.66,1.74,3.66,3.64,0,2.43-2,4-5.15,4-3.36,0-5.34-1.64-5.59-4.58h2.32c.13,1.63,1.36,2.61,3.36,2.61,1.68,0,2.8-.75,2.8-1.9,0-.82-.56-1.25-2-1.64l-2.46-.61a6.12,6.12,0,0,1-2.64-1.17,2.88,2.88,0,0,1-.93-2.13c0-2.12,2-3.63,4.76-3.63a5.18,5.18,0,0,1,4.1,1.64,4.13,4.13,0,0,1,.87,2.48Z"/><path class="cls-1" d="M630.73,78.93c0,3.79-2.43,6.43-6,6.43s-5.94-2.64-5.94-6.53,2.41-6.5,5.94-6.5S630.73,74.94,630.73,78.93Zm-9.52-.1c0,2.89,1.3,4.56,3.58,4.56s3.56-1.68,3.56-4.48c0-3-1.28-4.61-3.58-4.61S621.21,76,621.21,78.83Z"/><path class="cls-1" d="M642.16,76.86A2.93,2.93,0,0,0,639,74.3c-2.24,0-3.76,1.79-3.76,4.48s1.48,4.58,3.76,4.58c1.84,0,2.94-1,3.28-3h2.23a5.14,5.14,0,0,1-5.55,5c-3.68,0-6.09-2.58-6.09-6.52s2.43-6.5,6.16-6.5c3,0,5,1.68,5.32,4.53Z"/><path class="cls-1" d="M649.4,70.69h-2.35V68h2.35Zm0,14.33h-2.35V72.66h2.35Z"/><path class="cls-1" d="M652.8,76.76a4.76,4.76,0,0,1,1-3,5.36,5.36,0,0,1,4-1.41c3.07,0,4.81,1.46,4.81,4v5.81c0,1,.13,1.18.66,1.18a1.8,1.8,0,0,0,.62-.13V85a6.62,6.62,0,0,1-1.54.18c-1.12,0-1.63-.48-1.84-1.68a5.75,5.75,0,0,1-4.27,1.82c-2.41,0-4-1.48-4-3.66,0-2,1.24-3.23,3.74-3.74l2.74-.56c1.48-.28,1.79-.51,1.79-1.27,0-1.21-1.05-2-2.71-2a2.65,2.65,0,0,0-2.48,1,3.14,3.14,0,0,0-.29,1.51Zm7.73,1.92a10.32,10.32,0,0,1-1.46.46l-2.4.56c-1.44.33-2.08.91-2.08,1.89s.93,1.89,2.31,1.89a3.46,3.46,0,0,0,3.63-3.22Z"/><path class="cls-1" d="M671.07,74.53h-2.24v7.75c0,.72.34,1.12.93,1.12a3.29,3.29,0,0,0,1.3-.33V85a7.68,7.68,0,0,1-2,.28c-1.76,0-2.61-.94-2.61-3V74.53H664.8V72.66h1.68V68.74h2.35v3.92h2.24Z"/><path class="cls-1" d="M675.7,70.69h-2.36V68h2.36Zm0,14.33h-2.36V72.66h2.36Z"/><path class="cls-1" d="M690.41,78.93c0,3.79-2.43,6.43-6,6.43s-5.94-2.64-5.94-6.53,2.41-6.5,5.94-6.5S690.41,74.94,690.41,78.93Zm-9.52-.1c0,2.89,1.31,4.56,3.59,4.56S688,81.71,688,78.91c0-3-1.28-4.61-3.58-4.61S680.89,76,680.89,78.83Z"/><path class="cls-1" d="M695.45,72.66v1.41a4.71,4.71,0,0,1,3.92-1.74,4.19,4.19,0,0,1,3.36,1.36,4.79,4.79,0,0,1,.82,3.07V85h-2.36V77c0-1.68-.76-2.51-2.38-2.51a2.93,2.93,0,0,0-3.25,3.09V85h-2.35V72.66Z"/><circle class="cls-1" cx="460.49" cy="82.61" r="2.41"/><circle class="cls-1" cx="460.49" cy="68.87" r="2.41"/><circle class="cls-1" cx="460.49" cy="55.12" r="2.41"/><circle class="cls-1" cx="460.49" cy="41.38" r="2.41"/><circle class="cls-1" cx="460.49" cy="27.64" r="2.41"/><circle class="cls-1" cx="460.49" cy="13.89" r="2.41"/><circle class="cls-1" cx="261.76" cy="3.87" r="3.87"/><circle class="cls-1" cx="321.82" cy="3.87" r="3.87"/><path class="cls-1" d="M114.22,1.66a19,19,0,0,1-19,19H88.84a31.68,31.68,0,0,0-25.39,12.7,31.65,31.65,0,0,0-25.38-12.7H31.73a19,19,0,0,1-19-19H0A31.74,31.74,0,0,0,31.73,33.39h6.34a19,19,0,0,1,19,19H69.8a19,19,0,0,1,19-19h6.34A31.74,31.74,0,0,0,126.91,1.66Z"/><polygon class="cls-1" points="63.45 96.84 72.97 65.12 53.94 65.12 63.45 96.84"/><circle class="cls-1" cx="25.54" cy="65.11" r="12.69"/><circle class="cls-1" cx="102.02" cy="64.54" r="12.71"/></g></g></svg>