<svg xmlns="http://www.w3.org/2000/svg" viewBox="0 0 335.61 178.49"><defs><style>.cls-1{fill:#1a213d;}</style></defs><g id="Layer_2" data-name="Layer 2"><g id="Layer_1-2" data-name="Layer 1"><g id="Logo"><g id="Woordmerk"><path class="cls-1" d="M32.7,149.23a29.6,29.6,0,0,0-6-3.54q-3.18-1.41-5.61-2.62c-1.47-.74-2.91-1.41-4.34-2a20.34,20.34,0,0,1-3.84-2.14,12,12,0,0,1-2.81-2.74A6.44,6.44,0,0,1,9,132.32q0-4.27,3.18-6.1a16.7,16.7,0,0,1,8.3-1.83,28.91,28.91,0,0,1,7.69,1,37.81,37.81,0,0,1,7.33,2.87l1.58-6.6a35.78,35.78,0,0,0-7.56-2.8,35.8,35.8,0,0,0-9-1.1,29.64,29.64,0,0,0-7.56.92,19.34,19.34,0,0,0-6.27,2.8,13.77,13.77,0,0,0-4.28,4.76,14.11,14.11,0,0,0-1.54,6.78,11.86,11.86,0,0,0,1.64,6.34,17.84,17.84,0,0,0,4.21,4.7,32,32,0,0,0,5.68,3.53c2.07,1,4.09,1.93,6,2.74l4.76,2.14a20.89,20.89,0,0,1,4.09,2.38,11.9,11.9,0,0,1,2.87,3.05,7.54,7.54,0,0,1,1.11,4.17,8,8,0,0,1-4.08,7.33,19.16,19.16,0,0,1-9.95,2.44,35,35,0,0,1-8.54-1,43.71,43.71,0,0,1-7.21-2.44L0,175a31.05,31.05,0,0,0,3.73,1.41,40.27,40.27,0,0,0,4.46,1.09c1.55.28,3.12.5,4.72.67a44.27,44.27,0,0,0,4.46.25,30.64,30.64,0,0,0,8.82-1.22,22.35,22.35,0,0,0,7-3.42,15.63,15.63,0,0,0,4.59-5.37,15.13,15.13,0,0,0,1.65-7.08,12.52,12.52,0,0,0-1.95-7.08A21,21,0,0,0,32.7,149.23Z"/><polygon class="cls-1" points="72.61 168.57 55.89 119.02 47.34 119.02 68.34 177.24 76.88 177.24 97.87 119.02 89.33 119.02 72.61 168.57"/><path class="cls-1" d="M131.07,163.81c-1.87,0-3.13-.43-3.78-1.28a5.88,5.88,0,0,1-1-3.6V91.07H106.78v70.06a24,24,0,0,0,.85,6.41,15.34,15.34,0,0,0,2.81,5.55,13.67,13.67,0,0,0,5.25,3.91,20.26,20.26,0,0,0,8.18,1.46,49.17,49.17,0,0,0,6.41-.42,36.24,36.24,0,0,0,5.55-1.16l-.6-13.44A29.09,29.09,0,0,1,131.07,163.81Z"/><path class="cls-1" d="M154.14,89a10.47,10.47,0,0,0-7.93,3.17,11.48,11.48,0,0,0,0,15.61,11.5,11.5,0,0,0,15.86,0,11.51,11.51,0,0,0,0-15.61A10.52,10.52,0,0,0,154.14,89Z"/><rect class="cls-1" x="144.37" y="117.43" width="19.53" height="59.81"/><path class="cls-1" d="M204.48,107a10.91,10.91,0,0,1,7.27-2.22,22.29,22.29,0,0,1,6.34.86l1.47-13.81a23.75,23.75,0,0,0-5.79-1.51,45.46,45.46,0,0,0-6.05-.43q-11.47,0-18.43,6.3t-6.95,19.59v1.71h-9.28v14.89h9.27v44.9h19.53V132.32h13.67V117.43H201.86v-2.59Q201.86,109.18,204.48,107Z"/><path class="cls-1" d="M249.83,116.21a34.32,34.32,0,0,0-12.57,2.2,26.64,26.64,0,0,0-9.59,6.3,27.82,27.82,0,0,0-6.1,9.94,38.4,38.4,0,0,0-2.13,13.18,35.74,35.74,0,0,0,2.07,12.45,26.42,26.42,0,0,0,6.1,9.65,28.07,28.07,0,0,0,10,6.29,38.82,38.82,0,0,0,13.79,2.27,58.44,58.44,0,0,0,12-1.22,43.16,43.16,0,0,0,10.44-3.54l-2.43-12.6a34,34,0,0,1-8.36,2.38,57,57,0,0,1-9.22.79q-7.2,0-10.68-3.36a12.58,12.58,0,0,1-3.72-8.83h34.67a48.4,48.4,0,0,0,1.09-9.89q0-12.21-6.83-19.1T249.83,116.21Zm7.08,23.67H239.58c0-3.5.83-6.24,2.5-8.24a8.78,8.78,0,0,1,7.14-3,7,7,0,0,1,5.85,2.63,10.15,10.15,0,0,1,2.08,6.53,9.09,9.09,0,0,1-.24,2.08Z"/></g><g id="Beeldmerk"><circle class="cls-1" cx="252.64" cy="21.67" r="8.27" transform="translate(228.64 274.1) rotate(-89.47)"/><circle class="cls-1" cx="313.5" cy="85.05" r="8.27" transform="translate(217.57 395.39) rotate(-88)"/><path class="cls-1" d="M280.45,50l-.63.6c-8.51,8.71-22.71,14.3-32.69,21-.43.29-.86.56-1.32.81a17.81,17.81,0,0,0-3.67,2.54c-.24.19-.46.39-.69.6a12.42,12.42,0,0,0,17.2,17.92q.33-.31.63-.66A18.07,18.07,0,0,0,262,89.21c.26-.44.55-.87.85-1.28,7.11-9.7,13.27-23.67,22.32-31.8.21-.2.42-.39.62-.6,8.51-8.7,22.71-14.29,32.69-21a15,15,0,0,1,1.32-.8,18.66,18.66,0,0,0,4-2.8c.21-.19.43-.37.63-.57a12.42,12.42,0,0,0-17-18.11l-.2.19c-.21.2-.4.41-.59.62a18,18,0,0,0-3,3.83c-.27.44-.56.87-.86,1.29C295.66,27.88,289.49,41.84,280.45,50Z"/><path class="cls-1" d="M241.82,63.37a9.59,9.59,0,0,0,2.4-1c8.17-3.65,18.5-11.46,27.8-20.38l.1-.09.09-.1c9.29-8.92,17.52-18.92,21.5-26.94A9.72,9.72,0,0,0,277.23,4.56a9.61,9.61,0,0,0-.81,1.6,22.07,22.07,0,0,0-1.29,2.63h0c-2.8,6.73-3,15.38-5.9,21.83l-.08.17c-.08.19-.17.38-.26.57a2,2,0,0,0-.13.25c-.08.17-.17.33-.25.5l-.17.3-.25.44-.2.32-.25.39a3.12,3.12,0,0,1-.25.35l-.25.35-.31.38-.24.28-.5.54-.09.09a.76.76,0,0,1-.09.09l-.56.47-.29.22-.4.3c-.14.09-.23.16-.35.25l-.36.23-.41.25a2.3,2.3,0,0,1-.33.19l-.45.25-.3.16-.5.23-.25.12-.57.25-.18.07c-6.56,2.6-15.22,2.48-22.06,5h0a22,22,0,0,0-2.68,1.18,9.72,9.72,0,0,0,5.62,18.6Z"/><path class="cls-1" d="M332.92,45.12a9.75,9.75,0,0,0-11.84-1.71c-8.17,3.64-18.5,11.46-27.8,20.38l-.1.09-.09.09c-9.29,8.93-17.53,18.93-21.5,26.94a9.73,9.73,0,1,0,16.48,10.34,10,10,0,0,0,.81-1.6A22.07,22.07,0,0,0,290.17,97h0c2.79-6.73,3-15.38,5.9-21.83l.07-.18.27-.56c0-.08.08-.17.13-.25s.17-.33.25-.5l.16-.3.26-.44c.06-.11.13-.21.2-.32l.25-.4c.08-.12.16-.23.25-.34l.25-.35.31-.38.24-.28c.16-.19.32-.36.5-.54l.09-.09a.81.81,0,0,1,.1-.09c.18-.16.36-.32.55-.47l.3-.22c.09-.08.25-.2.39-.3l.36-.25c.12-.09.23-.15.35-.23l.41-.25a3,3,0,0,1,.33-.19l.45-.26.3-.15.51-.25.25-.11.57-.26.18-.06c6.56-2.6,15.22-2.49,22-5h0A21.41,21.41,0,0,0,329.08,61a9.73,9.73,0,0,0,6-12.38,9.62,9.62,0,0,0-2.17-3.53Z"/></g></g></g></g></svg>