<?xml version="1.0" encoding="utf-8"?>
<!-- Generator: Adobe Illustrator 24.3.0, SVG Export Plug-In . SVG Version: 6.00 Build 0)  -->
<svg version="1.1" id="Layer_1" xmlns="http://www.w3.org/2000/svg" xmlns:xlink="http://www.w3.org/1999/xlink" x="0px" y="0px"
	 viewBox="0 0 1200 628" style="enable-background:new 0 0 1200 628;" xml:space="preserve">
<style type="text/css">
	.st0{fill:#077BEF;}
</style>
<g>
	<path class="st0" d="M286.84,244.18H153.26c-39.15,0-71.18-32.03-71.18-71.18v0c0-5.87,4.8-10.68,10.68-10.68h254.58
		c5.87,0,10.68,4.8,10.68,10.68v0C358.02,212.15,325.98,244.18,286.84,244.18z"/>
	<path class="st0" d="M281.55,465.32H147.98c-39.15,0-71.18-32.03-71.18-71.18v0c0-5.87,4.8-10.68,10.68-10.68h254.58
		c5.87,0,10.68,4.8,10.68,10.68v0C352.73,433.29,320.7,465.32,281.55,465.32z"/>
	<path class="st0" d="M273.58,367.21l-131.61-22.82c-38.57-6.69-64.66-43.72-57.97-82.29l0,0c1-5.79,6.56-9.7,12.34-8.7l250.84,43.5
		c5.79,1,9.7,6.56,8.7,12.34v0C349.18,347.81,312.15,373.9,273.58,367.21z"/>
</g>
<g>
	<g>
		<path d="M421.48,389.06v-140h23v140H421.48z M437.28,389.06v-21h73.2v21H437.28z"/>
		<path d="M573.07,391.06c-9.6,0-18.23-2.17-25.9-6.5c-7.67-4.33-13.73-10.3-18.2-17.9c-4.47-7.6-6.7-16.13-6.7-25.6
			c0-9.47,2.2-17.97,6.6-25.5c4.4-7.53,10.37-13.5,17.9-17.9c7.53-4.4,15.9-6.6,25.1-6.6c8.93,0,16.83,2.07,23.7,6.2
			c6.87,4.13,12.27,9.8,16.2,17c3.93,7.2,5.9,15.4,5.9,24.6c0,1.6-0.1,3.23-0.3,4.9c-0.2,1.67-0.5,3.5-0.9,5.5h-78.8v-18h67.4
			l-8.2,7.2c-0.27-5.87-1.4-10.8-3.4-14.8s-4.83-7.07-8.5-9.2c-3.67-2.13-8.17-3.2-13.5-3.2c-5.6,0-10.47,1.2-14.6,3.6
			c-4.13,2.4-7.33,5.77-9.6,10.1c-2.27,4.33-3.4,9.5-3.4,15.5s1.2,11.27,3.6,15.8c2.4,4.53,5.8,8.03,10.2,10.5
			c4.4,2.47,9.46,3.7,15.2,3.7c4.93,0,9.5-0.87,13.7-2.6c4.2-1.73,7.77-4.27,10.7-7.6l14,14.2c-4.67,5.47-10.33,9.6-17,12.4
			C587.6,389.66,580.54,391.06,573.07,391.06z"/>
		<path d="M626.87,313.06v-20h68v20H626.87z M649.87,389.06v-136h22v136H649.87z"/>
		<path d="M708.47,298.06l13.6-25.4l7.4-2c-0.8,1.6-1.73,2.93-2.8,4c-1.07,1.07-2.33,1.6-3.8,1.6c-3.07,0-5.9-1.3-8.5-3.9
			c-2.6-2.6-3.9-5.9-3.9-9.9c0-4.27,1.47-7.9,4.4-10.9c2.93-3,6.47-4.5,10.6-4.5c4,0,7.5,1.5,10.5,4.5s4.5,6.63,4.5,10.9
			c0,1.73-0.37,3.77-1.1,6.1c-0.73,2.33-2.03,5.3-3.9,8.9l-14.8,27.2L708.47,298.06z"/>
		<path d="M792.67,391.06c-5.33,0-10.47-0.7-15.4-2.1c-4.93-1.4-9.47-3.4-13.6-6c-4.13-2.6-7.73-5.77-10.8-9.5l14-14
			c3.33,3.87,7.17,6.77,11.5,8.7c4.33,1.93,9.23,2.9,14.7,2.9c4.93,0,8.67-0.73,11.2-2.2c2.53-1.47,3.8-3.6,3.8-6.4
			c0-2.93-1.2-5.2-3.6-6.8c-2.4-1.6-5.5-2.96-9.3-4.1c-3.8-1.13-7.8-2.3-12-3.5c-4.2-1.2-8.2-2.83-12-4.9c-3.8-2.07-6.9-4.9-9.3-8.5
			c-2.4-3.6-3.6-8.27-3.6-14c0-6.13,1.43-11.4,4.3-15.8c2.87-4.4,6.93-7.8,12.2-10.2c5.27-2.4,11.57-3.6,18.9-3.6
			c7.73,0,14.57,1.37,20.5,4.1c5.93,2.73,10.9,6.83,14.9,12.3l-14,14c-2.8-3.47-6-6.07-9.6-7.8c-3.6-1.73-7.73-2.6-12.4-2.6
			c-4.4,0-7.8,0.67-10.2,2c-2.4,1.33-3.6,3.27-3.6,5.8c0,2.67,1.2,4.73,3.6,6.2c2.4,1.47,5.5,2.73,9.3,3.8c3.8,1.07,7.8,2.23,12,3.5
			c4.2,1.27,8.2,3,12,5.2c3.8,2.2,6.9,5.13,9.3,8.8c2.4,3.67,3.6,8.43,3.6,14.3c0,9.33-3.27,16.73-9.8,22.2
			C812.74,388.33,803.87,391.06,792.67,391.06z"/>
		<path d="M890.27,389.06v-140h23v140H890.27z M906.07,270.06v-21h77.4v21H906.07z M906.07,327.66v-20.2h71.6v20.2H906.07z
			 M906.07,389.06v-21h78.4v21H906.07z"/>
		<path d="M1045.47,391.06c-8.67,0-16.5-2.2-23.5-6.6c-7-4.4-12.54-10.37-16.6-17.9c-4.07-7.53-6.1-15.97-6.1-25.3
			c0-9.47,2.03-17.97,6.1-25.5c4.07-7.53,9.6-13.53,16.6-18c7-4.47,14.83-6.7,23.5-6.7c7.33,0,13.83,1.57,19.5,4.7
			c5.67,3.13,10.17,7.43,13.5,12.9c3.33,5.47,5,11.67,5,18.6v27.6c0,6.93-1.63,13.13-4.9,18.6c-3.27,5.47-7.77,9.77-13.5,12.9
			C1059.33,389.49,1052.8,391.06,1045.47,391.06z M1049.07,370.26c8.13,0,14.7-2.73,19.7-8.2c5-5.47,7.5-12.47,7.5-21
			c0-5.73-1.13-10.8-3.4-15.2c-2.27-4.4-5.43-7.83-9.5-10.3c-4.07-2.47-8.83-3.7-14.3-3.7c-5.33,0-10.03,1.23-14.1,3.7
			c-4.07,2.47-7.27,5.9-9.6,10.3c-2.33,4.4-3.5,9.47-3.5,15.2c0,5.73,1.17,10.8,3.5,15.2c2.33,4.4,5.53,7.83,9.6,10.3
			C1039.03,369.03,1043.73,370.26,1049.07,370.26z M1074.87,389.06v-25.8l3.8-23.4l-3.8-23.2v-23.6h22v96H1074.87z"/>
		<path d="M1112.87,313.06v-20h68v20H1112.87z M1135.87,389.06v-136h22v136H1135.87z"/>
	</g>
</g>
</svg>
