<svg xmlns="http://www.w3.org/2000/svg" xmlns:xlink="http://www.w3.org/1999/xlink" width="250" zoomAndPan="magnify" viewBox="0 0 187.5 187.499992" height="250" preserveAspectRatio="xMidYMid meet" version="1.0"><defs><clipPath id="91da2f15bd"><path d="M 53 0 L 133 0 L 133 186 L 53 186 Z M 53 0 " clip-rule="nonzero"/></clipPath><clipPath id="63d41b7688"><path d="M 36.441406 9.300781 L 133.234375 -0.0234375 L 150.808594 182.390625 L 54.015625 191.71875 Z M 36.441406 9.300781 " clip-rule="nonzero"/></clipPath><clipPath id="a21a02b168"><path d="M 36.441406 9.300781 L 133.234375 -0.0234375 L 150.808594 182.390625 L 54.015625 191.71875 Z M 36.441406 9.300781 " clip-rule="nonzero"/></clipPath></defs><g clip-path="url(#91da2f15bd)"><g clip-path="url(#63d41b7688)"><g clip-path="url(#a21a02b168)"><path fill="#1a213d" d="M 132.78125 5.144531 C 132.578125 43.734375 120.578125 91.785156 100.652344 129.679688 C 92.324219 143.988281 82.636719 157.308594 71.585938 169.636719 C 75.621094 167.417969 80.050781 164.875 83.625 162.59375 C 87.753906 160.125 87.617188 160.175781 90.269531 158.71875 L 90.207031 158.746094 C 90.242188 158.71875 90.289062 158.714844 90.328125 158.6875 L 90.632812 158.519531 C 91.671875 157.941406 90.894531 158.390625 90.457031 158.625 C 90.863281 158.367188 91.300781 158.179688 91.765625 158.058594 C 92.234375 157.9375 92.707031 157.894531 93.1875 157.917969 C 93.667969 157.945312 94.132812 158.046875 94.585938 158.21875 C 95.035156 158.390625 95.445312 158.628906 95.824219 158.929688 C 101.847656 165.378906 90.164062 169.726562 84.453125 173.6875 C 78.285156 176.390625 59.792969 191.179688 55.234375 182.355469 C 54.890625 182.097656 54.585938 181.800781 54.3125 181.472656 C 54.039062 181.144531 53.808594 180.785156 53.621094 180.402344 C 53.433594 180.019531 53.289062 179.617188 53.195312 179.199219 C 53.101562 178.785156 53.054688 178.359375 53.058594 177.933594 C 53.0625 177.503906 53.117188 177.085938 53.21875 176.667969 C 53.320312 176.253906 53.46875 175.855469 53.664062 175.476562 C 53.859375 175.09375 54.097656 174.742188 54.375 174.417969 C 54.652344 174.089844 54.964844 173.804688 55.3125 173.550781 C 56.738281 163.277344 58.378906 153.011719 59.902344 142.75 C 59.996094 142.273438 60.15625 141.816406 60.382812 141.386719 C 60.609375 140.953125 60.890625 140.5625 61.230469 140.210938 C 61.570312 139.859375 61.949219 139.5625 62.375 139.324219 C 62.800781 139.085938 63.25 138.910156 63.726562 138.800781 C 64.199219 138.691406 64.683594 138.652344 65.167969 138.683594 C 65.65625 138.710938 66.128906 138.8125 66.585938 138.976562 C 67.042969 139.144531 67.46875 139.375 67.863281 139.664062 C 68.253906 139.957031 68.59375 140.296875 68.890625 140.6875 C 71.125 144.527344 68.464844 149.285156 68.34375 153.445312 C 68.074219 155.277344 67.789062 157.105469 67.519531 158.9375 C 79.515625 144.441406 90.285156 130.445312 97.328125 114.035156 C 104.613281 97.671875 110.453125 80.808594 114.859375 63.445312 C 119.261719 46.082031 122.160156 28.472656 123.554688 10.617188 C 124.121094 7.917969 123.46875 4.710938 125.121094 2.382812 C 125.421875 2.035156 125.769531 1.742188 126.164062 1.503906 C 126.558594 1.265625 126.980469 1.09375 127.429688 0.988281 C 127.878906 0.886719 128.332031 0.851562 128.789062 0.890625 C 129.25 0.933594 129.691406 1.042969 130.117188 1.222656 C 130.539062 1.402344 130.925781 1.644531 131.273438 1.945312 C 131.621094 2.25 131.914062 2.597656 132.152344 2.992188 C 132.386719 3.386719 132.558594 3.808594 132.660156 4.257812 C 132.761719 4.707031 132.792969 5.164062 132.753906 5.621094 C 132.765625 5.230469 132.789062 4.710938 132.78125 5.144531 Z M 132.78125 5.144531 " fill-opacity="1" fill-rule="nonzero"/></g></g></g></svg>